<svg width="15" height="15" viewBox="0 0 15 15" fill="none" xmlns="http://www.w3.org/2000/svg">
<g clip-path="url(#clip0_706_131987)">
<path d="M7.49512 0.0820312C3.40311 0.0820312 0.0859375 3.3992 0.0859375 7.49121C0.0859375 11.5832 3.40311 14.9004 7.49512 14.9004C11.5871 14.9004 14.9043 11.5832 14.9043 7.49121C14.9043 3.3992 11.5871 0.0820312 7.49512 0.0820312ZM8.16738 11.3446C7.96996 11.52 7.72381 11.6074 7.42876 11.6074C7.13371 11.6074 6.8874 11.52 6.69015 11.3446C6.49274 11.1696 6.39411 10.9455 6.39411 10.6725C6.39411 10.3997 6.49274 10.1756 6.69015 10.0005C6.8874 9.82527 7.13355 9.73767 7.42876 9.73767C7.72381 9.73767 7.96996 9.82527 8.16738 10.0005C8.36479 10.1756 8.46358 10.3997 8.46358 10.6725C8.46358 10.9455 8.36479 11.1696 8.16738 11.3446ZM9.91841 6.4014C9.79674 6.65233 9.60097 6.90868 9.33193 7.17048L8.69573 7.76239C8.51478 7.93576 8.38932 8.11358 8.31951 8.29618C8.24954 8.47877 8.21084 8.71027 8.20327 8.9905H6.621C6.621 8.45193 6.68175 8.02698 6.80359 7.71513C6.92527 7.40345 7.12252 7.13343 7.39551 6.90457C7.66849 6.67604 7.87595 6.4666 8.01804 6.27676C8.15997 6.08676 8.23093 5.87749 8.23093 5.6488C8.23093 5.09195 7.9912 4.81337 7.51175 4.81337C7.29046 4.81337 7.11149 4.89454 6.97516 5.05688C6.83866 5.21923 6.76671 5.43854 6.7593 5.71531H4.88939C4.89664 4.97769 5.12912 4.40323 5.58651 3.99194C6.04374 3.58065 6.68554 3.375 7.51175 3.375C8.33433 3.375 8.97136 3.565 9.42315 3.94485C9.87511 4.32486 10.1008 4.86523 10.1008 5.56598C10.1008 5.87206 10.0401 6.15064 9.91841 6.4014Z" fill="#BCC0B7"/>
</g>
<defs>
<clipPath id="clip0_706_131987">
<rect width="15" height="15" fill="white"/>
</clipPath>
</defs>
</svg>
