<svg width="30" height="31" viewBox="0 0 30 31" fill="none" xmlns="http://www.w3.org/2000/svg">
<path d="M27.3844 11.5296C26.8373 11.4502 26.3153 11.2483 25.8571 10.9391C25.3988 10.6299 25.0163 10.2213 24.7378 9.74379C24.4594 9.26624 24.2923 8.73204 24.249 8.18095C24.2056 7.62986 24.2872 7.0761 24.4875 6.5609C24.6149 6.22408 24.6336 5.85585 24.5412 5.50783C24.4487 5.15981 24.2496 4.84945 23.9719 4.62027C22.7457 3.59058 21.3499 2.78169 19.8469 2.22965C19.5046 2.10251 19.131 2.08662 18.7792 2.18425C18.4273 2.28189 18.1153 2.48806 17.8875 2.7734C17.5447 3.21182 17.1065 3.56641 16.6062 3.81028C16.1059 4.05415 15.5566 4.18089 15 4.18089C14.4434 4.18089 13.8942 4.05415 13.3939 3.81028C12.8936 3.56641 12.4554 3.21182 12.1125 2.7734C11.8847 2.48806 11.5727 2.28189 11.2209 2.18425C10.8691 2.08662 10.4954 2.10251 10.1531 2.22965C8.76533 2.73931 7.46776 3.46722 6.3094 4.3859C6.01741 4.61705 5.80709 4.93562 5.70924 5.29494C5.6114 5.65427 5.63116 6.03549 5.76565 6.38277C5.98198 6.9116 6.07136 7.48378 6.02662 8.0534C5.98188 8.62301 5.80426 9.17422 5.50802 9.66279C5.21178 10.1514 4.80515 10.5637 4.32076 10.8667C3.83638 11.1698 3.28771 11.3551 2.71877 11.4078C2.3494 11.4473 2.00247 11.6043 1.72906 11.8558C1.45565 12.1073 1.2702 12.4399 1.20002 12.8046C1.02546 13.6687 0.93752 14.5481 0.93752 15.4296C0.936237 16.1677 0.995814 16.9045 1.11565 17.6328C1.17528 18.0092 1.35728 18.3556 1.6335 18.6182C1.90972 18.8809 2.26478 19.0453 2.64377 19.0859C3.2252 19.1405 3.78511 19.3335 4.27662 19.6489C4.76813 19.9642 5.17695 20.3928 5.46886 20.8985C5.76077 21.4043 5.92728 21.9727 5.95445 22.5561C5.98162 23.1394 5.86866 23.7208 5.62502 24.2515C5.46558 24.5967 5.42603 24.9853 5.51265 25.3556C5.59927 25.7259 5.8071 26.0566 6.10315 26.2953C7.322 27.3063 8.70431 28.102 10.1906 28.6484C10.3807 28.7142 10.5801 28.7491 10.7813 28.7515C11.0571 28.7509 11.3287 28.6842 11.5734 28.557C11.818 28.4297 12.0286 28.2457 12.1875 28.0203C12.5217 27.5334 12.9696 27.1355 13.4924 26.8611C14.0152 26.5866 14.5971 26.4439 15.1875 26.4453C15.7596 26.446 16.3237 26.5803 16.8347 26.8374C17.3458 27.0946 17.7898 27.4675 18.1313 27.9265C18.3584 28.2319 18.6802 28.4535 19.0465 28.557C19.4127 28.6604 19.8029 28.6398 20.1563 28.4984C21.5154 27.9514 22.7806 27.1954 23.9063 26.2578C24.189 26.024 24.3904 25.7065 24.4813 25.3511C24.5723 24.9957 24.5482 24.6205 24.4125 24.2796C24.192 23.7576 24.0959 23.1915 24.1317 22.626C24.1675 22.0604 24.3342 21.5109 24.6188 21.0209C24.9034 20.5308 25.298 20.1136 25.7714 19.8022C26.2449 19.4908 26.7842 19.2937 27.3469 19.2265C27.7118 19.1761 28.0511 19.0108 28.3157 18.7546C28.5803 18.4984 28.7565 18.1646 28.8188 17.8015C28.9693 17.0196 29.0509 16.2259 29.0625 15.4296C29.0627 14.5898 28.9842 13.7518 28.8281 12.9265C28.7648 12.5715 28.5913 12.2454 28.3321 11.9947C28.0729 11.7439 27.7413 11.5812 27.3844 11.5296ZM19.6875 15.4296C19.6875 16.3567 19.4126 17.263 18.8975 18.0339C18.3825 18.8047 17.6504 19.4055 16.7938 19.7603C15.9373 20.1151 14.9948 20.2079 14.0855 20.0271C13.1762 19.8462 12.341 19.3998 11.6855 18.7442C11.0299 18.0887 10.5835 17.2534 10.4026 16.3441C10.2217 15.4348 10.3145 14.4923 10.6693 13.6358C11.0241 12.7793 11.6249 12.0472 12.3958 11.5321C13.1666 11.0171 14.0729 10.7421 15 10.7421C16.2432 10.7421 17.4355 11.236 18.3146 12.1151C19.1937 12.9942 19.6875 14.1864 19.6875 15.4296Z" fill="#BCC0B7"/>
</svg>
