<svg width="31" height="31" viewBox="0 0 31 31" fill="none" xmlns="http://www.w3.org/2000/svg">
<g clip-path="url(#clip0_346_12262)">
<path d="M25.9688 4.16209L28.1191 2.01172L30.6666 4.55943L28.5162 6.7098L25.9688 4.16209Z" fill="#BCC0B7"/>
<path d="M16.748 15.9317L19.6057 15.6207L20.3356 14.8908L17.7886 12.3438L17.0586 13.0737L16.748 15.9317Z" fill="#BCC0B7"/>
<path d="M19.0322 11.1007L24.7266 5.40625L27.2741 7.95351L21.5795 13.6479L19.0322 11.1007Z" fill="#BCC0B7"/>
<path d="M20.4117 17.3008L15.1671 17.8716H9.54588V16.1135H14.9595L15.2268 13.6569H6.17121V11.8986H15.7464L21.9848 5.66016H4.17144C2.23897 5.66016 0.666992 7.23213 0.666992 9.16438V20.4163C0.666992 22.3488 2.23897 23.9208 4.17144 23.9208H5.11948V28.954L12.6372 23.9208H22.425C24.3572 23.9208 25.9292 22.3488 25.9292 20.4163V11.7833L20.4117 17.3008ZM8.12474 17.8716H6.17121V16.1135H8.12474V17.8716Z" fill="#BCC0B7"/>
</g>
<defs>
<clipPath id="clip0_346_12262">
<rect width="30" height="30" fill="white" transform="translate(0.666992 0.429688)"/>
</clipPath>
</defs>
</svg>
