<svg width="31" height="31" viewBox="0 0 31 31" fill="none" xmlns="http://www.w3.org/2000/svg">
<path d="M25.6032 24.0047C24.999 22.2065 22.5909 21.0809 20.874 20.3264C20.2014 20.0318 18.3393 19.532 18.1155 18.6851C18.0354 18.38 18.0462 18.0923 18.1119 17.8166C18.0084 17.8364 17.9034 17.8481 17.7948 17.8481H16.6761C15.783 17.8481 15.0573 17.1215 15.0573 16.229C15.0573 15.3371 15.7833 14.612 16.6761 14.612H17.7948C18.1644 14.612 18.5148 14.7371 18.7974 14.9603C19.2117 14.9051 19.6113 14.8166 19.9839 14.7005C20.4732 13.6754 20.8548 12.4496 20.9403 11.3945C21.3054 6.88011 18.5379 4.23891 14.5698 4.69551C11.6847 5.02761 9.96116 7.17891 9.77486 9.94851C9.58646 12.7715 10.6332 14.8565 11.745 16.3859C12.2319 17.0546 12.7434 17.4845 12.6648 18.2903C12.5736 19.2431 11.5548 19.5086 10.8261 19.8014C9.96266 20.1482 9.03266 20.6744 8.59346 20.9177C7.08056 21.7532 5.42006 22.7594 5.04686 24.1358C4.22036 27.1862 7.01156 28.1102 9.31586 28.5368C11.2935 28.9016 13.5234 28.9304 15.3576 28.9304C18.6753 28.9304 24.6411 28.7975 25.6032 26.3036C25.8768 25.5959 25.7595 24.4682 25.6032 24.0047Z" fill="#BCC0B7"/>
<path d="M18.503 15.7726C18.3512 15.5413 18.0917 15.3877 17.7956 15.3877H16.6769C16.2101 15.3877 15.8336 15.7648 15.8336 16.2292C15.8336 16.6954 16.2101 17.0731 16.6769 17.0731H17.7956C18.1223 17.0731 18.3995 16.8868 18.5393 16.6174C20.099 16.4947 21.4556 16.0183 22.4078 15.3148C22.6265 15.4558 22.8851 15.5383 23.1641 15.5383H23.2343C24.0119 15.5383 24.6407 14.9089 24.6407 14.1304V11.32C24.6407 10.7602 24.3125 10.2772 23.8391 10.0528C23.6327 5.53989 19.8968 1.92969 15.3332 1.92969C10.7696 1.92969 7.03309 5.53989 6.82759 10.0528C6.35329 10.2775 6.02539 10.7602 6.02539 11.32V14.1304C6.02539 14.9089 6.65479 15.5383 7.43059 15.5383H7.50169C8.27809 15.5383 8.90779 14.9089 8.90779 14.1304V11.32C8.90779 10.7683 8.58889 10.2925 8.12539 10.0624C8.32609 6.25989 11.4815 3.22899 15.3332 3.22899C19.1834 3.22899 22.3403 6.25989 22.5401 10.0624C22.0772 10.2928 21.7586 10.7683 21.7586 11.32V14.1304C21.7586 14.317 21.7949 14.4907 21.8588 14.653C21.0392 15.2395 19.8461 15.6574 18.503 15.7726Z" fill="#BCC0B7"/>
</svg>
