<svg width="20" height="20" viewBox="0 0 20 20" fill="none" xmlns="http://www.w3.org/2000/svg">
<g clip-path="url(#clip0_331_27041)">
<path d="M15.8333 10.0378C15.3725 10.0378 15 10.4112 15 10.8711V17.5378C15 17.9969 14.6266 18.3711 14.1667 18.3711H2.5C2.03995 18.3711 1.66672 17.9969 1.66672 17.5378V5.87109C1.66672 5.41196 2.03995 5.03781 2.5 5.03781H9.16672C9.62753 5.03781 10 4.66443 10 4.20453C10 3.74448 9.62753 3.37109 9.16672 3.37109H2.5C1.12167 3.37109 0 4.49277 0 5.87109V17.5378C0 18.9161 1.12167 20.0378 2.5 20.0378H14.1667C15.545 20.0378 16.6667 18.9161 16.6667 17.5378V10.8711C16.6667 10.4103 16.2941 10.0378 15.8333 10.0378Z" fill="#BCC0B7"/>
<path d="M7.81295 9.28082C7.75466 9.33911 7.71545 9.41327 7.69882 9.49323L7.10967 12.44C7.08221 12.5766 7.12554 12.7174 7.22381 12.8166C7.303 12.8958 7.40966 12.9382 7.51891 12.9382C7.54546 12.9382 7.57308 12.9358 7.60055 12.93L10.5464 12.3408C10.628 12.324 10.7022 12.285 10.7597 12.2265L17.3531 5.63321L14.4072 2.6875L7.81295 9.28082Z" fill="#BCC0B7"/>
<path d="M19.3882 0.64846C18.5758 -0.16407 17.2541 -0.16407 16.4423 0.64846L15.2891 1.80172L18.2349 4.74758L19.3882 3.59417C19.7816 3.20171 19.9982 2.67834 19.9982 2.1217C19.9982 1.56506 19.7816 1.04168 19.3882 0.64846Z" fill="#BCC0B7"/>
</g>
<defs>
<clipPath id="clip0_331_27041">
<rect width="20" height="20" fill="white"/>
</clipPath>
</defs>
</svg>
