<svg width="20" height="20" viewBox="0 0 20 20" fill="none" xmlns="http://www.w3.org/2000/svg">
<path d="M17.2717 5.66406C17.6852 5.66406 17.9719 5.24605 17.8168 4.86273C17.2663 3.50176 15.9311 2.53906 14.3751 2.53906H13.6558C13.3875 1.12215 12.1452 0 10.6251 0H9.37508C7.8559 0 6.61278 1.12141 6.34438 2.53906H5.62508C4.06907 2.53906 2.73383 3.50176 2.18332 4.86273C2.02828 5.24605 2.31496 5.66406 2.72844 5.66406H17.2717ZM9.37508 1.17188H10.6251C11.4805 1.17188 12.2067 1.74742 12.4512 2.53906H7.54899C7.79344 1.74742 8.51961 1.17188 9.37508 1.17188Z" fill="#BCC0B7"/>
<path d="M4.33777 18.367C4.40297 19.2827 5.17316 20 6.09113 20H13.9084C14.8263 20 15.5965 19.2827 15.6617 18.367L16.4829 6.83594H3.5166L4.33777 18.367ZM11.6021 9.97074C11.6182 9.64754 11.8938 9.39828 12.2165 9.4148C12.5397 9.43098 12.7886 9.70609 12.7725 10.0293L12.46 16.2793C12.4443 16.5925 12.1854 16.8359 11.8752 16.8359C11.5379 16.8359 11.2729 16.5538 11.2895 16.2207L11.6021 9.97074ZM7.78301 9.4148C8.10578 9.39859 8.38133 9.64758 8.39746 9.97074L8.70996 16.2207C8.7266 16.5539 8.46145 16.8359 8.12426 16.8359C7.8141 16.8359 7.5552 16.5925 7.53953 16.2793L7.22703 10.0293C7.2109 9.70609 7.45981 9.43098 7.78301 9.4148V9.4148Z" fill="#BCC0B7"/>
</svg>
