<svg width="26" height="26" viewBox="0 0 26 26" fill="none" xmlns="http://www.w3.org/2000/svg">
<g clip-path="url(#clip0_416_5904)">
<path d="M7.42859 12.9999V15.7856H10.6786C11.1914 15.7856 11.6072 16.2013 11.6072 16.7141V19.9641H14.3929V16.7141C14.3929 16.2013 14.8086 15.7856 15.3214 15.7856H18.5714V12.9999H15.3214C14.8086 12.9999 14.3929 12.5841 14.3929 12.0713V8.82129H11.6072V12.0713C11.6072 12.5841 11.1914 12.9999 10.6786 12.9999H7.42859Z" fill="white"/>
<path d="M0 5.10645V23.6779C0 24.1907 0.415736 24.6064 0.928571 24.6064H25.0714C25.5843 24.6064 26 24.1907 26 23.6779V5.10645H0ZM11.6071 7.89216H14.3929C14.9057 7.89216 15.3214 8.3079 15.3214 8.82073V12.0707H18.5714C19.0843 12.0707 19.5 12.4865 19.5 12.9993V15.785C19.5 16.2979 19.0843 16.7136 18.5714 16.7136H15.3214V19.9636C15.3214 20.4764 14.9057 20.8922 14.3929 20.8922H11.6071C11.0943 20.8922 10.6786 20.4764 10.6786 19.9636V16.7136H7.42857C6.91574 16.7136 6.5 16.2979 6.5 15.785V12.9993C6.5 12.4865 6.91574 12.0707 7.42857 12.0707H10.6786V8.82073C10.6786 8.3079 11.0943 7.89216 11.6071 7.89216Z" fill="white"/>
<path d="M7.42857 2.32115C7.42857 1.80831 7.01284 1.39258 6.5 1.39258H0.928571C0.415736 1.39258 0 1.80831 0 2.32115V4.17829H7.68671C7.36311 3.62115 7.42857 3.23394 7.42857 2.32115Z" fill="white"/>
</g>
<defs>
<clipPath id="clip0_416_5904">
<rect width="26" height="26" fill="white"/>
</clipPath>
</defs>
</svg>
