<svg width="26" height="26" viewBox="0 0 26 26" fill="none" xmlns="http://www.w3.org/2000/svg">
<g clip-path="url(#clip0_416_6014)">
<path d="M25.6107 19.3437L16.2988 3.40105C15.674 2.15149 14.397 1.3623 13 1.3623C11.603 1.3623 10.3261 2.15149 9.7012 3.40105L0.389336 19.3437C-0.182361 20.4869 -0.121243 21.8448 0.550864 22.932C1.22277 24.0193 2.40982 24.6812 3.68815 24.6812H22.3119C23.59 24.6812 24.7773 24.0193 25.4492 22.932C26.1213 21.8448 26.1822 20.4869 25.6107 19.3437ZM13 22.4389C12.0094 22.4389 11.2061 21.6358 11.2061 20.6452C11.2061 19.6546 12.0094 18.8516 13 18.8516C13.9906 18.8516 14.7937 19.6546 14.7937 20.6452C14.7937 21.6358 13.9906 22.4389 13 22.4389ZM14.7937 15.264C14.7937 16.2546 13.9906 17.0577 13 17.0577C12.0094 17.0577 11.2061 16.2546 11.2061 15.264V6.74352C11.2061 5.75292 12.0094 4.94985 13 4.94985C13.9906 4.94985 14.7937 5.75292 14.7937 6.74352V15.264Z" fill="white"/>
</g>
<defs>
<clipPath id="clip0_416_6014">
<rect width="26" height="26" fill="white"/>
</clipPath>
</defs>
</svg>
