<svg width="26" height="26" viewBox="0 0 26 26" fill="none" xmlns="http://www.w3.org/2000/svg">
<path d="M2.80431 23.0236C2.74876 23.2973 2.81863 23.5815 2.99484 23.7982C3.17105 24.0148 3.43501 24.1412 3.71431 24.1426H20.8929V22.2854H3.77002C3.31482 22.2746 2.91329 22.5815 2.80431 23.0236Z" fill="white"/>
<path d="M21.8214 0H3.7143C3.66788 0 3.62142 0 3.575 0.00462109C2.09356 0.0802344 0.93062 1.30234 0.928589 2.78571V23.2143C0.928589 24.7528 2.17578 26 3.7143 26H21.8214C21.957 25.9993 22.0856 25.9401 22.1743 25.8375C22.2667 25.732 22.306 25.5901 22.2811 25.4521C22.2216 25.2209 22.009 25.0624 21.7704 25.0714H3.7143C3.15753 25.0713 2.63027 24.8213 2.27764 24.3904C1.92502 23.9596 1.78435 23.3932 1.8943 22.8475C2.08122 21.9671 2.86549 21.3424 3.76538 21.3571H21.8215C22.0779 21.3571 22.2858 21.1493 22.2858 20.8928V0.464293C22.2857 0.207848 22.0779 0 21.8214 0ZM4.17859 19.9643C4.17859 20.2207 3.97074 20.4286 3.7143 20.4286C3.45785 20.4286 3.25 20.2207 3.25 19.9643V1.39288C3.25 1.13648 3.45785 0.928586 3.7143 0.928586C3.97074 0.928586 4.17859 1.13643 4.17859 1.39288V19.9643Z" fill="white"/>
<path d="M24.1429 0.928711H23.2143V4.643H24.1429C24.6551 4.64148 25.0699 4.22665 25.0715 3.71442V1.85725C25.0699 1.34507 24.6551 0.930234 24.1429 0.928711Z" fill="white"/>
<path d="M24.1429 13.9287H23.2143V17.643H24.1429C24.6551 17.6415 25.0699 17.2266 25.0715 16.7144V14.8573C25.0699 14.3451 24.6551 13.9302 24.1429 13.9287Z" fill="white"/>
<path d="M24.1429 7.42871H23.2143V11.143H24.1429C24.6551 11.1415 25.0699 10.7266 25.0715 10.2144V8.3573C25.0699 7.84507 24.6551 7.43023 24.1429 7.42871Z" fill="white"/>
</svg>
