<svg width="26" height="26" viewBox="0 0 26 26" fill="none" xmlns="http://www.w3.org/2000/svg">
<path d="M12.9854 0.143555C5.89259 0.143555 0.142822 5.89332 0.142822 12.9861C0.142822 20.0789 5.89259 25.8287 12.9854 25.8287C20.0782 25.8287 25.828 20.0789 25.828 12.9861C25.828 5.89332 20.0782 0.143555 12.9854 0.143555ZM14.1507 19.6654C13.8085 19.9694 13.3818 20.1209 12.8704 20.1209C12.359 20.1209 11.932 19.9694 11.5901 19.6654C11.2479 19.362 11.077 18.9736 11.077 18.5005C11.077 18.0276 11.2479 17.6391 11.5901 17.3355C11.932 17.0318 12.3587 16.88 12.8704 16.88C13.3818 16.88 13.8085 17.0318 14.1507 17.3355C14.4928 17.6391 14.6641 18.0276 14.6641 18.5005C14.6641 18.9736 14.4928 19.362 14.1507 19.6654ZM17.1858 11.0971C16.9749 11.5321 16.6355 11.9764 16.1692 12.4302L15.0665 13.4562C14.7528 13.7567 14.5354 14.0649 14.4144 14.3814C14.2931 14.6979 14.226 15.0992 14.2129 15.5849H11.4703C11.4703 14.6514 11.5756 13.9148 11.7868 13.3743C11.9977 12.834 12.3396 12.366 12.8127 11.9693C13.2859 11.5732 13.6455 11.2101 13.8918 10.8811C14.1378 10.5518 14.2608 10.189 14.2608 9.79261C14.2608 8.82742 13.8453 8.34454 13.0142 8.34454C12.6307 8.34454 12.3204 8.48524 12.0841 8.76663C11.8475 9.04803 11.7228 9.42817 11.71 9.90791H8.46881C8.48137 8.62936 8.88434 7.63363 9.67715 6.92073C10.4697 6.20782 11.5821 5.85137 13.0142 5.85137C14.44 5.85137 15.5442 6.18071 16.3273 6.8391C17.1107 7.49779 17.502 8.43444 17.502 9.64906C17.502 10.1796 17.3967 10.6625 17.1858 11.0971V11.0971Z" fill="white"/>
</svg>
