<svg width="26" height="26" viewBox="0 0 26 26" fill="none" xmlns="http://www.w3.org/2000/svg">
<g clip-path="url(#clip0_346_12388)">
<path d="M12.9852 0.144531C5.89234 0.144531 0.142578 5.8943 0.142578 12.9871C0.142578 20.0799 5.89234 25.8297 12.9852 25.8297C20.078 25.8297 25.8277 20.0799 25.8277 12.9871C25.8277 5.8943 20.078 0.144531 12.9852 0.144531ZM14.1504 19.6664C13.8082 19.9703 13.3816 20.1219 12.8701 20.1219C12.3587 20.1219 11.9318 19.9703 11.5899 19.6664C11.2477 19.363 11.0767 18.9746 11.0767 18.5014C11.0767 18.0285 11.2477 17.6401 11.5899 17.3365C11.9318 17.0328 12.3584 16.881 12.8701 16.881C13.3816 16.881 13.8082 17.0328 14.1504 17.3365C14.4926 17.6401 14.6638 18.0285 14.6638 18.5014C14.6638 18.9746 14.4926 19.363 14.1504 19.6664ZM17.1855 11.0981C16.9746 11.533 16.6353 11.9774 16.169 12.4312L15.0662 13.4571C14.7526 13.7577 14.5351 14.0659 14.4141 14.3824C14.2928 14.6989 14.2257 15.1001 14.2126 15.5859H11.47C11.47 14.6524 11.5753 13.9158 11.7865 13.3752C11.9974 12.835 12.3393 12.367 12.8125 11.9703C13.2857 11.5741 13.6453 11.2111 13.8916 10.8821C14.1376 10.5527 14.2606 10.19 14.2606 9.79359C14.2606 8.8284 13.845 8.34552 13.014 8.34552C12.6304 8.34552 12.3202 8.48621 12.0839 8.76761C11.8473 9.049 11.7226 9.42914 11.7097 9.90889H8.46856C8.48112 8.63034 8.88409 7.63461 9.67691 6.9217C10.4694 6.2088 11.5819 5.85234 13.014 5.85234C14.4398 5.85234 15.544 6.18168 16.3271 6.84008C17.1105 7.49876 17.5017 8.43541 17.5017 9.65004C17.5017 10.1806 17.3964 10.6635 17.1855 11.0981Z" fill="#080A07"/>
</g>
<defs>
<clipPath id="clip0_346_12388">
<rect width="26" height="26" fill="white"/>
</clipPath>
</defs>
</svg>
