<svg width="26" height="27" viewBox="0 0 26 27" fill="none" xmlns="http://www.w3.org/2000/svg">
<g clip-path="url(#clip0_346_12288)">
<path d="M7.58362 9.52472C7.58362 8.92779 7.09831 8.44141 6.50031 8.44141C5.90231 8.44141 5.41699 8.92784 5.41699 9.52472C5.41699 10.1217 5.90231 10.608 6.50031 10.608C7.09831 10.608 7.58362 10.1216 7.58362 9.52472Z" fill="#080A07"/>
<path d="M24.9167 3.02344H1.08332C0.48425 3.02344 0 3.50875 0 4.10675V23.6068C0 24.2048 0.48425 24.6901 1.08332 24.6901H24.9166C25.5157 24.6901 25.9999 24.2048 25.9999 23.6068V4.10675C26 3.50875 25.5157 3.02344 24.9167 3.02344ZM3.25 9.52344C3.25 7.73162 4.70818 6.27344 6.5 6.27344C8.29182 6.27344 9.75 7.73162 9.75 9.52344C9.75 11.3153 8.29182 12.7734 6.5 12.7734C4.70818 12.7734 3.25 11.3153 3.25 9.52344ZM21.3492 15.706C20.9257 16.1296 20.241 16.1296 19.8174 15.706L16.4645 12.3542L14.3639 15.8555L14.8492 16.3408C15.2728 16.7644 15.2728 17.4491 14.8492 17.8726C14.4257 18.2962 13.741 18.2962 13.3174 17.8726L10.8334 15.3886L6.18262 20.0393C5.97137 20.2506 5.69405 20.3568 5.41668 20.3568C5.13937 20.3568 4.862 20.2506 4.65075 20.0393C4.22718 19.6158 4.22718 18.9311 4.65075 18.5075L10.0674 13.0908C10.491 12.6673 11.1757 12.6673 11.5992 13.0908L12.7844 14.276L15.3216 10.0488C15.4928 9.76389 15.7864 9.57214 16.1179 9.531C16.4461 9.48982 16.7798 9.60469 17.0159 9.84082L21.3492 14.1741C21.7728 14.5978 21.7728 15.2824 21.3492 15.706Z" fill="#080A07"/>
</g>
<defs>
<clipPath id="clip0_346_12288">
<rect width="26" height="26" fill="white" transform="translate(0 0.855469)"/>
</clipPath>
</defs>
</svg>
