<svg width="26" height="27" viewBox="0 0 26 27" fill="none" xmlns="http://www.w3.org/2000/svg">
<g clip-path="url(#clip0_346_12308)">
<g clip-path="url(#clip1_346_12308)">
<path d="M6.49972 0.855469C3.62347 0.855469 1.39258 4.599 1.39258 7.81976C1.39258 10.9221 3.3969 12.9269 6.49972 12.9269C9.60254 12.9269 11.6069 10.9221 11.6069 7.81976C11.6069 4.599 9.37829 0.855469 6.49972 0.855469Z" fill="#080A07"/>
<path d="M6.49986 13.8561C6.18932 13.8545 5.87919 13.8334 5.57129 13.793V15.7133H7.42843V13.793C7.12053 13.8334 6.8104 13.8545 6.49986 13.8561Z" fill="#080A07"/>
<path d="M7.893 16.6406H5.10728C4.59445 16.6406 4.17871 17.0564 4.17871 17.5692V25.4621C4.17871 26.2313 4.80231 26.8549 5.57157 26.8549H7.42871C8.19796 26.8549 8.82157 26.2313 8.82157 25.4621V17.5692C8.82157 17.0564 8.40583 16.6406 7.893 16.6406Z" fill="#080A07"/>
<path d="M23.9104 1.78404C23.5258 1.78404 23.214 2.09584 23.214 2.48047V6.89118C23.214 7.66044 22.5904 8.28404 21.8211 8.28404C21.0519 8.28404 20.4283 7.66044 20.4283 6.89118V1.78404C20.4283 1.2712 20.0126 0.855469 19.4997 0.855469C18.9869 0.855469 18.5711 1.2712 18.5711 1.78404V6.89118C18.5711 7.66044 17.9475 8.28404 17.1783 8.28404C16.409 8.28404 15.7854 7.66044 15.7854 6.89118V2.48047C15.7854 2.09584 15.4736 1.78404 15.089 1.78404C14.7044 1.78404 14.3926 2.09584 14.3926 2.48047V7.81975C14.3926 10.9221 16.3969 12.9269 19.4997 12.9269C22.6025 12.9269 24.6069 10.9221 24.6069 7.81975V2.48047C24.6069 2.09584 24.2951 1.78404 23.9104 1.78404Z" fill="#080A07"/>
<path d="M19.4999 13.8561C19.1893 13.8545 18.8792 13.8334 18.5713 13.793V15.7133H20.4284V13.793C20.1205 13.8334 19.8104 13.8545 19.4999 13.8561Z" fill="#080A07"/>
<path d="M20.893 16.6406H18.1073C17.5944 16.6406 17.1787 17.0564 17.1787 17.5692V25.4621C17.1787 26.2313 17.8023 26.8549 18.5716 26.8549H20.4287C21.198 26.8549 21.8216 26.2313 21.8216 25.4621V17.5692C21.8216 17.0564 21.4058 16.6406 20.893 16.6406Z" fill="#080A07"/>
</g>
</g>
<defs>
<clipPath id="clip0_346_12308">
<rect width="26" height="26" fill="white" transform="translate(0 0.855469)"/>
</clipPath>
<clipPath id="clip1_346_12308">
<rect width="26" height="26" fill="white" transform="translate(0 0.855469)"/>
</clipPath>
</defs>
</svg>
