<svg width="26" height="26" viewBox="0 0 26 26" fill="none" xmlns="http://www.w3.org/2000/svg">
<path d="M13 7C13.5523 7 14 6.55228 14 6C14 5.44772 13.5523 5 13 5C12.4477 5 12 5.44772 12 6C12 6.55228 12.4477 7 13 7Z" fill="white"/>
<path d="M25.5357 20H0.464286C0.341149 20 0.223057 20.0527 0.135986 20.1464C0.0489157 20.2402 0 20.3674 0 20.5C0 20.6326 0.0489157 20.7598 0.135986 20.8536C0.223057 20.9473 0.341149 21 0.464286 21H25.5357C25.6588 21 25.7769 20.9473 25.864 20.8536C25.9511 20.7598 26 20.6326 26 20.5C26 20.3674 25.9511 20.2402 25.864 20.1464C25.7769 20.0527 25.6588 20 25.5357 20Z" fill="white"/>
<path d="M12.9998 8C9.8986 8.00366 6.91883 9.15008 4.68276 11.1998C2.4467 13.2496 1.12726 16.0442 1 19H25C24.8782 16.0424 23.5603 13.2447 21.323 11.1938C19.0856 9.14296 16.1026 7.99831 12.9998 8Z" fill="white"/>
</svg>
