<svg width="26" height="26" viewBox="0 0 26 26" fill="none" xmlns="http://www.w3.org/2000/svg">
<g clip-path="url(#clip0_372_3159)">
<g clip-path="url(#clip1_372_3159)">
<path d="M25.6457 11.1152L23.479 9.14568L13.7291 0.281947C13.3163 -0.0939825 12.6837 -0.0939825 12.2709 0.281947L2.52102 9.14568L0.354408 11.1152C-0.0875881 11.5171 -0.120088 12.2028 0.281842 12.6459C0.684838 13.089 1.37165 13.1215 1.81258 12.7174L2.16682 12.3956V24.9167C2.16682 25.5147 2.65107 26 3.25013 26H8.66676V17.3335C8.66676 14.9437 10.6102 13.0002 13 13.0002C15.3898 13.0002 17.3333 14.9437 17.3333 17.3335V26.0001H22.7499C23.349 26.0001 23.8332 25.5148 23.8332 24.9168V12.3956L24.1875 12.7174C24.3955 12.907 24.6566 13.0001 24.9166 13.0001C25.2112 13.0001 25.5048 12.8799 25.7182 12.6459C26.1202 12.2028 26.0877 11.5171 25.6457 11.1152Z" fill="white"/>
<path d="M13.0002 15.166C11.8052 15.166 10.8335 16.1378 10.8335 17.3327V25.9993H15.1668V17.3326C15.1668 16.1378 14.195 15.166 13.0002 15.166Z" fill="white"/>
</g>
</g>
<defs>
<clipPath id="clip0_372_3159">
<rect width="26" height="26" fill="white"/>
</clipPath>
<clipPath id="clip1_372_3159">
<rect width="26" height="26" fill="white"/>
</clipPath>
</defs>
</svg>
