<svg width="26" height="27" viewBox="0 0 26 27" fill="none" xmlns="http://www.w3.org/2000/svg">
<g clip-path="url(#clip0_346_12337)">
<g clip-path="url(#clip1_346_12337)">
<path d="M7.42871 13.5731V16.3588H10.6787C11.1915 16.3588 11.6073 16.7746 11.6073 17.2874V20.5374H14.393V17.2874C14.393 16.7746 14.8087 16.3588 15.3216 16.3588H18.5716V13.5731H15.3216C14.8087 13.5731 14.393 13.1574 14.393 12.6445V9.39453H11.6073V12.6445C11.6073 13.1574 11.1915 13.5731 10.6787 13.5731H7.42871Z" fill="#080A07"/>
<path d="M0 5.67969V24.2511C0 24.764 0.415736 25.1797 0.928571 25.1797H25.0714C25.5843 25.1797 26 24.764 26 24.2511V5.67969H0ZM11.6071 8.4654H14.3929C14.9057 8.4654 15.3214 8.88114 15.3214 9.39397V12.644H18.5714C19.0843 12.644 19.5 13.0597 19.5 13.5725V16.3583C19.5 16.8711 19.0843 17.2868 18.5714 17.2868H15.3214V20.5368C15.3214 21.0497 14.9057 21.4654 14.3929 21.4654H11.6071C11.0943 21.4654 10.6786 21.0497 10.6786 20.5368V17.2868H7.42857C6.91574 17.2868 6.5 16.8711 6.5 16.3583V13.5725C6.5 13.0597 6.91574 12.644 7.42857 12.644H10.6786V9.39397C10.6786 8.88114 11.0943 8.4654 11.6071 8.4654Z" fill="#080A07"/>
<path d="M7.42857 2.89342C7.42857 2.38058 7.01284 1.96484 6.5 1.96484H0.928571C0.415736 1.96484 0 2.38058 0 2.89342V4.75056H7.68671C7.36311 4.19342 7.42857 3.8062 7.42857 2.89342Z" fill="#080A07"/>
</g>
</g>
<defs>
<clipPath id="clip0_346_12337">
<rect width="26" height="26" fill="white" transform="translate(0 0.570312)"/>
</clipPath>
<clipPath id="clip1_346_12337">
<rect width="26" height="26" fill="white" transform="translate(0 0.570312)"/>
</clipPath>
</defs>
</svg>
