<svg width="26" height="27" viewBox="0 0 26 27" fill="none" xmlns="http://www.w3.org/2000/svg">
<g clip-path="url(#clip0_346_12379)">
<g clip-path="url(#clip1_346_12379)">
<path d="M21.5 5.57031V1.07031L13 1.07031L13 5.57031H21.5Z" fill="#080A07"/>
<path d="M0.464286 26.5703H25.5357C25.7921 26.5703 26 26.3624 26 26.106V1.0346C26 0.77818 25.7921 0.570312 25.5357 0.570312H0.464286C0.207868 0.570312 0 0.77818 0 1.0346V26.106C0 26.3624 0.207868 26.5703 0.464286 26.5703ZM19.0357 16.8203C19.0357 17.3331 18.62 17.7489 18.1071 17.7489H15.7857C15.5293 17.7489 15.3214 17.541 15.3214 17.2846C15.3214 17.0282 15.5293 16.8203 15.7857 16.8203H18.1071V10.3203H15.7857C15.5293 10.3203 15.3214 10.1124 15.3214 9.85603C15.3214 9.59961 15.5293 9.39174 15.7857 9.39174H18.1071C18.62 9.39174 19.0357 9.80748 19.0357 10.3203V16.8203ZM22.2857 1.49888H24.6071C24.8636 1.49888 25.0714 1.70675 25.0714 1.96317V4.2846C25.0714 4.54102 24.8636 4.74888 24.6071 4.74888C24.3507 4.74888 24.1429 4.54102 24.1429 4.2846V2.42746H22.2857C22.0293 2.42746 21.8214 2.21959 21.8214 1.96317C21.8214 1.70675 22.0293 1.49888 22.2857 1.49888ZM22.2857 24.7132H24.1429V22.856C24.1429 22.5996 24.3507 22.3917 24.6071 22.3917C24.8636 22.3917 25.0714 22.5996 25.0714 22.856V25.1775C25.0714 25.4339 24.8636 25.6417 24.6071 25.6417H22.2857C22.0293 25.6417 21.8214 25.4339 21.8214 25.1775C21.8214 24.921 22.0293 24.7132 22.2857 24.7132ZM14.3929 2.89174V2.42746C14.3929 1.91462 14.8086 1.49888 15.3214 1.49888H19.9643C20.4771 1.49888 20.8929 1.91462 20.8929 2.42746V4.2846C20.8929 4.79743 20.4771 5.21317 19.9643 5.21317H15.3214C14.8086 5.21317 14.3929 4.79743 14.3929 4.2846V3.82031C14.1364 3.82031 13.9286 3.61244 13.9286 3.35603C13.9286 3.09961 14.1364 2.89174 14.3929 2.89174ZM12.0714 13.106H12.5357V12.6417C12.5357 12.3853 12.7436 12.1775 13 12.1775C13.2564 12.1775 13.4643 12.3853 13.4643 12.6417V13.106H13.9286C14.185 13.106 14.3929 13.3139 14.3929 13.5703C14.3929 13.8267 14.185 14.0346 13.9286 14.0346H13.4643V14.4989C13.4643 14.7553 13.2564 14.9632 13 14.9632C12.7436 14.9632 12.5357 14.7553 12.5357 14.4989V14.0346H12.0714C11.815 14.0346 11.6071 13.8267 11.6071 13.5703C11.6071 13.3139 11.815 13.106 12.0714 13.106ZM6.96429 10.3203C6.96429 9.80748 7.38002 9.39174 7.89286 9.39174H10.2143C10.4707 9.39174 10.6786 9.59961 10.6786 9.85603C10.6786 10.1124 10.4707 10.3203 10.2143 10.3203H7.89286V16.8203H10.2143C10.4707 16.8203 10.6786 17.0282 10.6786 17.2846C10.6786 17.541 10.4707 17.7489 10.2143 17.7489H7.89286C7.38002 17.7489 6.96429 17.3331 6.96429 16.8203V10.3203ZM0.928571 1.96317C0.928571 1.70675 1.13644 1.49888 1.39286 1.49888H3.71429C3.9707 1.49888 4.17857 1.70675 4.17857 1.96317C4.17857 2.21959 3.9707 2.42746 3.71429 2.42746H1.85714V4.2846C1.85714 4.54102 1.64928 4.74888 1.39286 4.74888C1.13644 4.74888 0.928571 4.54102 0.928571 4.2846V1.96317ZM0.928571 22.856C0.928571 22.5996 1.13644 22.3917 1.39286 22.3917C1.64928 22.3917 1.85714 22.5996 1.85714 22.856V24.7132H3.71429C3.9707 24.7132 4.17857 24.921 4.17857 25.1775C4.17857 25.4339 3.9707 25.6417 3.71429 25.6417H1.39286C1.13644 25.6417 0.928571 25.4339 0.928571 25.1775V22.856Z" fill="#080A07"/>
</g>
</g>
<defs>
<clipPath id="clip0_346_12379">
<rect width="26" height="26" fill="white" transform="translate(0 0.570312)"/>
</clipPath>
<clipPath id="clip1_346_12379">
<rect width="26" height="26" fill="white" transform="translate(0 0.570312)"/>
</clipPath>
</defs>
</svg>
