<svg width="26" height="26" viewBox="0 0 26 26" fill="none" xmlns="http://www.w3.org/2000/svg">
<path d="M6.06666 12.5664C6.6058 12.5815 7.13861 12.4472 7.60629 12.1786C8.19459 11.8504 8.85982 11.6851 9.53333 11.6998C10.2068 11.6844 10.8722 11.8489 11.4608 12.1764C11.9281 12.4458 12.4608 12.5807 13 12.5664C13.5387 12.5812 14.071 12.447 14.5383 12.1786C14.7317 12.078 14.9309 11.9891 15.135 11.9125C14.5603 11.3161 13.8943 10.8148 13.1621 10.4275C12.5969 10.1398 12.1214 9.70276 11.7872 9.16376C11.453 8.62477 11.273 8.00449 11.2667 7.37034V2.16644C11.2667 2.05152 11.3123 1.9413 11.3936 1.86003C11.4748 1.77877 11.5851 1.73311 11.7 1.73311C11.7558 1.73362 11.8112 1.72287 11.8628 1.7015C11.9144 1.68014 11.9612 1.64859 12.0003 1.60874C12.0473 1.56496 12.0835 1.51086 12.1061 1.45071C12.1286 1.39055 12.1369 1.32598 12.1303 1.26208C12.1126 1.14926 12.0543 1.04678 11.9664 0.973927C11.8784 0.90107 11.7669 0.862846 11.6528 0.866444H7.36666C7.31082 0.865932 7.25544 0.876681 7.20385 0.898049C7.15225 0.919418 7.10549 0.950966 7.06636 0.99081C7.02419 1.03044 6.99062 1.07832 6.96773 1.13147C6.94485 1.18462 6.93314 1.24191 6.93333 1.29978C6.93333 1.4147 6.97898 1.52492 7.06025 1.60619C7.14151 1.68746 7.25173 1.73311 7.36666 1.73311C7.48159 1.73311 7.59181 1.77877 7.67307 1.86003C7.75434 1.9413 7.79999 2.05152 7.79999 2.16644V7.37034C7.7936 8.00383 7.61407 8.6235 7.28082 9.16229C6.94758 9.70107 6.47331 10.1384 5.90936 10.4271C5.17324 10.8132 4.50306 11.3137 3.92383 11.9099C4.13066 11.9868 4.33254 12.0764 4.52833 12.1782C4.99559 12.4467 5.52792 12.5811 6.06666 12.5664Z" fill="white"/>
<path d="M14.9266 12.9535C14.3385 13.282 13.6734 13.4476 13 13.4332C12.3265 13.4479 11.6613 13.2826 11.073 12.9544C10.6053 12.6858 10.0725 12.5516 9.53332 12.5666C8.99432 12.5515 8.46165 12.6858 7.99412 12.9544C7.4056 13.2825 6.74028 13.4478 6.06665 13.4332C5.39339 13.4477 4.72847 13.2822 4.14049 12.954C3.87698 12.8096 3.59482 12.7023 3.30199 12.635C2.62449 13.5348 2.14989 14.5707 1.91084 15.6713C1.67178 16.772 1.67393 17.9114 1.91714 19.0111C2.16036 20.1109 2.63886 21.1449 3.31975 22.0421C4.00065 22.9393 4.86777 23.6784 5.86151 24.2086C6.85525 24.7388 7.95202 25.0475 9.07642 25.1134C10.2008 25.1794 11.3262 25.001 12.3751 24.5907C13.424 24.1803 14.3715 23.5476 15.1527 22.7362C15.9338 21.9247 16.5299 20.9537 16.9 19.8899V14.774C16.6321 14.0061 16.2458 13.2849 15.7551 12.6363C15.4659 12.7042 15.1872 12.8109 14.9266 12.9535Z" fill="white"/>
<path d="M20.4915 11.0311C19.6076 11.2995 18.67 11.339 17.7667 11.146V22.5331C17.7667 23.2227 18.0406 23.884 18.5282 24.3716C19.0158 24.8592 19.6771 25.1331 20.3667 25.1331C21.0562 25.1331 21.7175 24.8592 22.2051 24.3716C22.6927 23.884 22.9667 23.2227 22.9667 22.5331V10.9835C22.5909 10.8746 22.2007 10.8239 21.8097 10.8331C21.3622 10.8233 20.9163 10.8903 20.4915 11.0311ZM18.6333 17.7664C18.6333 17.5093 18.7096 17.258 18.8524 17.0442C18.9953 16.8304 19.1983 16.6638 19.4358 16.5654C19.6734 16.467 19.9348 16.4412 20.1869 16.4914C20.4391 16.5416 20.6708 16.6654 20.8526 16.8472C21.0344 17.029 21.1582 17.2606 21.2084 17.5128C21.2585 17.765 21.2328 18.0264 21.1344 18.2639C21.036 18.5015 20.8694 18.7045 20.6556 18.8473C20.4418 18.9902 20.1904 19.0664 19.9333 19.0664C19.5885 19.0664 19.2579 18.9295 19.0141 18.6857C18.7703 18.4419 18.6333 18.1112 18.6333 17.7664ZM20.8 22.9664C20.5429 22.9664 20.2915 22.8902 20.0778 22.7473C19.864 22.6045 19.6973 22.4015 19.599 22.1639C19.5006 21.9264 19.4748 21.665 19.525 21.4128C19.5751 21.1606 19.6989 20.929 19.8808 20.7472C20.0626 20.5654 20.2942 20.4416 20.5464 20.3914C20.7986 20.3412 21.0599 20.367 21.2975 20.4654C21.535 20.5638 21.7381 20.7304 21.8809 20.9442C22.0238 21.158 22.1 21.4093 22.1 21.6664C22.1 22.0112 21.963 22.3419 21.7192 22.5857C21.4754 22.8295 21.1448 22.9664 20.8 22.9664ZM20.8 15.1664C20.5429 15.1664 20.2915 15.0902 20.0778 14.9473C19.864 14.8045 19.6973 14.6015 19.599 14.3639C19.5006 14.1264 19.4748 13.865 19.525 13.6128C19.5751 13.3606 19.6989 13.129 19.8808 12.9472C20.0626 12.7654 20.2942 12.6416 20.5464 12.5914C20.7986 12.5412 21.0599 12.567 21.2975 12.6654C21.535 12.7638 21.7381 12.9304 21.8809 13.1442C22.0238 13.358 22.1 13.6093 22.1 13.8664C22.1 14.2112 21.963 14.5419 21.7192 14.7857C21.4754 15.0295 21.1448 15.1664 20.8 15.1664Z" fill="white"/>
<path d="M23.8333 7.36621H16.9C16.7851 7.36621 16.6749 7.41187 16.5936 7.49313C16.5123 7.5744 16.4667 7.68462 16.4667 7.79954C16.4667 7.91447 16.5123 8.02469 16.5936 8.10596C16.6749 8.18722 16.7851 8.23288 16.9 8.23288H23.8333C23.9483 8.23288 24.0585 8.18722 24.1398 8.10596C24.221 8.02469 24.2667 7.91447 24.2667 7.79954C24.2667 7.68462 24.221 7.5744 24.1398 7.49313C24.0585 7.41187 23.9483 7.36621 23.8333 7.36621Z" fill="white"/>
<path d="M17.7667 12.1616C18.1408 12.271 18.5297 12.1716 18.9193 12.1616C19.3685 12.1713 19.8161 12.1406 20.2427 11.9995C20.7483 11.8343 21.2779 11.9897 21.8097 11.9995C22.1988 11.9935 22.5872 11.9129 22.9667 11.9995V9.09961H17.7667V12.1616Z" fill="white"/>
</svg>
