<svg width="26" height="27" viewBox="0 0 26 27" fill="none" xmlns="http://www.w3.org/2000/svg">
<g clip-path="url(#clip0_346_12367)">
<path d="M18.6338 14.4376C18.858 14.4377 19.0785 14.4945 19.2749 14.6027C19.4712 14.7109 19.6371 14.8669 19.757 15.0564L20.8026 16.6909C21.5724 16.0911 22.1727 15.3011 22.5442 14.3986C22.9158 13.4962 23.0458 12.5125 22.9214 11.5446C22.7971 10.5766 22.4227 9.65774 21.8351 8.87852C21.2475 8.0993 20.4671 7.48661 19.5706 7.10084C18.3544 6.54718 17.3756 5.57777 16.8103 4.36694C16.4358 3.59547 15.8764 2.92858 15.1818 2.42566C14.4873 1.92274 13.6791 1.5994 12.8293 1.48444C11.9795 1.36948 11.1145 1.46647 10.3112 1.76677C9.50798 2.06707 8.79147 2.56135 8.22552 3.20561C7.59847 3.95686 6.78383 4.52886 5.86428 4.86354C4.53908 5.31373 3.36954 6.13212 2.49259 7.2229C1.61564 8.31367 1.06757 9.6317 0.912529 11.0227C0.757492 12.4136 1.00191 13.82 1.61717 15.0771C2.23242 16.3342 3.19306 17.39 4.38662 18.1209C5.2002 18.6281 5.85698 19.3511 6.28375 20.2096C6.78876 21.2124 7.56293 22.0549 8.51958 22.6426C9.47624 23.2304 10.5776 23.5403 11.7004 23.5376C11.8413 23.5376 11.9686 23.5324 12.0904 23.5246L17.5101 15.0564C17.6301 14.867 17.796 14.7109 17.9925 14.6027C18.1889 14.4946 18.4095 14.4378 18.6338 14.4376ZM9.53375 17.0376C8.50529 17.0376 7.49992 16.7326 6.64478 16.1612C5.78965 15.5899 5.12315 14.7777 4.72958 13.8276C4.336 12.8774 4.23302 11.8318 4.43367 10.8231C4.63431 9.81444 5.12956 8.88788 5.85679 8.16065C6.58403 7.43342 7.51058 6.93817 8.51928 6.73752C9.52798 6.53688 10.5735 6.63986 11.5237 7.03343C12.4739 7.42701 13.286 8.09351 13.8574 8.94864C14.4288 9.80378 14.7338 10.8091 14.7338 11.8376C14.7323 13.2163 14.1839 14.538 13.2091 15.5129C12.2342 16.4878 10.9124 17.0361 9.53375 17.0376Z" fill="#080A07"/>
<path d="M9.53353 7.50391C8.67648 7.50391 7.83867 7.75805 7.12606 8.2342C6.41345 8.71036 5.85803 9.38713 5.53005 10.1789C5.20207 10.9708 5.11626 11.842 5.28346 12.6826C5.45066 13.5232 5.86337 14.2953 6.4694 14.9014C7.07543 15.5074 7.84756 15.9201 8.68814 16.0873C9.52872 16.2545 10.4 16.1687 11.1918 15.8407C11.9836 15.5127 12.6604 14.9573 13.1366 14.2447C13.6127 13.5321 13.8669 12.6943 13.8669 11.8372C13.8656 10.6884 13.4087 9.58689 12.5963 8.7745C11.7839 7.96212 10.6824 7.50517 9.53353 7.50391Z" fill="#080A07"/>
<path d="M25.0518 24.9393L19.0285 15.5239C18.9871 15.4569 18.9292 15.4015 18.8603 15.3632C18.7915 15.3248 18.714 15.3047 18.6352 15.3047C18.5565 15.3047 18.479 15.3248 18.4101 15.3632C18.3413 15.4015 18.2834 15.4569 18.242 15.5239L12.2187 24.9393C12.1689 25.0158 12.141 25.1044 12.138 25.1956C12.1349 25.2868 12.1568 25.3771 12.2013 25.4567C12.2405 25.5316 12.2995 25.5943 12.3719 25.638C12.4442 25.6817 12.5272 25.7047 12.6117 25.7046H24.6592C24.7438 25.7047 24.8267 25.6817 24.899 25.638C24.9714 25.5943 25.0304 25.5316 25.0696 25.4567C25.1141 25.3771 25.136 25.2868 25.1329 25.1956C25.1297 25.1044 25.1017 25.0158 25.0518 24.9393ZM18.6333 24.4046C18.5476 24.4046 18.4638 24.3792 18.3925 24.3316C18.3213 24.284 18.2657 24.2163 18.2329 24.1371C18.2002 24.0579 18.1916 23.9708 18.2083 23.8867C18.225 23.8027 18.2663 23.7255 18.3269 23.6649C18.3875 23.6043 18.4647 23.563 18.5488 23.5463C18.6328 23.5295 18.7199 23.5381 18.7991 23.5709C18.8783 23.6037 18.946 23.6593 18.9936 23.7305C19.0412 23.8018 19.0666 23.8856 19.0666 23.9713C19.0666 24.0862 19.021 24.1964 18.9397 24.2777C18.8584 24.359 18.7482 24.4046 18.6333 24.4046ZM19.0666 22.2379C19.0666 22.3529 19.021 22.4631 18.9397 22.5444C18.8584 22.6256 18.7482 22.6713 18.6333 22.6713C18.5184 22.6713 18.4081 22.6256 18.3269 22.5444C18.2456 22.4631 18.2 22.3529 18.2 22.2379V18.3379C18.2 18.223 18.2456 18.1128 18.3269 18.0315C18.4081 17.9503 18.5184 17.9046 18.6333 17.9046C18.7482 17.9046 18.8584 17.9503 18.9397 18.0315C19.021 18.1128 19.0666 18.223 19.0666 18.3379V22.2379Z" fill="#080A07"/>
</g>
<defs>
<clipPath id="clip0_346_12367">
<rect width="26" height="26" fill="white" transform="translate(0 0.570312)"/>
</clipPath>
</defs>
</svg>
