<svg width="26" height="26" viewBox="0 0 26 26" fill="none" xmlns="http://www.w3.org/2000/svg">
<g clip-path="url(#clip0_416_5564)">
<path d="M21.5 5V0.5L13 0.5L13 5H21.5Z" fill="white"/>
<path d="M0.464286 26H25.5357C25.7921 26 26 25.7921 26 25.5357V0.464286C26 0.207868 25.7921 0 25.5357 0H0.464286C0.207868 0 0 0.207868 0 0.464286V25.5357C0 25.7921 0.207868 26 0.464286 26ZM19.0357 16.25C19.0357 16.7628 18.62 17.1786 18.1071 17.1786H15.7857C15.5293 17.1786 15.3214 16.9707 15.3214 16.7143C15.3214 16.4579 15.5293 16.25 15.7857 16.25H18.1071V9.75H15.7857C15.5293 9.75 15.3214 9.54213 15.3214 9.28571C15.3214 9.0293 15.5293 8.82143 15.7857 8.82143H18.1071C18.62 8.82143 19.0357 9.23716 19.0357 9.75V16.25ZM22.2857 0.928571H24.6071C24.8636 0.928571 25.0714 1.13644 25.0714 1.39286V3.71429C25.0714 3.9707 24.8636 4.17857 24.6071 4.17857C24.3507 4.17857 24.1429 3.9707 24.1429 3.71429V1.85714H22.2857C22.0293 1.85714 21.8214 1.64928 21.8214 1.39286C21.8214 1.13644 22.0293 0.928571 22.2857 0.928571ZM22.2857 24.1429H24.1429V22.2857C24.1429 22.0293 24.3507 21.8214 24.6071 21.8214C24.8636 21.8214 25.0714 22.0293 25.0714 22.2857V24.6071C25.0714 24.8636 24.8636 25.0714 24.6071 25.0714H22.2857C22.0293 25.0714 21.8214 24.8636 21.8214 24.6071C21.8214 24.3507 22.0293 24.1429 22.2857 24.1429ZM14.3929 2.32143V1.85714C14.3929 1.34431 14.8086 0.928571 15.3214 0.928571H19.9643C20.4771 0.928571 20.8929 1.34431 20.8929 1.85714V3.71429C20.8929 4.22712 20.4771 4.64286 19.9643 4.64286H15.3214C14.8086 4.64286 14.3929 4.22712 14.3929 3.71429V3.25C14.1364 3.25 13.9286 3.04213 13.9286 2.78571C13.9286 2.5293 14.1364 2.32143 14.3929 2.32143ZM12.0714 12.5357H12.5357V12.0714C12.5357 11.815 12.7436 11.6071 13 11.6071C13.2564 11.6071 13.4643 11.815 13.4643 12.0714V12.5357H13.9286C14.185 12.5357 14.3929 12.7436 14.3929 13C14.3929 13.2564 14.185 13.4643 13.9286 13.4643H13.4643V13.9286C13.4643 14.185 13.2564 14.3929 13 14.3929C12.7436 14.3929 12.5357 14.185 12.5357 13.9286V13.4643H12.0714C11.815 13.4643 11.6071 13.2564 11.6071 13C11.6071 12.7436 11.815 12.5357 12.0714 12.5357ZM6.96429 9.75C6.96429 9.23716 7.38002 8.82143 7.89286 8.82143H10.2143C10.4707 8.82143 10.6786 9.0293 10.6786 9.28571C10.6786 9.54213 10.4707 9.75 10.2143 9.75H7.89286V16.25H10.2143C10.4707 16.25 10.6786 16.4579 10.6786 16.7143C10.6786 16.9707 10.4707 17.1786 10.2143 17.1786H7.89286C7.38002 17.1786 6.96429 16.7628 6.96429 16.25V9.75ZM0.928571 1.39286C0.928571 1.13644 1.13644 0.928571 1.39286 0.928571H3.71429C3.9707 0.928571 4.17857 1.13644 4.17857 1.39286C4.17857 1.64928 3.9707 1.85714 3.71429 1.85714H1.85714V3.71429C1.85714 3.9707 1.64928 4.17857 1.39286 4.17857C1.13644 4.17857 0.928571 3.9707 0.928571 3.71429V1.39286ZM0.928571 22.2857C0.928571 22.0293 1.13644 21.8214 1.39286 21.8214C1.64928 21.8214 1.85714 22.0293 1.85714 22.2857V24.1429H3.71429C3.9707 24.1429 4.17857 24.3507 4.17857 24.6071C4.17857 24.8636 3.9707 25.0714 3.71429 25.0714H1.39286C1.13644 25.0714 0.928571 24.8636 0.928571 24.6071V22.2857Z" fill="white"/>
</g>
<defs>
<clipPath id="clip0_416_5564">
<rect width="26" height="26" fill="white"/>
</clipPath>
</defs>
</svg>
