<svg width="26" height="27" viewBox="0 0 26 27" fill="none" xmlns="http://www.w3.org/2000/svg">
<g clip-path="url(#clip0_346_12297)">
<path d="M2.8048 23.8791C2.74925 24.1527 2.81912 24.4369 2.99533 24.6536C3.17154 24.8703 3.4355 24.9967 3.7148 24.998H20.8934V23.1409H3.77051C3.3153 23.13 2.91378 23.437 2.8048 23.8791Z" fill="#080A07"/>
<path d="M21.8215 0.855469H3.71442C3.668 0.855469 3.62154 0.855469 3.57512 0.86009C2.09368 0.935703 0.930742 2.1578 0.928711 3.64118V24.0698C0.928711 25.6083 2.1759 26.8555 3.71442 26.8555H21.8215C21.9571 26.8548 22.0858 26.7955 22.1744 26.693C22.2668 26.5875 22.3061 26.4456 22.2812 26.3076C22.2217 26.0763 22.0091 25.9178 21.7705 25.9269H3.71442C3.15765 25.9267 2.63039 25.6768 2.27777 25.2459C1.92514 24.815 1.78448 24.2487 1.89442 23.703C2.08134 22.8226 2.86561 22.1979 3.7655 22.2126H21.8216C22.078 22.2126 22.2859 22.0047 22.2859 21.7483V1.31976C22.2858 1.06332 22.078 0.855469 21.8215 0.855469ZM4.17871 20.8198C4.17871 21.0762 3.97086 21.2841 3.71442 21.2841C3.45797 21.2841 3.25012 21.0762 3.25012 20.8198V2.24835C3.25012 1.99195 3.45797 1.78405 3.71442 1.78405C3.97086 1.78405 4.17871 1.9919 4.17871 2.24835V20.8198Z" fill="#080A07"/>
<path d="M24.1434 1.78516H23.2148V5.49945H24.1434C24.6556 5.49793 25.0705 5.08309 25.072 4.57086V2.71369C25.0704 2.20151 24.6556 1.78668 24.1434 1.78516Z" fill="#080A07"/>
<path d="M24.1434 14.7852H23.2148V18.4994H24.1434C24.6556 18.4979 25.0705 18.0831 25.072 17.5709V15.7137C25.0704 15.2015 24.6556 14.7867 24.1434 14.7852Z" fill="#080A07"/>
<path d="M24.1434 8.28516H23.2148V11.9994H24.1434C24.6556 11.9979 25.0705 11.5831 25.072 11.0709V9.21374C25.0704 8.70151 24.6556 8.28668 24.1434 8.28516Z" fill="#080A07"/>
</g>
<defs>
<clipPath id="clip0_346_12297">
<rect width="26" height="26" fill="white" transform="translate(0 0.855469)"/>
</clipPath>
</defs>
</svg>
