<svg width="26" height="26" viewBox="0 0 26 26" fill="none" xmlns="http://www.w3.org/2000/svg">
<path d="M7.58332 8.6673C7.58332 8.07037 7.098 7.58398 6.5 7.58398C5.902 7.58398 5.41669 8.07042 5.41669 8.6673C5.41669 9.26423 5.902 9.75062 6.5 9.75062C7.098 9.75062 7.58332 9.26418 7.58332 8.6673Z" fill="white"/>
<path d="M24.9167 2.16699H1.08332C0.48425 2.16699 0 2.65231 0 3.25031V22.7503C0 23.3483 0.48425 23.8336 1.08332 23.8336H24.9166C25.5157 23.8336 25.9999 23.3483 25.9999 22.7503V3.25031C26 2.65231 25.5157 2.16699 24.9167 2.16699ZM3.25 8.66699C3.25 6.87518 4.70818 5.41699 6.5 5.41699C8.29182 5.41699 9.75 6.87518 9.75 8.66699C9.75 10.4588 8.29182 11.917 6.5 11.917C4.70818 11.917 3.25 10.4588 3.25 8.66699ZM21.3492 14.8496C20.9257 15.2731 20.241 15.2731 19.8174 14.8496L16.4645 11.4977L14.3639 14.9991L14.8492 15.4844C15.2728 15.9079 15.2728 16.5926 14.8492 17.0162C14.4257 17.4398 13.741 17.4398 13.3174 17.0162L10.8334 14.5321L6.18262 19.1829C5.97137 19.3941 5.69405 19.5003 5.41668 19.5003C5.13937 19.5003 4.862 19.3941 4.65075 19.1829C4.22718 18.7593 4.22718 18.0746 4.65075 17.6511L10.0674 12.2344C10.491 11.8108 11.1757 11.8108 11.5993 12.2344L12.7844 13.4196L15.3216 9.19238C15.4928 8.90744 15.7864 8.71569 16.1179 8.67456C16.4461 8.63337 16.7798 8.74824 17.0159 8.98438L21.3492 13.3177C21.7728 13.7413 21.7728 14.426 21.3492 14.8496Z" fill="white"/>
</svg>
