<svg width="26" height="27" viewBox="0 0 26 27" fill="none" xmlns="http://www.w3.org/2000/svg">
<g clip-path="url(#clip0_346_12350)">
<path d="M6.06666 13.1377C6.6058 13.1527 7.13861 13.0185 7.60629 12.7499C8.19459 12.4217 8.85982 12.2564 9.53333 12.2711C10.2068 12.2557 10.8722 12.4202 11.4608 12.7477C11.9281 13.017 12.4608 13.152 13 13.1377C13.5387 13.1525 14.071 13.0183 14.5383 12.7499C14.7317 12.6492 14.9309 12.5604 15.135 12.4838C14.5603 11.8873 13.8943 11.3861 13.1621 10.9988C12.5969 10.7111 12.1214 10.274 11.7872 9.73505C11.453 9.19606 11.273 8.57578 11.2667 7.94163V2.73773C11.2667 2.62281 11.3123 2.51259 11.3936 2.43132C11.4748 2.35005 11.5851 2.3044 11.7 2.3044C11.7558 2.30491 11.8112 2.29416 11.8628 2.27279C11.9144 2.25143 11.9612 2.21988 12.0003 2.18003C12.0473 2.13625 12.0835 2.08215 12.1061 2.02199C12.1286 1.96184 12.1369 1.89727 12.1303 1.83337C12.1126 1.72055 12.0543 1.61807 11.9664 1.54522C11.8784 1.47236 11.7669 1.43414 11.6528 1.43773H7.36666C7.31082 1.43722 7.25544 1.44797 7.20385 1.46934C7.15225 1.49071 7.10549 1.52226 7.06636 1.5621C7.02419 1.60173 6.99062 1.64961 6.96773 1.70276C6.94485 1.75591 6.93314 1.8132 6.93333 1.87107C6.93333 1.98599 6.97898 2.09621 7.06025 2.17748C7.14151 2.25874 7.25173 2.3044 7.36666 2.3044C7.48159 2.3044 7.59181 2.35005 7.67307 2.43132C7.75434 2.51259 7.79999 2.62281 7.79999 2.73773V7.94163C7.7936 8.57512 7.61407 9.19479 7.28082 9.73357C6.94758 10.2724 6.47331 10.7097 5.90936 10.9984C5.17324 11.3845 4.50306 11.885 3.92383 12.4812C4.13066 12.5581 4.33254 12.6477 4.52833 12.7495C4.99559 13.018 5.52792 13.1524 6.06666 13.1377Z" fill="#080A07"/>
<path d="M14.9269 13.5248C14.3388 13.8533 13.6737 14.0189 13.0003 14.0045C12.3268 14.0192 11.6615 13.8539 11.0732 13.5257C10.6055 13.2571 10.0727 13.1228 9.53359 13.1379C8.99459 13.1228 8.46192 13.257 7.99439 13.5257C7.40588 13.8538 6.74055 14.019 6.06693 14.0045C5.39367 14.019 4.72874 13.8535 4.14076 13.5253C3.87725 13.3809 3.59509 13.2736 3.30226 13.2063C2.62476 14.1061 2.15017 15.1419 1.91111 16.2426C1.67205 17.3433 1.6742 18.4827 1.91742 19.5824C2.16063 20.6822 2.63913 21.7162 3.32003 22.6134C4.00092 23.5106 4.86805 24.2497 5.86179 24.7799C6.85553 25.3101 7.9523 25.6188 9.07669 25.6847C10.2011 25.7507 11.3264 25.5723 12.3753 25.162C13.4242 24.7516 14.3718 24.1189 15.1529 23.3074C15.934 22.496 16.5302 21.525 16.9003 20.4612V15.3453C16.6324 14.5774 16.2461 13.8562 15.7554 13.2076C15.4662 13.2755 15.1875 13.3822 14.9269 13.5248Z" fill="#080A07"/>
<path d="M20.4914 11.6014C19.6075 11.8698 18.6699 11.9094 17.7666 11.7163V23.1034C17.7666 23.793 18.0405 24.4543 18.5281 24.9419C19.0157 25.4295 19.677 25.7034 20.3666 25.7034C21.0562 25.7034 21.7175 25.4295 22.2051 24.9419C22.6927 24.4543 22.9666 23.793 22.9666 23.1034V11.5538C22.5909 11.4449 22.2007 11.3942 21.8096 11.4034C21.3621 11.3937 20.9163 11.4606 20.4914 11.6014ZM18.6333 18.3367C18.6333 18.0796 18.7095 17.8283 18.8524 17.6145C18.9952 17.4007 19.1982 17.2341 19.4358 17.1357C19.6733 17.0373 19.9347 17.0116 20.1869 17.0617C20.4391 17.1119 20.6707 17.2357 20.8525 17.4175C21.0343 17.5993 21.1581 17.8309 21.2083 18.0831C21.2585 18.3353 21.2327 18.5967 21.1343 18.8342C21.0359 19.0718 20.8693 19.2748 20.6555 19.4176C20.4417 19.5605 20.1904 19.6367 19.9333 19.6367C19.5885 19.6367 19.2578 19.4998 19.014 19.256C18.7702 19.0122 18.6333 18.6815 18.6333 18.3367ZM20.7999 23.5367C20.5428 23.5367 20.2915 23.4605 20.0777 23.3176C19.8639 23.1748 19.6973 22.9718 19.5989 22.7342C19.5005 22.4967 19.4748 22.2353 19.5249 21.9831C19.5751 21.7309 19.6989 21.4993 19.8807 21.3175C20.0625 21.1357 20.2941 21.0119 20.5463 20.9617C20.7985 20.9116 21.0599 20.9373 21.2974 21.0357C21.535 21.1341 21.738 21.3007 21.8808 21.5145C22.0237 21.7283 22.0999 21.9796 22.0999 22.2367C22.0999 22.5815 21.963 22.9122 21.7192 23.156C21.4754 23.3998 21.1447 23.5367 20.7999 23.5367ZM20.7999 15.7367C20.5428 15.7367 20.2915 15.6605 20.0777 15.5176C19.8639 15.3748 19.6973 15.1718 19.5989 14.9342C19.5005 14.6967 19.4748 14.4353 19.5249 14.1831C19.5751 13.9309 19.6989 13.6993 19.8807 13.5175C20.0625 13.3357 20.2941 13.2119 20.5463 13.1617C20.7985 13.1116 21.0599 13.1373 21.2974 13.2357C21.535 13.3341 21.738 13.5007 21.8808 13.7145C22.0237 13.9283 22.0999 14.1796 22.0999 14.4367C22.0999 14.7815 21.963 15.1122 21.7192 15.356C21.4754 15.5998 21.1447 15.7367 20.7999 15.7367Z" fill="#080A07"/>
<path d="M23.8335 7.9375H16.9001C16.7852 7.9375 16.675 7.98315 16.5937 8.06442C16.5125 8.14569 16.4668 8.25591 16.4668 8.37083C16.4668 8.48576 16.5125 8.59598 16.5937 8.67725C16.675 8.75851 16.7852 8.80417 16.9001 8.80417H23.8335C23.9484 8.80417 24.0586 8.75851 24.1399 8.67725C24.2211 8.59598 24.2668 8.48576 24.2668 8.37083C24.2668 8.25591 24.2211 8.14569 24.1399 8.06442C24.0586 7.98315 23.9484 7.9375 23.8335 7.9375Z" fill="#080A07"/>
<path d="M17.7666 12.7338C18.1407 12.8432 18.5296 12.7439 18.9193 12.7338C19.3685 12.7436 19.8161 12.7128 20.2427 12.5718C20.7482 12.4065 21.2778 12.562 21.8096 12.5718C22.1987 12.5658 22.5872 12.4852 22.9666 12.5718V9.67188H17.7666V12.7338Z" fill="#080A07"/>
</g>
<defs>
<clipPath id="clip0_346_12350">
<rect width="26" height="26" fill="white" transform="translate(0 0.570312)"/>
</clipPath>
</defs>
</svg>
