<svg width="26" height="26" viewBox="0 0 26 26" fill="none" xmlns="http://www.w3.org/2000/svg">
<g clip-path="url(#clip0_416_6139)">
<path d="M18.6333 13.8663C18.8575 13.8664 19.0781 13.9232 19.2744 14.0314C19.4708 14.1396 19.6366 14.2957 19.7565 14.4851L20.8022 16.1197C21.572 15.5198 22.1722 14.7298 22.5438 13.8273C22.9153 12.9249 23.0453 11.9412 22.921 10.9733C22.7966 10.0053 22.4222 9.08645 21.8347 8.30723C21.2471 7.52801 20.4666 6.91532 19.5702 6.52955C18.354 5.97589 17.3752 5.00648 16.8099 3.79565C16.4354 3.02418 15.876 2.35729 15.1814 1.85437C14.4868 1.35145 13.6787 1.02811 12.8289 0.913149C11.9791 0.79819 11.114 0.895179 10.3108 1.19548C9.50755 1.49578 8.79105 1.99006 8.22509 2.63432C7.59804 3.38557 6.7834 3.95757 5.86386 4.29225C4.53865 4.74244 3.36912 5.56083 2.49217 6.65161C1.61521 7.74239 1.06714 9.06041 0.912102 10.4514C0.757064 11.8424 1.00148 13.2487 1.61674 14.5058C2.232 15.7629 3.19263 16.8187 4.38619 17.5497C5.19977 18.0568 5.85655 18.7799 6.28332 19.6383C6.78833 20.6411 7.5625 21.4836 8.51916 22.0714C9.47582 22.6591 10.5772 22.969 11.7 22.9663C11.8408 22.9663 11.9682 22.9611 12.09 22.9533L17.5097 14.4851C17.6297 14.2957 17.7956 14.1396 17.9921 14.0315C18.1885 13.9233 18.4091 13.8665 18.6333 13.8663ZM9.53332 16.4663C8.50486 16.4663 7.49949 16.1613 6.64436 15.59C5.78922 15.0186 5.12272 14.2064 4.72915 13.2563C4.33557 12.3061 4.2326 11.2605 4.43324 10.2518C4.63388 9.24315 5.12913 8.3166 5.85637 7.58936C6.5836 6.86213 7.51015 6.36688 8.51885 6.16623C9.52755 5.96559 10.5731 6.06857 11.5233 6.46214C12.4735 6.85572 13.2856 7.52222 13.857 8.37735C14.4283 9.23249 14.7333 10.2379 14.7333 11.2663C14.7318 12.645 14.1835 13.9668 13.2086 14.9416C12.2338 15.9165 10.912 16.4648 9.53332 16.4663Z" fill="white"/>
<path d="M9.53335 6.93359C8.6763 6.93359 7.83849 7.18774 7.12588 7.66389C6.41326 8.14005 5.85785 8.81682 5.52987 9.60863C5.20189 10.4004 5.11608 11.2717 5.28328 12.1123C5.45048 12.9529 5.86319 13.725 6.46922 14.3311C7.07525 14.9371 7.84737 15.3498 8.68796 15.517C9.52854 15.6842 10.3998 15.5984 11.1916 15.2704C11.9835 14.9424 12.6602 14.387 13.1364 13.6744C13.6125 12.9618 13.8667 12.124 13.8667 11.2669C13.8654 10.118 13.4085 9.01658 12.5961 8.20419C11.7837 7.39181 10.6822 6.93486 9.53335 6.93359Z" fill="white"/>
<path d="M25.0519 24.3681L19.0285 14.9526C18.9871 14.8856 18.9292 14.8303 18.8604 14.7919C18.7916 14.7535 18.7141 14.7334 18.6353 14.7334C18.5565 14.7334 18.479 14.7535 18.4102 14.7919C18.3413 14.8303 18.2835 14.8856 18.242 14.9526L12.2187 24.3681C12.169 24.4445 12.1411 24.5332 12.138 24.6243C12.135 24.7155 12.1569 24.8058 12.2014 24.8855C12.2406 24.9603 12.2996 25.023 12.3719 25.0667C12.4443 25.1104 12.5272 25.1335 12.6117 25.1333H24.6593C24.7438 25.1335 24.8267 25.1104 24.8991 25.0667C24.9714 25.023 25.0304 24.9603 25.0696 24.8855C25.1142 24.8058 25.136 24.7155 25.1329 24.6243C25.1298 24.5331 25.1017 24.4445 25.0519 24.3681ZM18.6333 23.8333C18.5476 23.8333 18.4638 23.8079 18.3926 23.7603C18.3213 23.7127 18.2658 23.645 18.233 23.5658C18.2002 23.4866 18.1916 23.3995 18.2083 23.3154C18.225 23.2314 18.2663 23.1542 18.3269 23.0936C18.3875 23.033 18.4647 22.9917 18.5488 22.975C18.6328 22.9583 18.72 22.9668 18.7992 22.9996C18.8783 23.0324 18.946 23.088 18.9936 23.1592C19.0412 23.2305 19.0667 23.3143 19.0667 23.4C19.0667 23.5149 19.021 23.6251 18.9397 23.7064C18.8585 23.7877 18.7483 23.8333 18.6333 23.8333ZM19.0667 21.6667C19.0667 21.7816 19.021 21.8918 18.9397 21.9731C18.8585 22.0543 18.7483 22.1 18.6333 22.1C18.5184 22.1 18.4082 22.0543 18.3269 21.9731C18.2456 21.8918 18.2 21.7816 18.2 21.6667V17.7667C18.2 17.6517 18.2456 17.5415 18.3269 17.4602C18.4082 17.379 18.5184 17.3333 18.6333 17.3333C18.7483 17.3333 18.8585 17.379 18.9397 17.4602C19.021 17.5415 19.0667 17.6517 19.0667 17.7667V21.6667Z" fill="white"/>
</g>
<defs>
<clipPath id="clip0_416_6139">
<rect width="26" height="26" fill="white"/>
</clipPath>
</defs>
</svg>
