<svg width="26" height="26" viewBox="0 0 26 26" fill="none" xmlns="http://www.w3.org/2000/svg">
<path d="M23.2857 0H2.71429C2.25963 0 1.82359 0.181908 1.5021 0.505706C1.18061 0.829505 1 1.26867 1 1.72659V5.17977H25V1.72659C25 1.26867 24.8194 0.829505 24.4979 0.505706C24.1764 0.181908 23.7404 0 23.2857 0ZM3.57143 3.45318C3.4019 3.45318 3.23618 3.40255 3.09523 3.30769C2.95427 3.21283 2.84441 3.078 2.77953 2.92025C2.71466 2.7625 2.69768 2.58892 2.73076 2.42146C2.76383 2.254 2.84546 2.10018 2.96534 1.97944C3.08521 1.85871 3.23794 1.77649 3.40421 1.74318C3.57048 1.70987 3.74282 1.72696 3.89944 1.7923C4.05606 1.85764 4.18993 1.96829 4.28412 2.11026C4.3783 2.25223 4.42857 2.41914 4.42857 2.58988C4.42857 2.81884 4.33827 3.03843 4.17752 3.20033C4.01678 3.36222 3.79876 3.45318 3.57143 3.45318ZM7 3.45318C6.83047 3.45318 6.66475 3.40255 6.5238 3.30769C6.38284 3.21283 6.27298 3.078 6.2081 2.92025C6.14323 2.7625 6.12625 2.58892 6.15933 2.42146C6.1924 2.254 6.27403 2.10018 6.39391 1.97944C6.51378 1.85871 6.66651 1.77649 6.83278 1.74318C6.99905 1.70987 7.17139 1.72696 7.32801 1.7923C7.48464 1.85764 7.61851 1.96829 7.71269 2.11026C7.80687 2.25223 7.85714 2.41914 7.85714 2.58988C7.85714 2.81884 7.76684 3.03843 7.60609 3.20033C7.44535 3.36222 7.22733 3.45318 7 3.45318ZM10.4286 3.45318C10.259 3.45318 10.0933 3.40255 9.95237 3.30769C9.81141 3.21283 9.70155 3.078 9.63668 2.92025C9.5718 2.7625 9.55483 2.58892 9.5879 2.42146C9.62097 2.254 9.70261 2.10018 9.82248 1.97944C9.94235 1.85871 10.0951 1.77649 10.2614 1.74318C10.4276 1.70987 10.6 1.72696 10.7566 1.7923C10.9132 1.85764 11.0471 1.96829 11.1413 2.11026C11.2354 2.25223 11.2857 2.41914 11.2857 2.58988C11.2857 2.81884 11.1954 3.03843 11.0347 3.20033C10.8739 3.36222 10.6559 3.45318 10.4286 3.45318Z" fill="white"/>
<path d="M1 24.1721C1 24.6301 1.18061 25.0692 1.5021 25.393C1.82359 25.7168 2.25963 25.8987 2.71429 25.8987H23.2857C23.7404 25.8987 24.1764 25.7168 24.4979 25.393C24.8194 25.0692 25 24.6301 25 24.1721V6.90625H1V24.1721Z" fill="white"/>
</svg>
