<svg width="26" height="26" viewBox="0 0 26 26" fill="none" xmlns="http://www.w3.org/2000/svg">
<g clip-path="url(#clip0_412_5593)">
<path d="M6.50003 0C3.62378 0 1.39288 3.74354 1.39288 6.96429C1.39288 10.0666 3.3972 12.0714 6.50003 12.0714C9.60285 12.0714 11.6072 10.0666 11.6072 6.96429C11.6072 3.74354 9.3786 0 6.50003 0Z" fill="white"/>
<path d="M6.50004 12.9997C6.18951 12.998 5.87937 12.9769 5.57147 12.9365V14.8568H7.42862V12.9365C7.12071 12.9769 6.81058 12.998 6.50004 12.9997Z" fill="white"/>
<path d="M7.89287 15.7861H5.10716C4.59432 15.7861 4.17859 16.2019 4.17859 16.7147V24.6076C4.17859 25.3768 4.80219 26.0004 5.57145 26.0004H7.42859C8.19784 26.0004 8.82145 25.3768 8.82145 24.6076V16.7147C8.82145 16.2019 8.40571 15.7861 7.89287 15.7861Z" fill="white"/>
<path d="M23.9107 0.928571C23.5261 0.928571 23.2143 1.24037 23.2143 1.625V6.03571C23.2143 6.80497 22.5907 7.42857 21.8215 7.42857C21.0522 7.42857 20.4286 6.80497 20.4286 6.03571V0.928571C20.4286 0.415736 20.0129 0 19.5 0C18.9872 0 18.5715 0.415736 18.5715 0.928571V6.03571C18.5715 6.80497 17.9479 7.42857 17.1786 7.42857C16.4093 7.42857 15.7857 6.80497 15.7857 6.03571V1.625C15.7857 1.24037 15.4739 0.928571 15.0893 0.928571C14.7047 0.928571 14.3929 1.24037 14.3929 1.625V6.96429C14.3929 10.0666 16.3972 12.0714 19.5 12.0714C22.6028 12.0714 24.6072 10.0666 24.6072 6.96429V1.625C24.6072 1.24037 24.2954 0.928571 23.9107 0.928571Z" fill="white"/>
<path d="M19.5 12.9997C19.1895 12.998 18.8794 12.9769 18.5715 12.9365V14.8568H20.4286V12.9365C20.1207 12.9769 19.8106 12.998 19.5 12.9997Z" fill="white"/>
<path d="M20.8929 15.7861H18.1072C17.5943 15.7861 17.1786 16.2019 17.1786 16.7147V24.6076C17.1786 25.3768 17.8022 26.0004 18.5714 26.0004H20.4286C21.1978 26.0004 21.8214 25.3768 21.8214 24.6076V16.7147C21.8214 16.2019 21.4057 15.7861 20.8929 15.7861Z" fill="white"/>
</g>
<defs>
<clipPath id="clip0_412_5593">
<rect width="26" height="26" fill="white"/>
</clipPath>
</defs>
</svg>
