<svg width="26" height="20" viewBox="0 0 26 20" fill="none" xmlns="http://www.w3.org/2000/svg">
<path d="M1.39286 19.5H26V0H23.6786V1.85714C23.6786 2.11356 23.4707 2.32143 23.2143 2.32143C22.9579 2.32143 22.75 2.11356 22.75 1.85714V0H21.8214V1.85714C21.8214 2.11356 21.6136 2.32143 21.3571 2.32143C21.1007 2.32143 20.8929 2.11356 20.8929 1.85714V0H19.9643V6.5C19.9643 6.75642 19.7564 6.96429 19.5 6.96429C19.2436 6.96429 19.0357 6.75642 19.0357 6.5V0H18.1071V1.85714C18.1071 2.11356 17.8993 2.32143 17.6429 2.32143C17.3864 2.32143 17.1786 2.11356 17.1786 1.85714V0H16.25V1.85714C16.25 2.11356 16.0421 2.32143 15.7857 2.32143C15.5293 2.32143 15.3214 2.11356 15.3214 1.85714V0H14.3929V3.71429C14.3929 3.9707 14.185 4.17857 13.9286 4.17857C13.6722 4.17857 13.4643 3.9707 13.4643 3.71429V0H12.5357V1.85714C12.5357 2.11356 12.3278 2.32143 12.0714 2.32143C11.815 2.32143 11.6071 2.11356 11.6071 1.85714V0H10.6786V1.85714C10.6786 2.11356 10.4707 2.32143 10.2143 2.32143C9.95787 2.32143 9.75 2.11356 9.75 1.85714V0H8.82143V6.5C8.82143 6.75642 8.61356 6.96429 8.35714 6.96429C8.10072 6.96429 7.89286 6.75642 7.89286 6.5V0H6.96429V1.85714C6.96429 2.11356 6.75642 2.32143 6.5 2.32143C6.24358 2.32143 6.03571 2.11356 6.03571 1.85714V0H5.10714V1.85714C5.10714 2.11356 4.89927 2.32143 4.64286 2.32143C4.38644 2.32143 4.17857 2.11356 4.17857 1.85714V0H3.25V3.71429C3.25 3.9707 3.04213 4.17857 2.78571 4.17857C2.5293 4.17857 2.32143 3.9707 2.32143 3.71429V0H1.39286C0.623603 0 0 0.623603 0 1.39286V18.1071C0 18.8764 0.623603 19.5 1.39286 19.5ZM19.5 8.35714C20.5257 8.35714 21.3571 9.18861 21.3571 10.2143C21.3571 10.2881 21.3321 11.7929 19.4698 13.4643H20.8929C21.1493 13.4643 21.3571 13.6722 21.3571 13.9286C21.3571 14.185 21.1493 14.3929 20.8929 14.3929H18.1071C17.9025 14.3929 17.722 14.259 17.6627 14.0632C17.6034 13.8674 17.6792 13.6558 17.8495 13.5423C20.3589 11.8695 20.4286 10.225 20.4286 10.2087C20.427 9.69588 20.01 9.28139 19.4972 9.28293C18.9844 9.28447 18.5699 9.70145 18.5714 10.2143C18.5714 10.4707 18.3636 10.6786 18.1071 10.6786C17.8507 10.6786 17.6429 10.4707 17.6429 10.2143C17.6429 9.18861 18.4743 8.35714 19.5 8.35714ZM7.75682 10.0783C7.57465 10.2542 7.28507 10.2517 7.10598 10.0726C6.92689 9.8935 6.92437 9.60393 7.10032 9.42175L8.02889 8.49318C8.16168 8.36044 8.36134 8.32073 8.5348 8.39258C8.70827 8.46442 8.82139 8.63367 8.82143 8.82143V13.4643H9.28571C9.54213 13.4643 9.75 13.6722 9.75 13.9286C9.75 14.185 9.54213 14.3929 9.28571 14.3929H7.42857C7.17215 14.3929 6.96429 14.185 6.96429 13.9286C6.96429 13.6722 7.17215 13.4643 7.42857 13.4643H7.89286V9.94221L7.75682 10.0783Z" fill="white"/>
</svg>
