<svg width="19" height="19" viewBox="0 0 19 19" fill="none" xmlns="http://www.w3.org/2000/svg">
<g clip-path="url(#clip0_846_11173)">
<path d="M15.0416 9.53651C14.6038 9.53651 14.25 9.89122 14.25 10.3281V16.6615C14.25 17.0977 13.8953 17.4531 13.4584 17.4531H2.375C1.93795 17.4531 1.58338 17.0977 1.58338 16.6615V5.57812C1.58338 5.14194 1.93795 4.78651 2.375 4.78651H8.70838C9.14616 4.78651 9.5 4.43179 9.5 3.99489C9.5 3.55784 9.14616 3.20312 8.70838 3.20312H2.375C1.06559 3.20312 0 4.26871 0 5.57812V16.6615C0 17.9709 1.06559 19.0365 2.375 19.0365H13.4584C14.7678 19.0365 15.8334 17.9709 15.8334 16.6615V10.3281C15.8334 9.89035 15.4794 9.53651 15.0416 9.53651Z" fill="#BCC0B7"/>
<path d="M7.42191 8.81444C7.36654 8.86981 7.32928 8.94026 7.31348 9.01622L6.7538 11.8157C6.72771 11.9454 6.76887 12.0792 6.86223 12.1734C6.93746 12.2486 7.03879 12.2889 7.14258 12.2889C7.1678 12.2889 7.19404 12.2866 7.22013 12.2811L10.0187 11.7214C10.0963 11.7055 10.1667 11.6684 10.2214 11.6129L16.485 5.34921L13.6864 2.55078L7.42191 8.81444Z" fill="#BCC0B7"/>
<path d="M18.4196 0.61799C17.6478 -0.153913 16.3922 -0.153913 15.621 0.61799L14.5254 1.71359L17.324 4.51216L18.4196 3.41641C18.7933 3.04358 18.9991 2.54637 18.9991 2.01756C18.9991 1.48876 18.7933 0.991549 18.4196 0.61799Z" fill="#BCC0B7"/>
</g>
<defs>
<clipPath id="clip0_846_11173">
<rect width="19" height="19" fill="white"/>
</clipPath>
</defs>
</svg>
