<svg width="14" height="14" viewBox="0 0 14 14" fill="none" xmlns="http://www.w3.org/2000/svg">
<g clip-path="url(#clip0_846_16573)">
<path d="M7.45015 11.7276L13.8136 5.89421C14.0621 5.66644 14.0621 5.29707 13.8136 5.06926C13.5651 4.84149 13.1621 4.84149 12.9136 5.0693L7.00011 10.4902L1.0863 5.06926C0.837784 4.84149 0.434881 4.84149 0.18636 5.0693C0.0620994 5.18317 -9.55572e-06 5.33246 -9.56224e-06 5.48176C-9.56877e-06 5.63105 0.0621004 5.78035 0.186403 5.89425L6.5502 11.7276C6.66954 11.837 6.83139 11.8984 7.00016 11.8984C7.16892 11.8984 7.33081 11.837 7.45015 11.7276Z" fill="#BCC0B7"/>
</g>
<defs>
<clipPath id="clip0_846_16573">
<rect width="14" height="14" fill="white" transform="translate(14) rotate(90)"/>
</clipPath>
</defs>
</svg>
