<svg width="61" height="61" viewBox="0 0 61 61" fill="none" xmlns="http://www.w3.org/2000/svg">
<circle cx="30.5" cy="30.5" r="30.5" fill="url(#paint0_linear_616_47861)"/>
<g clip-path="url(#clip0_616_47861)">
<path d="M46.689 24.1169C45.4654 22.8933 43.4743 22.8933 42.2507 24.1169L33.6453 32.7222C33.6399 32.7277 33.6334 32.7317 33.6277 32.7368C34.0463 32.0504 34.2877 31.2446 34.2877 30.3836C34.2877 27.884 32.2542 25.8504 29.7546 25.8504C27.255 25.8504 25.2214 27.884 25.2214 30.3836C25.2214 31.2447 25.4629 32.0505 25.8816 32.7369C25.8758 32.7318 25.8694 32.7278 25.8639 32.7224L17.2583 24.1169C16.0347 22.8933 14.0437 22.8933 12.8201 24.1169C11.5964 25.3406 11.5964 27.3316 12.8201 28.5552L22.4318 38.1668V45.1686C22.4318 46.5145 23.5268 47.6095 24.8727 47.6095H34.6364C35.9824 47.6095 37.0774 46.5145 37.0774 45.1686V38.1668L46.689 28.5552C47.9127 27.3315 47.9127 25.3405 46.689 24.1169ZM45.2096 27.0757L35.2916 36.9938C35.0954 37.19 34.9851 37.456 34.9851 37.7335V45.1686C34.9851 45.3609 34.8287 45.5173 34.6364 45.5173H24.8727C24.6804 45.5173 24.524 45.3609 24.524 45.1686V37.7335C24.524 37.456 24.4138 37.19 24.2176 36.9939L14.2996 27.0757C13.8917 26.6678 13.8917 26.0042 14.2996 25.5963C14.5035 25.3923 14.7714 25.2904 15.0393 25.2904C15.3071 25.2904 15.5751 25.3923 15.7789 25.5963L24.3845 34.2019C24.8456 34.6629 25.4585 34.9167 26.1104 34.9167H33.3987C34.0506 34.9167 34.6636 34.6629 35.1247 34.2018L43.7302 25.5963C44.1381 25.1884 44.8018 25.1884 45.2096 25.5963C45.6175 26.0042 45.6175 26.6679 45.2096 27.0757ZM27.3136 30.3836C27.3136 29.0376 28.4086 27.9426 29.7546 27.9426C31.1005 27.9426 32.1955 29.0376 32.1955 30.3836C32.1955 31.7295 31.1005 32.8245 29.7546 32.8245C28.4086 32.8245 27.3136 31.7295 27.3136 30.3836Z" fill="white"/>
<path opacity="0.7" d="M26.0684 19.62L25.5482 22.6531C25.4809 23.0455 25.6423 23.4422 25.9644 23.6763C26.2865 23.9102 26.7136 23.9412 27.0661 23.7559L29.79 22.3239L32.5139 23.7559C32.6669 23.8363 32.8341 23.8761 33.0006 23.8761C33.2175 23.8761 33.4333 23.8087 33.6156 23.6763C33.9377 23.4423 34.0991 23.0456 34.0318 22.6532L33.5116 19.6201L35.7153 17.472C36.0004 17.1941 36.1031 16.7783 35.98 16.3997C35.857 16.0209 35.5296 15.7449 35.1356 15.6877L32.0901 15.2451L30.728 12.4854C30.5518 12.1284 30.1881 11.9023 29.7899 11.9023C29.3917 11.9023 29.0281 12.1284 28.8518 12.4854L27.4899 15.245L24.4445 15.6876C24.0505 15.7448 23.723 16.0208 23.6001 16.3996C23.477 16.7783 23.5796 17.194 23.8648 17.4719L26.0684 19.62ZM29.1227 16.6642L29.7899 15.3122L30.4571 16.6642C30.6096 16.9729 30.904 17.1869 31.2448 17.2364L32.7369 17.4532L31.6573 18.5056C31.4107 18.7459 31.2982 19.0922 31.3564 19.4315L31.6113 20.9176L30.2768 20.2159C30.1243 20.1359 29.9572 20.0958 29.79 20.0958C29.6228 20.0958 29.4556 20.1358 29.3032 20.2159L27.9687 20.9176L28.2235 19.4315C28.2818 19.0922 28.1693 18.7459 27.9227 18.5056L26.8431 17.4532L28.3352 17.2364C28.6757 17.1869 28.9703 16.9729 29.1227 16.6642Z" fill="white"/>
</g>
<defs>
<linearGradient id="paint0_linear_616_47861" x1="65.7387" y1="74.1911" x2="23.7065" y2="15.6433" gradientUnits="userSpaceOnUse">
<stop stop-color="#EE7301"/>
<stop offset="1" stop-color="#FFA552"/>
</linearGradient>
<clipPath id="clip0_616_47861">
<rect width="35.7073" height="35.7073" fill="white" transform="translate(11.9023 11.9023)"/>
</clipPath>
</defs>
</svg>
