<svg width="25" height="25" viewBox="0 0 25 25" fill="none" xmlns="http://www.w3.org/2000/svg">
<path d="M12.5 0C5.59639 0 0 5.59639 0 12.5C0 19.4036 5.59639 25 12.5 25C19.4036 25 25 19.4036 25 12.5C25 5.59639 19.4036 0 12.5 0ZM13.6342 19.0011C13.3011 19.2969 12.8858 19.4444 12.3881 19.4444C11.8903 19.4444 11.4747 19.2969 11.1419 19.0011C10.8089 18.7058 10.6425 18.3278 10.6425 17.8672C10.6425 17.4069 10.8089 17.0289 11.1419 16.7333C11.4747 16.4378 11.89 16.29 12.3881 16.29C12.8858 16.29 13.3011 16.4378 13.6342 16.7333C13.9672 17.0289 14.1339 17.4069 14.1339 17.8672C14.1339 18.3278 13.9672 18.7058 13.6342 19.0011ZM16.5883 10.6614C16.3831 11.0847 16.0528 11.5172 15.5989 11.9589L14.5256 12.9575C14.2203 13.25 14.0086 13.55 13.8908 13.8581C13.7728 14.1661 13.7075 14.5567 13.6947 15.0294H11.0253C11.0253 14.1208 11.1278 13.4039 11.3333 12.8778C11.5386 12.3519 11.8714 11.8964 12.3319 11.5103C12.7925 11.1247 13.1425 10.7714 13.3822 10.4511C13.6217 10.1306 13.7414 9.7775 13.7414 9.39167C13.7414 8.45222 13.3369 7.98222 12.5281 7.98222C12.1547 7.98222 11.8528 8.11917 11.6228 8.39306C11.3925 8.66694 11.2711 9.03695 11.2586 9.50389H8.10389C8.11611 8.25945 8.50833 7.29028 9.28 6.59639C10.0514 5.9025 11.1342 5.55556 12.5281 5.55556C13.9158 5.55556 14.9906 5.87611 15.7528 6.51694C16.5153 7.15806 16.8961 8.06972 16.8961 9.25194C16.8961 9.76833 16.7936 10.2383 16.5883 10.6614Z" fill="#346B04"/>
</svg>
