<svg width="30" height="31" viewBox="0 0 30 31" fill="none" xmlns="http://www.w3.org/2000/svg">
<path d="M29.0102 7.1225C28.8881 6.30581 28.4773 5.55993 27.8525 5.02005C27.2277 4.48017 26.4301 4.18203 25.6043 4.17969H4.39617C3.5704 4.18203 2.77281 4.48017 2.14796 5.02005C1.52312 5.55993 1.11239 6.30581 0.990234 7.1225L15.0002 16.1881L29.0102 7.1225Z" fill="#BCC0B7"/>
<path d="M15.5091 18.0906C15.3574 18.1887 15.1806 18.2409 15 18.2409C14.8194 18.2409 14.6426 18.1887 14.4909 18.0906L0.9375 9.32125V23.2197C0.938493 24.1366 1.30318 25.0157 1.95155 25.6641C2.59992 26.3124 3.47901 26.6771 4.39594 26.6781H25.6041C26.521 26.6771 27.4001 26.3124 28.0485 25.6641C28.6968 25.0157 29.0615 24.1366 29.0625 23.2197V9.32031L15.5091 18.0906Z" fill="#BCC0B7"/>
</svg>
