<svg width="19" height="19" viewBox="0 0 19 19" fill="none" xmlns="http://www.w3.org/2000/svg">
<path d="M17.0057 8.14178C16.9836 8.14066 15.2109 8.14178 15.1882 8.14122L17.3642 4.43214C17.8987 3.51336 17.6441 2.33439 16.7793 1.72317C15.8162 1.04008 14.4554 1.35154 13.8761 2.38454L11.6731 6.27693C11.4411 6.73882 12.1132 7.12773 12.391 6.69146L14.5946 2.79963C15.3981 1.43456 17.4238 2.62189 16.6512 4.00534L14.2262 8.14233H11.6803C11.5063 7.31549 10.8408 6.68533 10.0124 6.56276C9.76723 4.14687 6.48457 3.48272 5.32979 5.60609C5.06912 6.08359 5.78265 6.49144 6.05215 6.01561C6.90595 4.45777 9.31326 5.17262 9.19508 6.9433C9.17686 7.18846 9.39887 7.40352 9.6402 7.38291C10.1549 7.34836 10.6321 7.65592 10.8165 8.14178H9.2238C8.34846 8.14066 7.63936 7.42525 7.63825 6.54214C7.63825 6.31147 7.45269 6.12426 7.22405 6.12426C6.34264 6.24405 7.04291 7.75621 7.41735 8.14178H5.09342C5.25579 6.36217 4.05738 4.68843 2.32051 4.31234C1.91736 4.1998 1.49985 4.43826 1.38829 4.845C1.24305 6.06854 1.73456 7.43807 2.7695 8.13955H2.01235C1.64233 8.13899 1.34356 8.45212 1.35792 8.82542C1.4275 11.75 3.09479 14.2851 5.55898 15.741L5.35409 16.189C5.03875 16.8498 5.55843 17.6588 6.283 17.6449H12.7158C13.4425 17.6605 13.9578 16.8487 13.6447 16.189L13.4177 15.765C15.9371 14.3615 17.5409 11.7266 17.6414 8.82487C17.653 8.45881 17.368 8.15348 17.0057 8.14178ZM2.70102 6.94275C2.35033 6.41065 2.17085 5.78216 2.18576 5.14364C3.45652 5.43616 4.34677 6.62962 4.2689 7.94287C3.65644 7.78129 3.10859 7.43194 2.70102 6.94275ZM12.8776 16.7211C12.8428 16.7774 12.7815 16.8113 12.7158 16.8102H6.283C5.8064 16.7406 6.4045 16.1071 6.37467 15.8463L12.6152 15.8196C12.5932 16.0736 12.993 16.5183 12.8776 16.7211ZM13.0985 14.9822L5.94833 15.0128C3.75805 13.7792 2.3426 11.5043 2.19294 8.97809H16.8053C16.6562 11.4831 15.2617 13.7424 13.0985 14.9822Z" fill="#5B6354"/>
</svg>
