<svg width="20" height="20" viewBox="0 0 20 20" fill="none" xmlns="http://www.w3.org/2000/svg">
<rect width="20" height="20" rx="10" fill="#EE7301"/>
<path d="M6.73145 14V6H12.7657V6.97143H7.86287V9.25714H10.3543C11.3067 9.25714 12.0305 9.45524 12.5257 9.85143C13.021 10.2476 13.2686 10.8229 13.2686 11.5771C13.2686 12.3543 12.9981 12.9524 12.4572 13.3714C11.9238 13.7905 11.1581 14 10.16 14H6.73145ZM7.86287 13.0971H10.1143C10.7772 13.0971 11.2762 12.9714 11.6114 12.72C11.9543 12.4686 12.1257 12.0952 12.1257 11.6C12.1257 10.64 11.4553 10.16 10.1143 10.16H7.86287V13.0971Z" fill="white"/>
</svg>
