<svg width="19" height="19" viewBox="0 0 19 19" fill="none" xmlns="http://www.w3.org/2000/svg">
<path d="M17.0205 15.832H1.97884C1.76113 15.832 1.58301 16.0102 1.58301 16.2279C1.58301 16.4456 1.76113 16.6237 1.97884 16.6237H17.0205C17.2382 16.6237 17.4163 16.4456 17.4163 16.2279C17.4163 16.0102 17.2382 15.832 17.0205 15.832Z" fill="#5B6354"/>
<path d="M1.97893 15.0417H17.0206C17.2185 15.0417 17.3848 14.8992 17.4125 14.7052C17.8083 12.0215 17.1235 9.49604 15.4808 7.59208C14.2458 6.15917 12.5556 5.19333 10.7902 4.86875C10.9723 4.61146 11.0831 4.29875 11.0831 3.95833C11.0831 3.08354 10.3745 2.375 9.49976 2.375C8.62497 2.375 7.91643 3.08354 7.91643 3.95833C7.91643 4.29875 8.02726 4.61146 8.20934 4.86875C6.44393 5.19333 4.75372 6.15917 3.51872 7.59208C1.87601 9.49604 1.19122 12.0215 1.58705 14.7052C1.61476 14.8992 1.78101 15.0417 1.97893 15.0417ZM8.70809 3.95833C8.70809 3.52292 9.06434 3.16667 9.49976 3.16667C9.93517 3.16667 10.2914 3.52292 10.2914 3.95833C10.2914 4.39375 9.93517 4.75 9.49976 4.75C9.06434 4.75 8.70809 4.39375 8.70809 3.95833ZM4.11643 8.10667C5.50184 6.49958 7.51663 5.54167 9.49976 5.54167C11.4829 5.54167 13.4977 6.49958 14.8831 8.10667C16.3041 9.75333 16.9335 11.9225 16.6723 14.25H2.32726C2.06601 11.9265 2.69538 9.75333 4.11643 8.10667Z" fill="#5B6354"/>
</svg>
