<svg width="20" height="21" viewBox="0 0 20 21" fill="none" xmlns="http://www.w3.org/2000/svg">
<path d="M4.16663 3.5C4.16663 3.26794 4.25442 3.04538 4.4107 2.88128C4.56698 2.71719 4.77895 2.625 4.99996 2.625H15C15.221 2.625 15.4329 2.71719 15.5892 2.88128C15.7455 3.04538 15.8333 3.26794 15.8333 3.5V17.675L10.4416 14.1365C10.3092 14.0496 10.1561 14.0035 9.99996 14.0035C9.84378 14.0035 9.69074 14.0496 9.55829 14.1365L4.16663 17.675V3.5Z" fill="white"/>
<path d="M2.92917 20.0156C3.05932 20.0913 3.20641 20.1291 3.35515 20.1249C3.50389 20.1208 3.64886 20.0749 3.775 19.992L10 15.9066L16.225 19.992C16.3511 20.0748 16.4961 20.1206 16.6448 20.1247C16.7935 20.1288 16.9405 20.091 17.0706 20.0153C17.2007 19.9396 17.3092 19.8287 17.3847 19.6941C17.4602 19.5595 17.5 19.4062 17.5 19.25V3.5C17.5 2.80381 17.2366 2.13613 16.7678 1.64384C16.2989 1.15156 15.663 0.875 15 0.875H5C4.33696 0.875 3.70107 1.15156 3.23223 1.64384C2.76339 2.13613 2.5 2.80381 2.5 3.5V19.25C2.49993 19.4062 2.53969 19.5596 2.61516 19.6943C2.69063 19.8289 2.79905 19.9399 2.92917 20.0156ZM4.16667 3.5C4.16667 3.26794 4.25446 3.04538 4.41074 2.88128C4.56702 2.71719 4.77899 2.625 5 2.625H15C15.221 2.625 15.433 2.71719 15.5893 2.88128C15.7455 3.04538 15.8333 3.26794 15.8333 3.5V17.675L10.4417 14.1365C10.3092 14.0496 10.1562 14.0035 10 14.0035C9.84382 14.0035 9.69078 14.0496 9.55833 14.1365L4.16667 17.675V3.5Z" fill="white"/>
</svg>
