<svg width="26" height="27" viewBox="0 0 26 27" fill="none" xmlns="http://www.w3.org/2000/svg">
<g clip-path="url(#clip0_656_22943)">
<g clip-path="url(#clip1_656_22943)">
<path d="M23.2857 0.855469H2.71429C2.25963 0.855469 1.82359 1.03738 1.5021 1.36118C1.18061 1.68497 1 2.12414 1 2.58206V6.03524H25V2.58206C25 2.12414 24.8194 1.68497 24.4979 1.36118C24.1764 1.03738 23.7404 0.855469 23.2857 0.855469ZM3.57143 4.30865C3.4019 4.30865 3.23618 4.25802 3.09523 4.16316C2.95427 4.0683 2.84441 3.93347 2.77953 3.77572C2.71466 3.61797 2.69768 3.44439 2.73076 3.27693C2.76383 3.10947 2.84546 2.95564 2.96534 2.83491C3.08521 2.71418 3.23794 2.63196 3.40421 2.59865C3.57048 2.56534 3.74282 2.58243 3.89944 2.64777C4.05606 2.71311 4.18993 2.82376 4.28412 2.96573C4.3783 3.1077 4.42857 3.27461 4.42857 3.44535C4.42857 3.67431 4.33827 3.89389 4.17752 4.05579C4.01678 4.21769 3.79876 4.30865 3.57143 4.30865ZM7 4.30865C6.83047 4.30865 6.66475 4.25802 6.5238 4.16316C6.38284 4.0683 6.27298 3.93347 6.20811 3.77572C6.14323 3.61797 6.12625 3.44439 6.15933 3.27693C6.1924 3.10947 6.27403 2.95564 6.39391 2.83491C6.51378 2.71418 6.66651 2.63196 6.83278 2.59865C6.99905 2.56534 7.17139 2.58243 7.32801 2.64777C7.48464 2.71311 7.61851 2.82376 7.71269 2.96573C7.80687 3.1077 7.85714 3.27461 7.85714 3.44535C7.85714 3.67431 7.76684 3.89389 7.60609 4.05579C7.44535 4.21769 7.22733 4.30865 7 4.30865ZM10.4286 4.30865C10.259 4.30865 10.0933 4.25802 9.95237 4.16316C9.81141 4.0683 9.70155 3.93347 9.63668 3.77572C9.5718 3.61797 9.55482 3.44439 9.5879 3.27693C9.62097 3.10947 9.70261 2.95564 9.82248 2.83491C9.94235 2.71418 10.0951 2.63196 10.2614 2.59865C10.4276 2.56534 10.6 2.58243 10.7566 2.64777C10.9132 2.71311 11.0471 2.82376 11.1413 2.96573C11.2354 3.1077 11.2857 3.27461 11.2857 3.44535C11.2857 3.67431 11.1954 3.89389 11.0347 4.05579C10.8739 4.21769 10.6559 4.30865 10.4286 4.30865Z" fill="#080A07"/>
<path d="M1 25.0276C1 25.4855 1.18061 25.9247 1.5021 26.2485C1.82359 26.5723 2.25963 26.7542 2.71429 26.7542H23.2857C23.7404 26.7542 24.1764 26.5723 24.4979 26.2485C24.8194 25.9247 25 25.4855 25 25.0276V7.76172H1V25.0276Z" fill="#080A07"/>
</g>
</g>
<defs>
<clipPath id="clip0_656_22943">
<rect width="26" height="26" fill="white" transform="translate(0 0.855469)"/>
</clipPath>
<clipPath id="clip1_656_22943">
<rect width="26" height="26" fill="white" transform="translate(0 0.855469)"/>
</clipPath>
</defs>
</svg>
