<svg width="26" height="27" viewBox="0 0 26 27" fill="none" xmlns="http://www.w3.org/2000/svg">
<g clip-path="url(#clip0_656_22902)">
<g clip-path="url(#clip1_656_22902)">
<path d="M25.6457 11.9706L23.4791 10.0011L13.7292 1.13742C13.3164 0.761486 12.6837 0.761486 12.271 1.13742L2.52108 10.0011L0.354469 11.9706C-0.0875271 12.3726 -0.120027 13.0583 0.281903 13.5014C0.684899 13.9444 1.37171 13.9769 1.81264 13.5729L2.16688 13.2511V25.7722C2.16688 26.3702 2.65113 26.8555 3.25019 26.8555H8.66682V18.1889C8.66682 15.7991 10.6103 13.8557 13.0001 13.8557C15.3899 13.8557 17.3334 15.7991 17.3334 18.1889V26.8555H22.75C23.3491 26.8555 23.8333 26.3702 23.8333 25.7722V13.2511L24.1876 13.5729C24.3956 13.7624 24.6566 13.8556 24.9166 13.8556C25.2113 13.8556 25.5049 13.7354 25.7183 13.5014C26.1202 13.0583 26.0877 12.3726 25.6457 11.9706Z" fill="white"/>
<path d="M13.0002 16.0234C11.8052 16.0234 10.8335 16.9952 10.8335 18.1901V26.8567H15.1668V18.19C15.1668 16.9952 14.195 16.0234 13.0002 16.0234Z" fill="white"/>
</g>
</g>
<defs>
<clipPath id="clip0_656_22902">
<rect width="26" height="26" fill="white" transform="translate(0 0.855469)"/>
</clipPath>
<clipPath id="clip1_656_22902">
<rect width="26" height="26" fill="white" transform="translate(0 0.855469)"/>
</clipPath>
</defs>
</svg>
