<svg width="26" height="27" viewBox="0 0 26 27" fill="none" xmlns="http://www.w3.org/2000/svg">
<path d="M1.39286 23.0703H26V3.57031H23.6786V5.42746C23.6786 5.68387 23.4707 5.89174 23.2143 5.89174C22.9579 5.89174 22.75 5.68387 22.75 5.42746V3.57031H21.8214V5.42746C21.8214 5.68387 21.6136 5.89174 21.3571 5.89174C21.1007 5.89174 20.8929 5.68387 20.8929 5.42746V3.57031H19.9643V10.0703C19.9643 10.3267 19.7564 10.5346 19.5 10.5346C19.2436 10.5346 19.0357 10.3267 19.0357 10.0703V3.57031H18.1071V5.42746C18.1071 5.68387 17.8993 5.89174 17.6429 5.89174C17.3864 5.89174 17.1786 5.68387 17.1786 5.42746V3.57031H16.25V5.42746C16.25 5.68387 16.0421 5.89174 15.7857 5.89174C15.5293 5.89174 15.3214 5.68387 15.3214 5.42746V3.57031H14.3929V7.2846C14.3929 7.54102 14.185 7.74888 13.9286 7.74888C13.6722 7.74888 13.4643 7.54102 13.4643 7.2846V3.57031H12.5357V5.42746C12.5357 5.68387 12.3278 5.89174 12.0714 5.89174C11.815 5.89174 11.6071 5.68387 11.6071 5.42746V3.57031H10.6786V5.42746C10.6786 5.68387 10.4707 5.89174 10.2143 5.89174C9.95787 5.89174 9.75 5.68387 9.75 5.42746V3.57031H8.82143V10.0703C8.82143 10.3267 8.61356 10.5346 8.35714 10.5346C8.10072 10.5346 7.89286 10.3267 7.89286 10.0703V3.57031H6.96429V5.42746C6.96429 5.68387 6.75642 5.89174 6.5 5.89174C6.24358 5.89174 6.03571 5.68387 6.03571 5.42746V3.57031H5.10714V5.42746C5.10714 5.68387 4.89927 5.89174 4.64286 5.89174C4.38644 5.89174 4.17857 5.68387 4.17857 5.42746V3.57031H3.25V7.2846C3.25 7.54102 3.04213 7.74888 2.78571 7.74888C2.5293 7.74888 2.32143 7.54102 2.32143 7.2846V3.57031H1.39286C0.623603 3.57031 0 4.19392 0 4.96317V21.6775C0 22.4467 0.623603 23.0703 1.39286 23.0703ZM19.5 11.9275C20.5257 11.9275 21.3571 12.7589 21.3571 13.7846C21.3571 13.8584 21.3321 15.3632 19.4698 17.0346H20.8929C21.1493 17.0346 21.3571 17.2425 21.3571 17.4989C21.3571 17.7553 21.1493 17.9632 20.8929 17.9632H18.1071C17.9025 17.9632 17.722 17.8293 17.6627 17.6335C17.6034 17.4377 17.6792 17.2261 17.8495 17.1126C20.3589 15.4398 20.4286 13.7953 20.4286 13.779C20.427 13.2662 20.01 12.8517 19.4972 12.8532C18.9844 12.8548 18.5699 13.2718 18.5714 13.7846C18.5714 14.041 18.3636 14.2489 18.1071 14.2489C17.8507 14.2489 17.6429 14.041 17.6429 13.7846C17.6429 12.7589 18.4743 11.9275 19.5 11.9275ZM7.75682 13.6486C7.57465 13.8245 7.28507 13.822 7.10598 13.6429C6.92689 13.4638 6.92437 13.1742 7.10032 12.9921L8.02889 12.0635C8.16168 11.9307 8.36134 11.891 8.5348 11.9629C8.70827 12.0347 8.82139 12.204 8.82143 12.3917V17.0346H9.28571C9.54213 17.0346 9.75 17.2425 9.75 17.4989C9.75 17.7553 9.54213 17.9632 9.28571 17.9632H7.42857C7.17215 17.9632 6.96429 17.7553 6.96429 17.4989C6.96429 17.2425 7.17215 17.0346 7.42857 17.0346H7.89286V13.5125L7.75682 13.6486Z" fill="#080A07"/>
</svg>
