<svg width="14" height="15" viewBox="0 0 14 15" fill="none" xmlns="http://www.w3.org/2000/svg">
<g clip-path="url(#clip0_656_27006)">
<path d="M11.6806 7.49414C11.6806 7.36469 11.7856 7.25974 11.915 7.25974H12.6123C12.5787 6.43182 12.3612 5.62168 11.9758 4.88813L11.3729 5.2362C11.3004 5.27874 11.2106 5.27914 11.1377 5.23716C11.0647 5.19534 11.0198 5.11764 11.0201 5.03352C11.0202 4.94941 11.0655 4.87178 11.1386 4.83021L11.7404 4.4827C11.2956 3.78423 10.7031 3.19167 10.0046 2.7469L9.6571 3.34868C9.61552 3.42182 9.5379 3.46708 9.45378 3.46724C9.36967 3.46748 9.29196 3.42262 9.25014 3.34964C9.20817 3.27674 9.20857 3.18686 9.25111 3.11444L9.59918 2.51154C8.86562 2.12614 8.05548 1.90865 7.22756 1.875V2.57227C7.22756 2.70172 7.12262 2.80666 6.99316 2.80666C6.86371 2.80666 6.75877 2.70172 6.75877 2.57227V1.875C5.93084 1.90865 5.1207 2.12614 4.38715 2.51154L4.73522 3.11444C4.77776 3.18686 4.77816 3.27674 4.73618 3.34964C4.69437 3.42262 4.61666 3.46748 4.53255 3.46724C4.44843 3.46708 4.37081 3.42182 4.32923 3.34868L3.98172 2.7469C3.28325 3.19167 2.69069 3.78423 2.24593 4.4827L2.8477 4.83021C2.92084 4.87178 2.9661 4.94941 2.96626 5.03352C2.9665 5.11764 2.92164 5.19534 2.84866 5.23716C2.77576 5.27914 2.68588 5.27874 2.61346 5.2362L2.01057 4.88813C1.62508 5.62168 1.40759 6.43182 1.37402 7.25974H2.07129C2.20074 7.25974 2.30569 7.36469 2.30569 7.49414C2.30569 7.6236 2.20074 7.72854 2.07129 7.72854H1.37402C1.40759 8.55646 1.62508 9.3666 2.01057 10.1002L2.61346 9.75208C2.68588 9.70955 2.77576 9.70914 2.84866 9.75112C2.92164 9.79294 2.9665 9.87064 2.96626 9.95476C2.9661 10.0389 2.92084 10.1165 2.8477 10.1581L2.24593 10.5056C2.69069 11.2041 3.28325 11.7966 3.98172 12.2414L4.32923 11.6396C4.37081 11.5665 4.44843 11.5212 4.53255 11.521C4.61666 11.5208 4.69437 11.5657 4.73618 11.6386C4.77816 11.7115 4.77776 11.8014 4.73522 11.8738L4.38715 12.4767C5.1207 12.8621 5.93084 13.0796 6.75877 13.1133V12.416C6.75877 12.2866 6.86371 12.1816 6.99316 12.1816C7.12262 12.1816 7.22756 12.2866 7.22756 12.416V13.1133C8.05548 13.0796 8.86562 12.8621 9.59918 12.4767L9.25111 11.8738C9.20857 11.8014 9.20817 11.7115 9.25014 11.6386C9.29196 11.5657 9.36967 11.5208 9.45378 11.521C9.5379 11.5212 9.61552 11.5665 9.6571 11.6396L10.0046 12.2414C10.7031 11.7966 11.2956 11.2041 11.7404 10.5056L11.1386 10.1581C11.0655 10.1165 11.0202 10.0389 11.0201 9.95476C11.0198 9.87064 11.0647 9.79294 11.1377 9.75112C11.2106 9.70914 11.3004 9.70955 11.3729 9.75208L11.9758 10.1002C12.3612 9.3666 12.5787 8.55646 12.6123 7.72854H11.915C11.7856 7.72854 11.6806 7.6236 11.6806 7.49414ZM6.99316 8.43157C6.91626 8.43069 6.83984 8.42028 6.76558 8.40049L5.79274 10.1845C5.73065 10.2981 5.58822 10.34 5.47462 10.278C5.36095 10.2161 5.31905 10.0736 5.38122 9.95996L6.35398 8.17619C6.10356 7.94403 6.00014 7.59356 6.08457 7.26263C6.16893 6.93178 6.42768 6.67367 6.75877 6.58987V3.74417C6.75877 3.61464 6.86371 3.5097 6.99316 3.5097C7.12262 3.5097 7.22756 3.61464 7.22756 3.74417V6.58987C7.68418 6.70747 7.98203 7.14639 7.92242 7.61414C7.86298 8.08182 7.46468 8.43221 6.99316 8.43157Z" fill="white"/>
<path d="M7.46185 7.49215C7.46185 7.75098 7.25196 7.96087 6.99313 7.96087C6.7343 7.96087 6.52441 7.75098 6.52441 7.49215C6.52441 7.23332 6.7343 7.02344 6.99313 7.02344C7.25196 7.02344 7.46185 7.23332 7.46185 7.49215Z" fill="white"/>
<path d="M6.99316 0.929688C3.36873 0.929688 0.430664 3.86775 0.430664 7.49219C0.430664 11.1166 3.36873 14.0547 6.99316 14.0547C10.6176 14.0547 13.5557 11.1166 13.5557 7.49219C13.5516 3.86959 10.6158 0.933773 6.99316 0.929688ZM12.2706 10.539C12.2668 10.5454 12.2618 10.55 12.2575 10.5559C11.7239 11.468 10.9638 12.2268 10.051 12.759C10.0468 12.7617 10.0445 12.7661 10.04 12.7686C10.0356 12.7713 10.0265 12.7738 10.0197 12.7771C8.14577 13.8543 5.84056 13.8543 3.96666 12.7771C3.95985 12.7738 3.95288 12.7725 3.94631 12.7686C3.93974 12.7649 3.9395 12.7617 3.93534 12.759C3.0225 12.2268 2.26243 11.468 1.72882 10.5559C1.72458 10.55 1.71953 10.5454 1.71569 10.539C1.712 10.5327 1.71336 10.5297 1.71112 10.525C0.628933 8.648 0.628933 6.33638 1.71112 4.45935C1.71336 4.45463 1.7132 4.44974 1.71569 4.44534C1.71833 4.44085 1.72282 4.43853 1.7253 4.43436C2.2589 3.51928 3.02026 2.75793 3.93534 2.22432C3.9395 2.22184 3.94183 2.21735 3.94631 2.21471C3.95072 2.21223 3.9556 2.21239 3.96033 2.21014C5.83736 1.12796 8.14897 1.12796 10.026 2.21014C10.0307 2.21239 10.0356 2.21223 10.04 2.21471C10.0445 2.21735 10.0468 2.22184 10.051 2.22432C10.9661 2.75809 11.7274 3.51944 12.261 4.43452C12.2635 4.43853 12.268 4.44085 12.2706 4.44534C12.2731 4.44974 12.273 4.45463 12.2752 4.45935C13.3574 6.33638 13.3574 8.648 12.2752 10.525C12.273 10.5297 12.2731 10.5346 12.2706 10.539Z" fill="white"/>
</g>
<defs>
<clipPath id="clip0_656_27006">
<rect width="14" height="14" fill="white" transform="translate(0 0.5)"/>
</clipPath>
</defs>
</svg>
