<svg width="26" height="27" viewBox="0 0 26 27" fill="none" xmlns="http://www.w3.org/2000/svg">
<g clip-path="url(#clip0_656_22982)">
<path d="M13 7.57031C13.5523 7.57031 14 7.1226 14 6.57031C14 6.01803 13.5523 5.57031 13 5.57031C12.4477 5.57031 12 6.01803 12 6.57031C12 7.1226 12.4477 7.57031 13 7.57031Z" fill="#080A07"/>
<path d="M25.5357 20.5703H0.464286C0.341149 20.5703 0.223057 20.623 0.135986 20.7168C0.0489157 20.8105 0 20.9377 0 21.0703C0 21.2029 0.0489157 21.3301 0.135986 21.4239C0.223057 21.5176 0.341149 21.5703 0.464286 21.5703H25.5357C25.6588 21.5703 25.7769 21.5176 25.864 21.4239C25.9511 21.3301 26 21.2029 26 21.0703C26 20.9377 25.9511 20.8105 25.864 20.7168C25.7769 20.623 25.6588 20.5703 25.5357 20.5703Z" fill="#080A07"/>
<path d="M12.9998 8.57031C9.8986 8.57397 6.91883 9.7204 4.68276 11.7702C2.4467 13.8199 1.12726 16.6145 1 19.5703H25C24.8782 16.6127 23.5603 13.815 21.323 11.7641C19.0856 9.71327 16.1026 8.56862 12.9998 8.57031Z" fill="#080A07"/>
</g>
<defs>
<clipPath id="clip0_656_22982">
<rect width="26" height="26" fill="white" transform="translate(0 0.570312)"/>
</clipPath>
</defs>
</svg>
