<svg width="26" height="27" viewBox="0 0 26 27" fill="none" xmlns="http://www.w3.org/2000/svg">
<g clip-path="url(#clip0_656_22997)">
<g clip-path="url(#clip1_656_22997)">
<path d="M13 0.570312C5.832 0.570312 0 6.40181 0 13.5703C0 20.7388 5.832 26.5703 13 26.5703C20.168 26.5703 26 20.7388 26 13.5703C26 6.40181 20.168 0.570312 13 0.570312ZM19.25 14.5703H14V20.0703C14 20.6223 13.552 21.0703 13 21.0703C12.448 21.0703 12 20.6223 12 20.0703V14.5703H6.75C6.198 14.5703 5.75 14.1223 5.75 13.5703C5.75 13.0183 6.198 12.5703 6.75 12.5703H12V7.57031C12 7.01831 12.448 6.57031 13 6.57031C13.552 6.57031 14 7.01831 14 7.57031V12.5703H19.25C19.802 12.5703 20.25 13.0183 20.25 13.5703C20.25 14.1223 19.802 14.5703 19.25 14.5703Z" fill="#080A07"/>
</g>
</g>
<defs>
<clipPath id="clip0_656_22997">
<rect width="26" height="26" fill="white" transform="translate(0 0.570312)"/>
</clipPath>
<clipPath id="clip1_656_22997">
<rect width="26" height="26" fill="white" transform="translate(0 0.570312)"/>
</clipPath>
</defs>
</svg>
