<svg width="31" height="31" viewBox="0 0 31 31" fill="none" xmlns="http://www.w3.org/2000/svg">
<g clip-path="url(#clip0_656_22885)">
<path d="M25.9688 4.16209L28.1191 2.01172L30.6666 4.55943L28.5162 6.7098L25.9688 4.16209Z" fill="#BCC0B7"/>
<path d="M16.7476 15.9317L19.6052 15.6207L20.3351 14.8908L17.7881 12.3438L17.0582 13.0737L16.7476 15.9317Z" fill="#BCC0B7"/>
<path d="M19.0312 11.1007L24.7257 5.40625L27.2732 7.95351L21.5785 13.6479L19.0312 11.1007Z" fill="#BCC0B7"/>
<path d="M20.4112 17.3008L15.1666 17.8716H9.54539V16.1135H14.959L15.2263 13.6569H6.17072V11.8986H15.7459L21.9843 5.66016H4.17095C2.23848 5.66016 0.666504 7.23213 0.666504 9.16438V20.4163C0.666504 22.3488 2.23848 23.9208 4.17095 23.9208H5.11899V28.954L12.6367 23.9208H22.4245C24.3567 23.9208 25.9287 22.3488 25.9287 20.4163V11.7833L20.4112 17.3008ZM8.12425 17.8716H6.17072V16.1135H8.12425V17.8716Z" fill="#BCC0B7"/>
</g>
<defs>
<clipPath id="clip0_656_22885">
<rect width="30" height="30" fill="white" transform="translate(0.666504 0.429688)"/>
</clipPath>
</defs>
</svg>
