<svg width="31" height="31" viewBox="0 0 31 31" fill="none" xmlns="http://www.w3.org/2000/svg">
<path d="M25.6036 24.0047C24.9994 22.2065 22.5913 21.0809 20.8744 20.3264C20.2018 20.0318 18.3397 19.532 18.1159 18.6851C18.0358 18.38 18.0466 18.0923 18.1123 17.8166C18.0088 17.8364 17.9038 17.8481 17.7952 17.8481H16.6765C15.7834 17.8481 15.0577 17.1215 15.0577 16.229C15.0577 15.3371 15.7837 14.612 16.6765 14.612H17.7952C18.1648 14.612 18.5152 14.7371 18.7978 14.9603C19.2121 14.9051 19.6117 14.8166 19.9843 14.7005C20.4736 13.6754 20.8552 12.4496 20.9407 11.3945C21.3058 6.88011 18.5383 4.23891 14.5702 4.69551C11.6851 5.02761 9.96165 7.17891 9.77535 9.94851C9.58695 12.7715 10.6336 14.8565 11.7454 16.3859C12.2323 17.0546 12.7438 17.4845 12.6652 18.2903C12.574 19.2431 11.5552 19.5086 10.8265 19.8014C9.96315 20.1482 9.03315 20.6744 8.59395 20.9177C7.08105 21.7532 5.42055 22.7594 5.04735 24.1358C4.22085 27.1862 7.01205 28.1102 9.31635 28.5368C11.2939 28.9016 13.5238 28.9304 15.358 28.9304C18.6757 28.9304 24.6415 28.7975 25.6036 26.3036C25.8772 25.5959 25.7599 24.4682 25.6036 24.0047Z" fill="#BCC0B7"/>
<path d="M18.5035 15.7726C18.3517 15.5413 18.0922 15.3877 17.7961 15.3877H16.6774C16.2106 15.3877 15.8341 15.7648 15.8341 16.2292C15.8341 16.6954 16.2106 17.0731 16.6774 17.0731H17.7961C18.1228 17.0731 18.4 16.8868 18.5398 16.6174C20.0995 16.4947 21.4561 16.0183 22.4083 15.3148C22.627 15.4558 22.8856 15.5383 23.1646 15.5383H23.2348C24.0124 15.5383 24.6412 14.9089 24.6412 14.1304V11.32C24.6412 10.7602 24.313 10.2772 23.8396 10.0528C23.6332 5.53989 19.8973 1.92969 15.3337 1.92969C10.7701 1.92969 7.03358 5.53989 6.82808 10.0528C6.35378 10.2775 6.02588 10.7602 6.02588 11.32V14.1304C6.02588 14.9089 6.65528 15.5383 7.43108 15.5383H7.50218C8.27858 15.5383 8.90828 14.9089 8.90828 14.1304V11.32C8.90828 10.7683 8.58938 10.2925 8.12588 10.0624C8.32658 6.25989 11.482 3.22899 15.3337 3.22899C19.1839 3.22899 22.3408 6.25989 22.5406 10.0624C22.0777 10.2928 21.7591 10.7683 21.7591 11.32V14.1304C21.7591 14.317 21.7954 14.4907 21.8593 14.653C21.0397 15.2395 19.8466 15.6574 18.5035 15.7726Z" fill="#BCC0B7"/>
</svg>
