<svg width="406" height="265" viewBox="0 0 406 265" fill="none" xmlns="http://www.w3.org/2000/svg">
<path fill-rule="evenodd" clip-rule="evenodd" d="M20 0C8.95431 0 0 8.95431 0 20V265H49.7219C43.6354 260.357 40.9202 253.686 44.4345 246.486C44.5823 246.183 44.7412 245.879 44.9114 245.575C46.7829 242.222 50.0151 238.77 54.8915 235.367C56.2603 234.412 57.64 233.554 59.0277 232.792C57.5247 231.803 56.1316 230.753 54.8478 229.65C43.5262 219.924 40.702 206.094 45.8903 194.324C46.1397 193.758 46.3416 193.182 46.4968 192.599C47.5829 188.519 46.3798 184.108 43.1604 180.73C13.5233 149.618 39.0378 102.921 86.2489 101.996C89.283 101.933 92.038 100.47 93.4077 98.1698C104.531 79.4866 130.523 70.1659 154.373 77.1821C158.152 78.2929 162.398 77.2544 165.189 74.5348C173.811 66.1307 186.306 61.2554 199.476 61.1464C203.36 61.1155 207.209 61.5072 210.932 62.2935C212.749 59.1074 215.018 56.3078 217.628 53.8973C236.608 36.3653 273.614 39.4145 285.778 64.0137C287.234 66.958 290.462 68.8314 294.002 68.786C316.542 68.5017 335.556 82.5621 338.832 101.103C339.23 103.355 341.052 105.23 343.588 105.996C344.273 106.203 344.867 106.405 346.048 106.823C348.84 106.446 351.826 106.327 355.004 106.49C368.945 107.207 377.812 112.436 379.33 120.837C381.119 130.731 372.142 141.878 358.81 146.456C364.05 158.071 370.44 178.691 372.858 198.342C375.659 221.114 373.885 244.47 363.973 265H406V20C406 8.95431 397.046 0 386 0H20ZM278.473 265C280.934 264.264 283.465 263.624 286.067 263.087C283.44 263.623 280.892 264.262 278.422 265H278.473Z" fill="#346B04"/>
</svg>
