<svg width="26" height="27" viewBox="0 0 26 27" fill="none" xmlns="http://www.w3.org/2000/svg">
<g clip-path="url(#clip0_656_22931)">
<g clip-path="url(#clip1_656_22931)">
<path d="M6.50021 0.855469C3.62396 0.855469 1.39307 4.59901 1.39307 7.81976C1.39307 10.9221 3.39739 12.9269 6.50021 12.9269C9.60303 12.9269 11.6074 10.9221 11.6074 7.81976C11.6074 4.59901 9.37878 0.855469 6.50021 0.855469Z" fill="#080A07"/>
<path d="M6.50035 13.8561C6.18981 13.8545 5.87968 13.8334 5.57178 13.793V15.7133H7.42892V13.793C7.12102 13.8334 6.81089 13.8545 6.50035 13.8561Z" fill="#080A07"/>
<path d="M7.893 16.6406H5.10728C4.59445 16.6406 4.17871 17.0564 4.17871 17.5692V25.4621C4.17871 26.2313 4.80231 26.8549 5.57157 26.8549H7.42871C8.19796 26.8549 8.82157 26.2313 8.82157 25.4621V17.5692C8.82157 17.0564 8.40583 16.6406 7.893 16.6406Z" fill="#080A07"/>
<path d="M23.9109 1.78404C23.5263 1.78404 23.2145 2.09584 23.2145 2.48047V6.89118C23.2145 7.66044 22.5909 8.28404 21.8216 8.28404C21.0524 8.28404 20.4288 7.66044 20.4288 6.89118V1.78404C20.4288 1.2712 20.013 0.855469 19.5002 0.855469C18.9874 0.855469 18.5716 1.2712 18.5716 1.78404V6.89118C18.5716 7.66044 17.948 8.28404 17.1788 8.28404C16.4095 8.28404 15.7859 7.66044 15.7859 6.89118V2.48047C15.7859 2.09584 15.4741 1.78404 15.0895 1.78404C14.7049 1.78404 14.3931 2.09584 14.3931 2.48047V7.81975C14.3931 10.9221 16.3974 12.9269 19.5002 12.9269C22.603 12.9269 24.6074 10.9221 24.6074 7.81975V2.48047C24.6074 2.09584 24.2956 1.78404 23.9109 1.78404Z" fill="#080A07"/>
<path d="M19.5003 13.8561C19.1898 13.8545 18.8797 13.8334 18.5718 13.793V15.7133H20.4289V13.793C20.121 13.8334 19.8109 13.8545 19.5003 13.8561Z" fill="#080A07"/>
<path d="M20.893 16.6406H18.1073C17.5944 16.6406 17.1787 17.0564 17.1787 17.5692V25.4621C17.1787 26.2313 17.8023 26.8549 18.5716 26.8549H20.4287C21.198 26.8549 21.8216 26.2313 21.8216 25.4621V17.5692C21.8216 17.0564 21.4058 16.6406 20.893 16.6406Z" fill="#080A07"/>
</g>
</g>
<defs>
<clipPath id="clip0_656_22931">
<rect width="26" height="26" fill="white" transform="translate(0 0.855469)"/>
</clipPath>
<clipPath id="clip1_656_22931">
<rect width="26" height="26" fill="white" transform="translate(0 0.855469)"/>
</clipPath>
</defs>
</svg>
