<svg width="16" height="17" viewBox="0 0 16 17" fill="none" xmlns="http://www.w3.org/2000/svg">
<g clip-path="url(#clip0_656_18401)">
<path d="M8 16.5C3.58867 16.5 0 12.9113 0 8.5C0 4.08867 3.58867 0.5 8 0.5C12.4113 0.5 16 4.08867 16 8.5C16 12.9113 12.4113 16.5 8 16.5ZM8 1.16667C3.95667 1.16667 0.666667 4.45667 0.666667 8.5C0.666667 12.5433 3.95667 15.8333 8 15.8333C12.0433 15.8333 15.3333 12.5433 15.3333 8.5C15.3333 4.45667 12.0433 1.16667 8 1.16667Z" fill="#5B6354"/>
<path d="M11.6667 12.5013C11.5813 12.5013 11.496 12.4686 11.4307 12.404L7.764 8.7373C7.702 8.67464 7.66666 8.58997 7.66666 8.5013V3.5013C7.66666 3.3173 7.816 3.16797 8 3.16797C8.184 3.16797 8.33333 3.3173 8.33333 3.5013V8.3633L11.9027 11.9326C12.0327 12.0626 12.0327 12.274 11.9027 12.404C11.8373 12.4686 11.752 12.5013 11.6667 12.5013Z" fill="#5B6354"/>
</g>
<defs>
<clipPath id="clip0_656_18401">
<rect width="16" height="16" fill="white" transform="translate(0 0.5)"/>
</clipPath>
</defs>
</svg>
