<svg width="26" height="27" viewBox="0 0 26 27" fill="none" xmlns="http://www.w3.org/2000/svg">
<g clip-path="url(#clip0_656_22968)">
<g clip-path="url(#clip1_656_22968)">
<path d="M25.6108 19.915L16.2989 3.97234C15.674 2.72278 14.3971 1.93359 13.0001 1.93359C11.6031 1.93359 10.3261 2.72278 9.70126 3.97234L0.389397 19.915C-0.1823 21.0582 -0.121182 22.4161 0.550925 23.5033C1.22283 24.5905 2.40988 25.2525 3.68822 25.2525H22.3119C23.5901 25.2525 24.7773 24.5905 25.4492 23.5033C26.1213 22.4161 26.1823 21.0582 25.6108 19.915ZM13.0001 23.0102C12.0095 23.0102 11.2062 22.2071 11.2062 21.2165C11.2062 20.2259 12.0095 19.4228 13.0001 19.4228C13.9907 19.4228 14.7937 20.2259 14.7937 21.2165C14.7937 22.2071 13.9907 23.0102 13.0001 23.0102ZM14.7937 15.8353C14.7937 16.8259 13.9907 17.629 13.0001 17.629C12.0095 17.629 11.2062 16.8259 11.2062 15.8353V7.31481C11.2062 6.32421 12.0095 5.52114 13.0001 5.52114C13.9907 5.52114 14.7937 6.32421 14.7937 7.31481V15.8353Z" fill="#080A07"/>
</g>
</g>
<defs>
<clipPath id="clip0_656_22968">
<rect width="26" height="26" fill="white" transform="translate(0 0.570312)"/>
</clipPath>
<clipPath id="clip1_656_22968">
<rect width="26" height="26" fill="white" transform="translate(0 0.570312)"/>
</clipPath>
</defs>
</svg>
