<svg width="19" height="21" viewBox="0 0 19 21" fill="none" xmlns="http://www.w3.org/2000/svg">
<path d="M2.78271 20.0156C2.90636 20.0913 3.04609 20.1291 3.18739 20.1249C3.3287 20.1208 3.46642 20.0749 3.58625 19.992L9.5 15.9066L15.4137 19.992C15.5336 20.0748 15.6713 20.1206 15.8126 20.1247C15.9538 20.1288 16.0935 20.091 16.2171 20.0153C16.3407 19.9396 16.4437 19.8287 16.5154 19.6941C16.5872 19.5595 16.625 19.4062 16.625 19.25V3.5C16.625 2.80381 16.3748 2.13613 15.9294 1.64384C15.484 1.15156 14.8799 0.875 14.25 0.875H4.75C4.12011 0.875 3.51602 1.15156 3.07062 1.64384C2.62522 2.13613 2.375 2.80381 2.375 3.5V19.25C2.37493 19.4062 2.41271 19.5596 2.4844 19.6943C2.5561 19.8289 2.6591 19.9399 2.78271 20.0156ZM3.95833 3.5C3.95833 3.26794 4.04174 3.04538 4.19021 2.88128C4.33867 2.71719 4.54004 2.625 4.75 2.625H14.25C14.46 2.625 14.6613 2.71719 14.8098 2.88128C14.9583 3.04538 15.0417 3.26794 15.0417 3.5V17.675L9.91958 14.1365C9.79376 14.0496 9.64837 14.0035 9.5 14.0035C9.35163 14.0035 9.20624 14.0496 9.08042 14.1365L3.95833 17.675V3.5Z" fill="white"/>
</svg>
