<svg width="61" height="61" viewBox="0 0 61 61" fill="none" xmlns="http://www.w3.org/2000/svg">
<circle cx="30.5" cy="30.5" r="30.5" fill="url(#paint0_linear_616_48162)"/>
<g clip-path="url(#clip0_616_48162)">
<path d="M46.9499 12.0121C46.5513 11.8533 46.0964 11.9531 45.8012 12.2643C43.6997 14.4794 42.0606 17.0406 40.9293 19.8767C40.7371 20.3586 40.5623 20.8452 40.4023 21.3355C37.8567 18.1294 33.9649 16.2107 29.791 16.2107C27.1381 16.2107 24.5728 16.9828 22.384 18.4143V12.9856C22.384 12.4068 21.9148 11.9375 21.3359 11.9375C20.7571 11.9375 20.2878 12.4068 20.2878 12.9856V20.3228H18.1913V12.9856C18.1913 12.4068 17.722 11.9375 17.1432 11.9375C16.5643 11.9375 16.095 12.4068 16.095 12.9856V20.3228H13.9987V12.9856C13.9987 12.4068 13.5294 11.9375 12.9505 11.9375C12.3717 11.9375 11.9023 12.4068 11.9023 12.9856V21.3709V23.4673C11.9023 24.8337 12.7787 25.9988 13.9987 26.4315V44.4305C13.9987 46.1644 15.4093 47.5749 17.1432 47.5749C18.877 47.5749 20.2876 46.1643 20.2876 44.4305V39.4087C22.7966 41.8816 26.1906 43.3016 29.7909 43.3016C34.5455 43.3016 38.8884 40.8044 41.3207 36.8699V44.4305C41.3207 46.1644 42.7314 47.5749 44.4652 47.5749C46.1991 47.5749 47.6097 46.1643 47.6097 44.4305V12.9856C47.6097 12.5567 47.3483 12.1711 46.9499 12.0121ZM18.1913 44.4305C18.1913 45.0084 17.7211 45.4786 17.1432 45.4786C16.5652 45.4786 16.095 45.0084 16.095 44.4305V26.6117H18.1914L18.1913 44.4305ZM19.2395 24.5154H15.0468C14.4689 24.5154 13.9987 24.0452 13.9987 23.4673V22.4191H20.2876V23.4673C20.2876 24.0452 19.8174 24.5154 19.2395 24.5154ZM29.7909 41.3666C25.995 41.3666 22.4656 39.5254 20.2876 36.4267V26.4315C21.5076 25.9988 22.384 24.8337 22.384 23.4673V20.8152C24.4639 19.0902 27.0738 18.1458 29.7909 18.1458C33.8779 18.1458 37.6489 20.2927 39.7455 23.7788C39.3996 25.407 39.2244 27.0694 39.2244 28.7523V33.9489C39.2244 34.4889 39.6328 34.9332 40.1575 34.9904C38.2034 38.8566 34.2043 41.3666 29.7909 41.3666ZM45.5133 44.4305C45.5133 45.0084 45.0431 45.4786 44.4652 45.4786C43.8872 45.4786 43.417 45.0084 43.417 44.4305V33.9488C43.417 33.37 42.9478 32.9007 42.3689 32.9007H41.3208V28.7523C41.3208 24.0784 42.7936 19.5973 45.5134 15.8752L45.5133 44.4305Z" fill="white"/>
<path opacity="0.7" d="M29.7877 22.5C25.7865 22.5 22.5312 25.7552 22.5312 29.7565C22.5312 33.7577 25.7865 37.0129 29.7877 37.0129C33.789 37.0129 37.0442 33.7577 37.0442 29.7565C37.0442 25.7552 33.789 22.5 29.7877 22.5ZM29.7877 35.0779C26.8535 35.0779 24.4663 32.6907 24.4663 29.7565C24.4663 26.8223 26.8535 24.435 29.7877 24.435C32.7219 24.435 35.1092 26.8223 35.1092 29.7565C35.1092 32.6907 32.7219 35.0779 29.7877 35.0779Z" fill="white"/>
</g>
<defs>
<linearGradient id="paint0_linear_616_48162" x1="65.7387" y1="74.1911" x2="23.7065" y2="15.6433" gradientUnits="userSpaceOnUse">
<stop stop-color="#EE7301"/>
<stop offset="1" stop-color="#FFA552"/>
</linearGradient>
<clipPath id="clip0_616_48162">
<rect width="35.7073" height="35.7073" fill="white" transform="translate(11.9023 11.9023)"/>
</clipPath>
</defs>
</svg>
