<svg width="517" height="299" viewBox="0 0 517 299" fill="none" xmlns="http://www.w3.org/2000/svg">
<rect width="411" height="40" fill="white"/>
<rect x="421" width="1" height="40" fill="#BCC0B7"/>
<path d="M435.42 18.706C435.048 18.706 434.694 18.64 434.358 18.508C434.034 18.376 433.752 18.196 433.512 17.968C433.272 17.728 433.08 17.452 432.936 17.14C432.792 16.828 432.72 16.492 432.72 16.132C432.72 15.772 432.792 15.436 432.936 15.124C433.08 14.812 433.272 14.542 433.512 14.314C433.752 14.074 434.034 13.888 434.358 13.756C434.694 13.612 435.048 13.54 435.42 13.54C435.792 13.54 436.14 13.612 436.464 13.756C436.788 13.888 437.07 14.074 437.31 14.314C437.562 14.542 437.754 14.812 437.886 15.124C438.03 15.436 438.102 15.772 438.102 16.132C438.102 16.492 438.03 16.828 437.886 17.14C437.754 17.452 437.562 17.728 437.31 17.968C437.07 18.196 436.788 18.376 436.464 18.508C436.14 18.64 435.792 18.706 435.42 18.706ZM435.42 18.004C435.66 18.004 435.888 17.956 436.104 17.86C436.32 17.752 436.506 17.614 436.662 17.446C436.83 17.266 436.956 17.068 437.04 16.852C437.136 16.624 437.184 16.384 437.184 16.132C437.184 15.868 437.136 15.622 437.04 15.394C436.944 15.166 436.812 14.968 436.644 14.8C436.488 14.632 436.302 14.5 436.086 14.404C435.87 14.308 435.648 14.26 435.42 14.26C435.168 14.26 434.934 14.314 434.718 14.422C434.502 14.518 434.31 14.656 434.142 14.836C433.986 15.004 433.86 15.202 433.764 15.43C433.68 15.646 433.638 15.88 433.638 16.132C433.638 16.384 433.686 16.624 433.782 16.852C433.878 17.08 434.004 17.284 434.16 17.464C434.328 17.632 434.52 17.764 434.736 17.86C434.952 17.956 435.18 18.004 435.42 18.004ZM441.45 26.68C441.078 26.68 440.73 26.614 440.406 26.482C440.082 26.35 439.794 26.17 439.542 25.942C439.302 25.702 439.11 25.426 438.966 25.114C438.834 24.79 438.768 24.448 438.768 24.088C438.768 23.728 438.834 23.392 438.966 23.08C439.11 22.768 439.302 22.498 439.542 22.27C439.794 22.03 440.082 21.844 440.406 21.712C440.73 21.58 441.078 21.514 441.45 21.514C441.822 21.514 442.17 21.58 442.494 21.712C442.83 21.844 443.118 22.03 443.358 22.27C443.598 22.498 443.79 22.768 443.934 23.08C444.078 23.392 444.15 23.728 444.15 24.088C444.15 24.448 444.078 24.79 443.934 25.114C443.79 25.426 443.598 25.702 443.358 25.942C443.118 26.17 442.83 26.35 442.494 26.482C442.17 26.614 441.822 26.68 441.45 26.68ZM441.45 25.96C441.702 25.96 441.93 25.912 442.134 25.816C442.35 25.708 442.536 25.57 442.692 25.402C442.86 25.234 442.986 25.036 443.07 24.808C443.166 24.58 443.214 24.34 443.214 24.088C443.214 23.836 443.166 23.596 443.07 23.368C442.974 23.14 442.842 22.942 442.674 22.774C442.518 22.594 442.332 22.456 442.116 22.36C441.9 22.264 441.678 22.216 441.45 22.216C441.21 22.216 440.982 22.27 440.766 22.378C440.55 22.474 440.358 22.612 440.19 22.792C440.034 22.96 439.908 23.158 439.812 23.386C439.728 23.602 439.686 23.836 439.686 24.088C439.686 24.352 439.734 24.598 439.83 24.826C439.926 25.054 440.052 25.252 440.208 25.42C440.376 25.588 440.562 25.72 440.766 25.816C440.982 25.912 441.21 25.96 441.45 25.96ZM433.17 26.014L438.192 19.894L443.088 13.648L443.718 14.188L438.696 20.308L433.782 26.572L433.17 26.014ZM454.784 26.68C454.1 26.68 453.476 26.554 452.912 26.302C452.348 26.038 451.856 25.684 451.436 25.24C451.028 24.796 450.71 24.28 450.482 23.692C450.254 23.104 450.14 22.486 450.14 21.838C450.14 21.178 450.254 20.554 450.482 19.966C450.722 19.378 451.046 18.862 451.454 18.418C451.874 17.974 452.366 17.62 452.93 17.356C453.494 17.092 454.112 16.96 454.784 16.96C455.456 16.96 456.074 17.092 456.638 17.356C457.214 17.62 457.706 17.974 458.114 18.418C458.534 18.862 458.858 19.378 459.086 19.966C459.326 20.554 459.446 21.178 459.446 21.838C459.446 22.486 459.332 23.104 459.104 23.692C458.876 24.28 458.552 24.796 458.132 25.24C457.724 25.684 457.232 26.038 456.656 26.302C456.092 26.554 455.468 26.68 454.784 26.68ZM451.382 21.856C451.382 22.384 451.472 22.876 451.652 23.332C451.832 23.776 452.072 24.172 452.372 24.52C452.684 24.856 453.044 25.12 453.452 25.312C453.872 25.504 454.316 25.6 454.784 25.6C455.252 25.6 455.69 25.504 456.098 25.312C456.518 25.108 456.884 24.838 457.196 24.502C457.508 24.154 457.754 23.752 457.934 23.296C458.114 22.84 458.204 22.348 458.204 21.82C458.204 21.304 458.114 20.818 457.934 20.362C457.754 19.894 457.508 19.492 457.196 19.156C456.884 18.808 456.518 18.538 456.098 18.346C455.69 18.142 455.252 18.04 454.784 18.04C454.316 18.04 453.878 18.142 453.47 18.346C453.062 18.538 452.702 18.808 452.39 19.156C452.078 19.504 451.832 19.912 451.652 20.38C451.472 20.836 451.382 21.328 451.382 21.856ZM464.546 26.5H463.358V18.184H460.064V17.122H467.84V18.184H464.546V26.5ZM474.419 26.5V13.72H479.711C480.263 13.72 480.767 13.84 481.223 14.08C481.691 14.308 482.093 14.614 482.429 14.998C482.765 15.37 483.029 15.796 483.221 16.276C483.413 16.756 483.509 17.242 483.509 17.734C483.509 18.262 483.419 18.772 483.239 19.264C483.059 19.744 482.807 20.17 482.483 20.542C482.159 20.914 481.769 21.214 481.313 21.442C480.869 21.67 480.371 21.784 479.819 21.784H475.679V26.5H474.419ZM475.679 20.668H479.765C480.137 20.668 480.473 20.59 480.773 20.434C481.085 20.266 481.349 20.05 481.565 19.786C481.781 19.51 481.949 19.198 482.069 18.85C482.189 18.49 482.249 18.118 482.249 17.734C482.249 17.338 482.177 16.966 482.033 16.618C481.901 16.258 481.715 15.946 481.475 15.682C481.247 15.418 480.971 15.214 480.647 15.07C480.335 14.914 480.005 14.836 479.657 14.836H475.679V20.668ZM484.77 20.02C484.77 19.252 484.902 18.49 485.166 17.734C485.442 16.966 485.838 16.282 486.354 15.682C486.87 15.082 487.506 14.596 488.262 14.224C489.018 13.84 489.876 13.648 490.836 13.648C491.976 13.648 492.948 13.906 493.752 14.422C494.568 14.938 495.168 15.61 495.552 16.438L494.562 17.05C494.358 16.63 494.106 16.276 493.806 15.988C493.518 15.7 493.206 15.466 492.87 15.286C492.534 15.106 492.186 14.98 491.826 14.908C491.466 14.824 491.112 14.782 490.764 14.782C489.996 14.782 489.318 14.938 488.73 15.25C488.142 15.562 487.644 15.97 487.236 16.474C486.84 16.978 486.54 17.548 486.336 18.184C486.132 18.808 486.03 19.444 486.03 20.092C486.03 20.8 486.15 21.478 486.39 22.126C486.642 22.774 486.978 23.35 487.398 23.854C487.83 24.346 488.334 24.742 488.91 25.042C489.498 25.33 490.134 25.474 490.818 25.474C491.178 25.474 491.544 25.432 491.916 25.348C492.3 25.252 492.666 25.108 493.014 24.916C493.374 24.712 493.704 24.466 494.004 24.178C494.304 23.878 494.556 23.518 494.76 23.098L495.804 23.638C495.6 24.118 495.312 24.544 494.94 24.916C494.568 25.276 494.154 25.582 493.698 25.834C493.242 26.086 492.756 26.278 492.24 26.41C491.736 26.542 491.238 26.608 490.746 26.608C489.87 26.608 489.066 26.416 488.334 26.032C487.602 25.648 486.972 25.15 486.444 24.538C485.916 23.914 485.502 23.212 485.202 22.432C484.914 21.64 484.77 20.836 484.77 20.02ZM497.992 13.72H507.856V26.5H506.596V14.836H499.234V26.5H497.992V13.72Z" fill="#080A07"/>
<rect y="40" width="517" height="1" fill="#BCC0B7"/>
<rect y="56.5" width="18" height="18" rx="9" fill="#4100CA"/>
<path d="M31.186 64.782H32.806L37 59.22H38.854L34.3 65.394L39.268 72H37.414L32.986 66.222H31.186V72H29.566V59.22H31.186V64.782ZM42.9048 72.18C42.4608 72.18 42.0468 72.108 41.6628 71.964C41.2788 71.808 40.9428 71.598 40.6548 71.334C40.3788 71.07 40.1568 70.764 39.9888 70.416C39.8328 70.056 39.7548 69.666 39.7548 69.246C39.7548 68.814 39.8508 68.424 40.0428 68.076C40.2348 67.716 40.5048 67.41 40.8528 67.158C41.2128 66.906 41.6328 66.708 42.1128 66.564C42.6048 66.42 43.1388 66.348 43.7148 66.348C44.1708 66.348 44.6328 66.39 45.1008 66.474C45.5688 66.558 45.9828 66.672 46.3428 66.816V66.06C46.3428 65.292 46.1268 64.692 45.6948 64.26C45.2628 63.816 44.6508 63.594 43.8588 63.594C42.9108 63.594 41.9148 63.96 40.8708 64.692L40.3488 63.666C41.5608 62.85 42.7788 62.442 44.0028 62.442C45.2388 62.442 46.1988 62.772 46.8828 63.432C47.5788 64.092 47.9268 65.022 47.9268 66.222V70.056C47.9268 70.428 48.0948 70.62 48.4308 70.632V72C48.2628 72.024 48.1248 72.042 48.0168 72.054C47.9088 72.066 47.7948 72.072 47.6748 72.072C47.3628 72.072 47.1108 71.982 46.9188 71.802C46.7388 71.61 46.6308 71.382 46.5948 71.118L46.5588 70.452C46.1388 71.016 45.6048 71.448 44.9568 71.748C44.3208 72.036 43.6368 72.18 42.9048 72.18ZM43.3188 70.992C43.8828 70.992 44.4048 70.89 44.8848 70.686C45.3768 70.47 45.7488 70.188 46.0008 69.84C46.2288 69.612 46.3428 69.378 46.3428 69.138V67.752C45.5748 67.452 44.7768 67.302 43.9488 67.302C43.1568 67.302 42.5088 67.47 42.0048 67.806C41.5128 68.142 41.2668 68.58 41.2668 69.12C41.2668 69.384 41.3148 69.63 41.4108 69.858C41.5188 70.086 41.6628 70.284 41.8428 70.452C42.0348 70.62 42.2568 70.752 42.5088 70.848C42.7608 70.944 43.0308 70.992 43.3188 70.992ZM49.2712 70.704C49.6552 70.668 49.9732 70.578 50.2252 70.434C50.4892 70.278 50.7052 70.008 50.8732 69.624C51.0532 69.228 51.2032 68.682 51.3232 67.986C51.4432 67.278 51.5632 66.36 51.6832 65.232L51.9712 62.604H57.8212V72H56.2732V63.846H53.4292L53.1592 65.88C52.9912 67.104 52.8112 68.112 52.6192 68.904C52.4392 69.684 52.2112 70.308 51.9352 70.776C51.6592 71.232 51.3292 71.556 50.9452 71.748C50.5612 71.94 50.0932 72.054 49.5412 72.09L49.2712 70.704ZM64.5129 72.18C63.8049 72.18 63.1569 72.048 62.5689 71.784C61.9929 71.52 61.4949 71.166 61.0749 70.722C60.6669 70.278 60.3489 69.762 60.1209 69.174C59.8929 68.586 59.7789 67.968 59.7789 67.32C59.7789 66.66 59.8929 66.036 60.1209 65.448C60.3609 64.86 60.6849 64.344 61.0929 63.9C61.5129 63.456 62.0109 63.102 62.5869 62.838C63.1749 62.574 63.8169 62.442 64.5129 62.442C65.2089 62.442 65.8509 62.574 66.4389 62.838C67.0269 63.102 67.5249 63.456 67.9329 63.9C68.3529 64.344 68.6769 64.86 68.9049 65.448C69.1449 66.036 69.2649 66.66 69.2649 67.32C69.2649 67.968 69.1509 68.586 68.9229 69.174C68.6949 69.762 68.3709 70.278 67.9509 70.722C67.5309 71.166 67.0269 71.52 66.4389 71.784C65.8629 72.048 65.2209 72.18 64.5129 72.18ZM61.3989 67.338C61.3989 67.83 61.4769 68.286 61.6329 68.706C61.8009 69.126 62.0229 69.492 62.2989 69.804C62.5869 70.116 62.9169 70.362 63.2889 70.542C63.6729 70.722 64.0809 70.812 64.5129 70.812C64.9449 70.812 65.3469 70.722 65.7189 70.542C66.1029 70.362 66.4389 70.116 66.7269 69.804C67.0149 69.48 67.2369 69.108 67.3929 68.688C67.5609 68.256 67.6449 67.794 67.6449 67.302C67.6449 66.822 67.5609 66.372 67.3929 65.952C67.2369 65.52 67.0149 65.148 66.7269 64.836C66.4389 64.512 66.1029 64.26 65.7189 64.08C65.3469 63.9 64.9449 63.81 64.5129 63.81C64.0809 63.81 63.6729 63.906 63.2889 64.098C62.9169 64.278 62.5869 64.53 62.2989 64.854C62.0229 65.166 61.8009 65.538 61.6329 65.97C61.4769 66.39 61.3989 66.846 61.3989 67.338ZM76.2783 72.18C75.4983 72.18 74.8083 71.988 74.2083 71.604C73.6203 71.22 73.1523 70.734 72.8043 70.146V75.834H71.2203V62.604H72.6243V64.368C72.9963 63.792 73.4763 63.33 74.0643 62.982C74.6643 62.622 75.3243 62.442 76.0443 62.442C76.6923 62.442 77.2863 62.574 77.8263 62.838C78.3663 63.102 78.8343 63.462 79.2303 63.918C79.6263 64.362 79.9323 64.878 80.1483 65.466C80.3763 66.054 80.4902 66.666 80.4902 67.302C80.4902 67.974 80.3883 68.61 80.1843 69.21C79.9803 69.798 79.6923 70.314 79.3203 70.758C78.9483 71.19 78.5043 71.538 77.9883 71.802C77.4723 72.054 76.9023 72.18 76.2783 72.18ZM75.7923 70.812C76.2603 70.812 76.6803 70.716 77.0523 70.524C77.4363 70.32 77.7603 70.056 78.0243 69.732C78.3003 69.396 78.5103 69.018 78.6543 68.598C78.7983 68.178 78.8703 67.746 78.8703 67.302C78.8703 66.834 78.7863 66.39 78.6183 65.97C78.4503 65.538 78.2223 65.166 77.9343 64.854C77.6463 64.53 77.3043 64.278 76.9083 64.098C76.5243 63.906 76.1043 63.81 75.6483 63.81C75.3603 63.81 75.0603 63.87 74.7483 63.99C74.4483 64.098 74.1603 64.248 73.8843 64.44C73.6203 64.62 73.3863 64.842 73.1823 65.106C72.9903 65.358 72.8643 65.628 72.8043 65.916V68.598C72.9363 68.91 73.1043 69.204 73.3083 69.48C73.5123 69.744 73.7463 69.978 74.0103 70.182C74.2743 70.374 74.5563 70.53 74.8563 70.65C75.1563 70.758 75.4683 70.812 75.7923 70.812ZM84.0183 69.768L89.1303 62.604H90.4082V72H88.8603V64.98L83.8383 72H82.4703V62.604H84.0183V69.768ZM99.9823 58.86C99.9343 59.532 99.6643 60.036 99.1723 60.372C98.6803 60.696 98.0323 60.858 97.2283 60.858C96.4243 60.858 95.7763 60.696 95.2843 60.372C94.7923 60.036 94.5223 59.532 94.4743 58.86H95.4283C95.4523 59.352 95.6203 59.682 95.9323 59.85C96.2563 60.006 96.6883 60.084 97.2283 60.084C97.7683 60.084 98.1943 60.006 98.5063 59.85C98.8303 59.682 99.0043 59.352 99.0283 58.86H99.9823ZM94.6003 69.768L99.7123 62.604H100.99V72H99.4423V64.98L94.4203 72H93.0523V62.604H94.6003V69.768ZM105.165 66.51H109.917V62.604H111.465V72H109.917V67.824H105.165V72H103.617V62.604H105.165V66.51ZM118.161 72.18C117.453 72.18 116.805 72.048 116.217 71.784C115.641 71.52 115.143 71.166 114.723 70.722C114.315 70.278 113.997 69.762 113.769 69.174C113.541 68.586 113.427 67.968 113.427 67.32C113.427 66.66 113.541 66.036 113.769 65.448C114.009 64.86 114.333 64.344 114.741 63.9C115.161 63.456 115.659 63.102 116.235 62.838C116.823 62.574 117.465 62.442 118.161 62.442C118.857 62.442 119.499 62.574 120.087 62.838C120.675 63.102 121.173 63.456 121.581 63.9C122.001 64.344 122.325 64.86 122.553 65.448C122.793 66.036 122.913 66.66 122.913 67.32C122.913 67.968 122.799 68.586 122.571 69.174C122.343 69.762 122.019 70.278 121.599 70.722C121.179 71.166 120.675 71.52 120.087 71.784C119.511 72.048 118.869 72.18 118.161 72.18ZM115.047 67.338C115.047 67.83 115.125 68.286 115.281 68.706C115.449 69.126 115.671 69.492 115.947 69.804C116.235 70.116 116.565 70.362 116.937 70.542C117.321 70.722 117.729 70.812 118.161 70.812C118.593 70.812 118.995 70.722 119.367 70.542C119.751 70.362 120.087 70.116 120.375 69.804C120.663 69.48 120.885 69.108 121.041 68.688C121.209 68.256 121.293 67.794 121.293 67.302C121.293 66.822 121.209 66.372 121.041 65.952C120.885 65.52 120.663 65.148 120.375 64.836C120.087 64.512 119.751 64.26 119.367 64.08C118.995 63.9 118.593 63.81 118.161 63.81C117.729 63.81 117.321 63.906 116.937 64.098C116.565 64.278 116.235 64.53 115.947 64.854C115.671 65.166 115.449 65.538 115.281 65.97C115.125 66.39 115.047 66.846 115.047 67.338ZM124.203 67.284C124.203 66.624 124.317 66 124.545 65.412C124.773 64.824 125.097 64.314 125.517 63.882C125.937 63.438 126.435 63.09 127.011 62.838C127.599 62.574 128.253 62.442 128.973 62.442C129.909 62.442 130.713 62.652 131.385 63.072C132.069 63.48 132.585 64.032 132.933 64.728L131.385 65.214C131.145 64.77 130.809 64.428 130.377 64.188C129.945 63.936 129.465 63.81 128.937 63.81C128.505 63.81 128.097 63.9 127.713 64.08C127.329 64.248 126.999 64.488 126.723 64.8C126.447 65.112 126.225 65.478 126.057 65.898C125.901 66.318 125.823 66.78 125.823 67.284C125.823 67.776 125.907 68.238 126.075 68.67C126.243 69.102 126.465 69.48 126.741 69.804C127.029 70.116 127.359 70.362 127.731 70.542C128.115 70.722 128.523 70.812 128.955 70.812C129.231 70.812 129.501 70.776 129.765 70.704C130.041 70.62 130.287 70.512 130.503 70.38C130.731 70.248 130.929 70.098 131.097 69.93C131.265 69.75 131.385 69.558 131.457 69.354L133.005 69.822C132.861 70.17 132.657 70.488 132.393 70.776C132.141 71.064 131.841 71.31 131.493 71.514C131.145 71.718 130.755 71.88 130.323 72C129.903 72.12 129.459 72.18 128.991 72.18C128.283 72.18 127.635 72.048 127.047 71.784C126.459 71.52 125.955 71.166 125.535 70.722C125.115 70.278 124.785 69.762 124.545 69.174C124.317 68.574 124.203 67.944 124.203 67.284ZM138.597 72H137.049V63.972H133.899V62.604H141.747V63.972H138.597V72ZM143.431 62.604H144.979V65.844H146.761C147.169 65.844 147.565 65.91 147.949 66.042C148.345 66.162 148.693 66.354 148.993 66.618C149.305 66.87 149.557 67.194 149.749 67.59C149.941 67.974 150.037 68.43 150.037 68.958C150.037 69.486 149.941 69.942 149.749 70.326C149.557 70.71 149.305 71.028 148.993 71.28C148.693 71.52 148.345 71.7 147.949 71.82C147.553 71.94 147.151 72 146.743 72H143.431V62.604ZM146.743 70.668C147.259 70.668 147.673 70.53 147.985 70.254C148.309 69.966 148.471 69.534 148.471 68.958C148.471 68.37 148.297 67.926 147.949 67.626C147.613 67.326 147.217 67.176 146.761 67.176H144.979V70.668H146.743Z" fill="#080A07"/>
<path d="M388.864 72V71.748C388.864 70.956 388.942 70.272 389.098 69.696C389.254 69.108 389.476 68.598 389.764 68.166C390.064 67.722 390.43 67.344 390.862 67.032C391.294 66.708 391.786 66.414 392.338 66.15C392.746 65.958 393.172 65.772 393.616 65.592C394.06 65.412 394.468 65.202 394.84 64.962C395.212 64.71 395.518 64.41 395.758 64.062C395.998 63.714 396.118 63.276 396.118 62.748C396.118 62.412 396.058 62.094 395.938 61.794C395.83 61.482 395.662 61.212 395.434 60.984C395.218 60.744 394.936 60.558 394.588 60.426C394.24 60.282 393.832 60.21 393.364 60.21C392.896 60.21 392.47 60.276 392.086 60.408C391.714 60.528 391.378 60.678 391.078 60.858C390.79 61.038 390.538 61.236 390.322 61.452C390.106 61.668 389.926 61.866 389.782 62.046L388.972 61.254C389.044 61.17 389.188 61.008 389.404 60.768C389.632 60.528 389.932 60.282 390.304 60.03C390.688 59.778 391.144 59.556 391.672 59.364C392.2 59.16 392.806 59.058 393.49 59.058C394.15 59.058 394.726 59.16 395.218 59.364C395.722 59.556 396.136 59.82 396.46 60.156C396.796 60.492 397.048 60.882 397.216 61.326C397.384 61.77 397.468 62.238 397.468 62.73C397.468 63.342 397.348 63.87 397.108 64.314C396.88 64.746 396.58 65.118 396.208 65.43C395.836 65.742 395.422 66.006 394.966 66.222C394.51 66.438 394.06 66.642 393.616 66.834C392.944 67.122 392.386 67.422 391.942 67.734C391.51 68.034 391.162 68.352 390.898 68.688C390.634 69.024 390.448 69.378 390.34 69.75C390.244 70.11 390.196 70.488 390.196 70.884H397.486V72H388.864ZM410.139 63.558H405.621V72H404.415V62.622H410.139V63.558Z" fill="#080A07"/>
<rect x="421" y="41" width="1" height="49" fill="#BCC0B7"/>
<path d="M432.864 72V71.748C432.864 70.956 432.942 70.272 433.098 69.696C433.254 69.108 433.476 68.598 433.764 68.166C434.064 67.722 434.43 67.344 434.862 67.032C435.294 66.708 435.786 66.414 436.338 66.15C436.746 65.958 437.172 65.772 437.616 65.592C438.06 65.412 438.468 65.202 438.84 64.962C439.212 64.71 439.518 64.41 439.758 64.062C439.998 63.714 440.118 63.276 440.118 62.748C440.118 62.412 440.058 62.094 439.938 61.794C439.83 61.482 439.662 61.212 439.434 60.984C439.218 60.744 438.936 60.558 438.588 60.426C438.24 60.282 437.832 60.21 437.364 60.21C436.896 60.21 436.47 60.276 436.086 60.408C435.714 60.528 435.378 60.678 435.078 60.858C434.79 61.038 434.538 61.236 434.322 61.452C434.106 61.668 433.926 61.866 433.782 62.046L432.972 61.254C433.044 61.17 433.188 61.008 433.404 60.768C433.632 60.528 433.932 60.282 434.304 60.03C434.688 59.778 435.144 59.556 435.672 59.364C436.2 59.16 436.806 59.058 437.49 59.058C438.15 59.058 438.726 59.16 439.218 59.364C439.722 59.556 440.136 59.82 440.46 60.156C440.796 60.492 441.048 60.882 441.216 61.326C441.384 61.77 441.468 62.238 441.468 62.73C441.468 63.342 441.348 63.87 441.108 64.314C440.88 64.746 440.58 65.118 440.208 65.43C439.836 65.742 439.422 66.006 438.966 66.222C438.51 66.438 438.06 66.642 437.616 66.834C436.944 67.122 436.386 67.422 435.942 67.734C435.51 68.034 435.162 68.352 434.898 68.688C434.634 69.024 434.448 69.378 434.34 69.75C434.244 70.11 434.196 70.488 434.196 70.884H441.486V72H432.864ZM443.629 72V70.236H444.691V72H443.629ZM452.997 70.884V72H447.039V70.884H449.469V60.426C449.373 60.57 449.211 60.732 448.983 60.912C448.767 61.08 448.521 61.248 448.245 61.416C447.981 61.572 447.705 61.704 447.417 61.812C447.129 61.92 446.865 61.974 446.625 61.974V60.822C446.829 60.822 447.039 60.78 447.255 60.696C447.483 60.612 447.699 60.51 447.903 60.39C448.119 60.258 448.317 60.12 448.497 59.976C448.689 59.82 448.851 59.676 448.983 59.544C449.127 59.412 449.241 59.304 449.325 59.22C449.409 59.124 449.457 59.07 449.469 59.058H450.711V70.884H452.997ZM460.809 60.354H453.915V59.22H462.753L456.273 72H454.905L460.809 60.354ZM466.164 64.206C465.792 64.206 465.438 64.14 465.102 64.008C464.778 63.876 464.496 63.696 464.256 63.468C464.016 63.228 463.824 62.952 463.68 62.64C463.536 62.328 463.464 61.992 463.464 61.632C463.464 61.272 463.536 60.936 463.68 60.624C463.824 60.312 464.016 60.042 464.256 59.814C464.496 59.574 464.778 59.388 465.102 59.256C465.438 59.112 465.792 59.04 466.164 59.04C466.536 59.04 466.884 59.112 467.208 59.256C467.532 59.388 467.814 59.574 468.054 59.814C468.306 60.042 468.498 60.312 468.63 60.624C468.774 60.936 468.846 61.272 468.846 61.632C468.846 61.992 468.774 62.328 468.63 62.64C468.498 62.952 468.306 63.228 468.054 63.468C467.814 63.696 467.532 63.876 467.208 64.008C466.884 64.14 466.536 64.206 466.164 64.206ZM466.164 63.504C466.404 63.504 466.632 63.456 466.848 63.36C467.064 63.252 467.25 63.114 467.406 62.946C467.574 62.766 467.7 62.568 467.784 62.352C467.88 62.124 467.928 61.884 467.928 61.632C467.928 61.368 467.88 61.122 467.784 60.894C467.688 60.666 467.556 60.468 467.388 60.3C467.232 60.132 467.046 60 466.83 59.904C466.614 59.808 466.392 59.76 466.164 59.76C465.912 59.76 465.678 59.814 465.462 59.922C465.246 60.018 465.054 60.156 464.886 60.336C464.73 60.504 464.604 60.702 464.508 60.93C464.424 61.146 464.382 61.38 464.382 61.632C464.382 61.884 464.43 62.124 464.526 62.352C464.622 62.58 464.748 62.784 464.904 62.964C465.072 63.132 465.264 63.264 465.48 63.36C465.696 63.456 465.924 63.504 466.164 63.504ZM472.194 72.18C471.822 72.18 471.474 72.114 471.15 71.982C470.826 71.85 470.538 71.67 470.286 71.442C470.046 71.202 469.854 70.926 469.71 70.614C469.578 70.29 469.512 69.948 469.512 69.588C469.512 69.228 469.578 68.892 469.71 68.58C469.854 68.268 470.046 67.998 470.286 67.77C470.538 67.53 470.826 67.344 471.15 67.212C471.474 67.08 471.822 67.014 472.194 67.014C472.566 67.014 472.914 67.08 473.238 67.212C473.574 67.344 473.862 67.53 474.102 67.77C474.342 67.998 474.534 68.268 474.678 68.58C474.822 68.892 474.894 69.228 474.894 69.588C474.894 69.948 474.822 70.29 474.678 70.614C474.534 70.926 474.342 71.202 474.102 71.442C473.862 71.67 473.574 71.85 473.238 71.982C472.914 72.114 472.566 72.18 472.194 72.18ZM472.194 71.46C472.446 71.46 472.674 71.412 472.878 71.316C473.094 71.208 473.28 71.07 473.436 70.902C473.604 70.734 473.73 70.536 473.814 70.308C473.91 70.08 473.958 69.84 473.958 69.588C473.958 69.336 473.91 69.096 473.814 68.868C473.718 68.64 473.586 68.442 473.418 68.274C473.262 68.094 473.076 67.956 472.86 67.86C472.644 67.764 472.422 67.716 472.194 67.716C471.954 67.716 471.726 67.77 471.51 67.878C471.294 67.974 471.102 68.112 470.934 68.292C470.778 68.46 470.652 68.658 470.556 68.886C470.472 69.102 470.43 69.336 470.43 69.588C470.43 69.852 470.478 70.098 470.574 70.326C470.67 70.554 470.796 70.752 470.952 70.92C471.12 71.088 471.306 71.22 471.51 71.316C471.726 71.412 471.954 71.46 472.194 71.46ZM463.914 71.514L468.936 65.394L473.832 59.148L474.462 59.688L469.44 65.808L464.526 72.072L463.914 71.514Z" fill="#080A07"/>
<rect y="90" width="517" height="1" fill="#BCC0B7"/>
<rect y="106.5" width="18" height="18" rx="9" fill="#346B04"/>
<path d="M29.566 109.22H38.548V110.66H31.186V114.476H35.452C35.968 114.476 36.448 114.56 36.892 114.728C37.348 114.884 37.744 115.118 38.08 115.43C38.428 115.742 38.698 116.138 38.89 116.618C39.094 117.086 39.196 117.626 39.196 118.238C39.196 118.85 39.094 119.396 38.89 119.876C38.698 120.344 38.434 120.734 38.098 121.046C37.762 121.358 37.366 121.598 36.91 121.766C36.454 121.922 35.968 122 35.452 122H29.566V109.22ZM35.452 120.596C36.136 120.596 36.658 120.386 37.018 119.966C37.378 119.534 37.558 118.958 37.558 118.238C37.558 117.518 37.378 116.948 37.018 116.528C36.67 116.096 36.148 115.88 35.452 115.88H31.186V120.596H35.452ZM45.2837 122.18C44.5757 122.18 43.9277 122.054 43.3397 121.802C42.7517 121.538 42.2477 121.184 41.8277 120.74C41.4077 120.296 41.0777 119.78 40.8377 119.192C40.6097 118.592 40.4957 117.962 40.4957 117.302C40.4957 116.642 40.6097 116.018 40.8377 115.43C41.0777 114.842 41.4077 114.326 41.8277 113.882C42.2597 113.438 42.7697 113.09 43.3577 112.838C43.9457 112.574 44.5937 112.442 45.3017 112.442C46.0097 112.442 46.6517 112.574 47.2277 112.838C47.8157 113.102 48.3137 113.456 48.7217 113.9C49.1297 114.332 49.4417 114.842 49.6577 115.43C49.8857 116.006 49.9997 116.606 49.9997 117.23C49.9997 117.362 49.9937 117.482 49.9817 117.59C49.9817 117.698 49.9757 117.782 49.9637 117.842H42.1697C42.2057 118.31 42.3137 118.736 42.4937 119.12C42.6737 119.504 42.9077 119.834 43.1957 120.11C43.4837 120.386 43.8077 120.602 44.1677 120.758C44.5397 120.914 44.9297 120.992 45.3377 120.992C45.6257 120.992 45.9077 120.956 46.1837 120.884C46.4597 120.8 46.7177 120.692 46.9577 120.56C47.1977 120.428 47.4077 120.266 47.5877 120.074C47.7797 119.882 47.9237 119.666 48.0197 119.426L49.3877 119.804C49.2317 120.152 49.0157 120.47 48.7397 120.758C48.4757 121.046 48.1637 121.298 47.8037 121.514C47.4557 121.718 47.0657 121.88 46.6337 122C46.2017 122.12 45.7517 122.18 45.2837 122.18ZM48.5057 116.672C48.4697 116.228 48.3557 115.82 48.1637 115.448C47.9837 115.064 47.7497 114.74 47.4617 114.476C47.1857 114.212 46.8617 114.008 46.4897 113.864C46.1177 113.708 45.7217 113.63 45.3017 113.63C44.8817 113.63 44.4857 113.708 44.1137 113.864C43.7417 114.008 43.4117 114.218 43.1237 114.494C42.8477 114.758 42.6197 115.076 42.4397 115.448C42.2717 115.82 42.1697 116.228 42.1337 116.672H48.5057ZM50.4138 120.704C50.7978 120.668 51.1158 120.578 51.3678 120.434C51.6318 120.278 51.8478 120.008 52.0158 119.624C52.1958 119.228 52.3458 118.682 52.4658 117.986C52.5858 117.278 52.7058 116.36 52.8258 115.232L53.1138 112.604H58.9638V122H57.4158V113.846H54.5718L54.3018 115.88C54.1338 117.104 53.9538 118.112 53.7618 118.904C53.5818 119.684 53.3538 120.308 53.0778 120.776C52.8018 121.232 52.4718 121.556 52.0878 121.748C51.7038 121.94 51.2358 122.054 50.6838 122.09L50.4138 120.704ZM67.1854 112.604H68.9494L65.2594 117.176L69.2014 122H67.4554L64.2334 117.878H63.1354V122H61.5874V112.604H63.1354V116.69H64.0534L67.1854 112.604ZM72.1354 119.768L77.2474 112.604H78.5254V122H76.9774V114.98L71.9554 122H70.5874V112.604H72.1354V119.768Z" fill="#080A07"/>
<path d="M388.864 122V121.748C388.864 120.956 388.942 120.272 389.098 119.696C389.254 119.108 389.476 118.598 389.764 118.166C390.064 117.722 390.43 117.344 390.862 117.032C391.294 116.708 391.786 116.414 392.338 116.15C392.746 115.958 393.172 115.772 393.616 115.592C394.06 115.412 394.468 115.202 394.84 114.962C395.212 114.71 395.518 114.41 395.758 114.062C395.998 113.714 396.118 113.276 396.118 112.748C396.118 112.412 396.058 112.094 395.938 111.794C395.83 111.482 395.662 111.212 395.434 110.984C395.218 110.744 394.936 110.558 394.588 110.426C394.24 110.282 393.832 110.21 393.364 110.21C392.896 110.21 392.47 110.276 392.086 110.408C391.714 110.528 391.378 110.678 391.078 110.858C390.79 111.038 390.538 111.236 390.322 111.452C390.106 111.668 389.926 111.866 389.782 112.046L388.972 111.254C389.044 111.17 389.188 111.008 389.404 110.768C389.632 110.528 389.932 110.282 390.304 110.03C390.688 109.778 391.144 109.556 391.672 109.364C392.2 109.16 392.806 109.058 393.49 109.058C394.15 109.058 394.726 109.16 395.218 109.364C395.722 109.556 396.136 109.82 396.46 110.156C396.796 110.492 397.048 110.882 397.216 111.326C397.384 111.77 397.468 112.238 397.468 112.73C397.468 113.342 397.348 113.87 397.108 114.314C396.88 114.746 396.58 115.118 396.208 115.43C395.836 115.742 395.422 116.006 394.966 116.222C394.51 116.438 394.06 116.642 393.616 116.834C392.944 117.122 392.386 117.422 391.942 117.734C391.51 118.034 391.162 118.352 390.898 118.688C390.634 119.024 390.448 119.378 390.34 119.75C390.244 120.11 390.196 120.488 390.196 120.884H397.486V122H388.864ZM410.139 113.558H405.621V122H404.415V112.622H410.139V113.558Z" fill="#080A07"/>
<rect x="421" y="91" width="1" height="49" fill="#BCC0B7"/>
<path d="M432.864 122V121.748C432.864 120.956 432.942 120.272 433.098 119.696C433.254 119.108 433.476 118.598 433.764 118.166C434.064 117.722 434.43 117.344 434.862 117.032C435.294 116.708 435.786 116.414 436.338 116.15C436.746 115.958 437.172 115.772 437.616 115.592C438.06 115.412 438.468 115.202 438.84 114.962C439.212 114.71 439.518 114.41 439.758 114.062C439.998 113.714 440.118 113.276 440.118 112.748C440.118 112.412 440.058 112.094 439.938 111.794C439.83 111.482 439.662 111.212 439.434 110.984C439.218 110.744 438.936 110.558 438.588 110.426C438.24 110.282 437.832 110.21 437.364 110.21C436.896 110.21 436.47 110.276 436.086 110.408C435.714 110.528 435.378 110.678 435.078 110.858C434.79 111.038 434.538 111.236 434.322 111.452C434.106 111.668 433.926 111.866 433.782 112.046L432.972 111.254C433.044 111.17 433.188 111.008 433.404 110.768C433.632 110.528 433.932 110.282 434.304 110.03C434.688 109.778 435.144 109.556 435.672 109.364C436.2 109.16 436.806 109.058 437.49 109.058C438.15 109.058 438.726 109.16 439.218 109.364C439.722 109.556 440.136 109.82 440.46 110.156C440.796 110.492 441.048 110.882 441.216 111.326C441.384 111.77 441.468 112.238 441.468 112.73C441.468 113.342 441.348 113.87 441.108 114.314C440.88 114.746 440.58 115.118 440.208 115.43C439.836 115.742 439.422 116.006 438.966 116.222C438.51 116.438 438.06 116.642 437.616 116.834C436.944 117.122 436.386 117.422 435.942 117.734C435.51 118.034 435.162 118.352 434.898 118.688C434.634 119.024 434.448 119.378 434.34 119.75C434.244 120.11 434.196 120.488 434.196 120.884H441.486V122H432.864ZM443.629 122V120.236H444.691V122H443.629ZM452.997 120.884V122H447.039V120.884H449.469V110.426C449.373 110.57 449.211 110.732 448.983 110.912C448.767 111.08 448.521 111.248 448.245 111.416C447.981 111.572 447.705 111.704 447.417 111.812C447.129 111.92 446.865 111.974 446.625 111.974V110.822C446.829 110.822 447.039 110.78 447.255 110.696C447.483 110.612 447.699 110.51 447.903 110.39C448.119 110.258 448.317 110.12 448.497 109.976C448.689 109.82 448.851 109.676 448.983 109.544C449.127 109.412 449.241 109.304 449.325 109.22C449.409 109.124 449.457 109.07 449.469 109.058H450.711V120.884H452.997ZM460.809 110.354H453.915V109.22H462.753L456.273 122H454.905L460.809 110.354ZM466.164 114.206C465.792 114.206 465.438 114.14 465.102 114.008C464.778 113.876 464.496 113.696 464.256 113.468C464.016 113.228 463.824 112.952 463.68 112.64C463.536 112.328 463.464 111.992 463.464 111.632C463.464 111.272 463.536 110.936 463.68 110.624C463.824 110.312 464.016 110.042 464.256 109.814C464.496 109.574 464.778 109.388 465.102 109.256C465.438 109.112 465.792 109.04 466.164 109.04C466.536 109.04 466.884 109.112 467.208 109.256C467.532 109.388 467.814 109.574 468.054 109.814C468.306 110.042 468.498 110.312 468.63 110.624C468.774 110.936 468.846 111.272 468.846 111.632C468.846 111.992 468.774 112.328 468.63 112.64C468.498 112.952 468.306 113.228 468.054 113.468C467.814 113.696 467.532 113.876 467.208 114.008C466.884 114.14 466.536 114.206 466.164 114.206ZM466.164 113.504C466.404 113.504 466.632 113.456 466.848 113.36C467.064 113.252 467.25 113.114 467.406 112.946C467.574 112.766 467.7 112.568 467.784 112.352C467.88 112.124 467.928 111.884 467.928 111.632C467.928 111.368 467.88 111.122 467.784 110.894C467.688 110.666 467.556 110.468 467.388 110.3C467.232 110.132 467.046 110 466.83 109.904C466.614 109.808 466.392 109.76 466.164 109.76C465.912 109.76 465.678 109.814 465.462 109.922C465.246 110.018 465.054 110.156 464.886 110.336C464.73 110.504 464.604 110.702 464.508 110.93C464.424 111.146 464.382 111.38 464.382 111.632C464.382 111.884 464.43 112.124 464.526 112.352C464.622 112.58 464.748 112.784 464.904 112.964C465.072 113.132 465.264 113.264 465.48 113.36C465.696 113.456 465.924 113.504 466.164 113.504ZM472.194 122.18C471.822 122.18 471.474 122.114 471.15 121.982C470.826 121.85 470.538 121.67 470.286 121.442C470.046 121.202 469.854 120.926 469.71 120.614C469.578 120.29 469.512 119.948 469.512 119.588C469.512 119.228 469.578 118.892 469.71 118.58C469.854 118.268 470.046 117.998 470.286 117.77C470.538 117.53 470.826 117.344 471.15 117.212C471.474 117.08 471.822 117.014 472.194 117.014C472.566 117.014 472.914 117.08 473.238 117.212C473.574 117.344 473.862 117.53 474.102 117.77C474.342 117.998 474.534 118.268 474.678 118.58C474.822 118.892 474.894 119.228 474.894 119.588C474.894 119.948 474.822 120.29 474.678 120.614C474.534 120.926 474.342 121.202 474.102 121.442C473.862 121.67 473.574 121.85 473.238 121.982C472.914 122.114 472.566 122.18 472.194 122.18ZM472.194 121.46C472.446 121.46 472.674 121.412 472.878 121.316C473.094 121.208 473.28 121.07 473.436 120.902C473.604 120.734 473.73 120.536 473.814 120.308C473.91 120.08 473.958 119.84 473.958 119.588C473.958 119.336 473.91 119.096 473.814 118.868C473.718 118.64 473.586 118.442 473.418 118.274C473.262 118.094 473.076 117.956 472.86 117.86C472.644 117.764 472.422 117.716 472.194 117.716C471.954 117.716 471.726 117.77 471.51 117.878C471.294 117.974 471.102 118.112 470.934 118.292C470.778 118.46 470.652 118.658 470.556 118.886C470.472 119.102 470.43 119.336 470.43 119.588C470.43 119.852 470.478 120.098 470.574 120.326C470.67 120.554 470.796 120.752 470.952 120.92C471.12 121.088 471.306 121.22 471.51 121.316C471.726 121.412 471.954 121.46 472.194 121.46ZM463.914 121.514L468.936 115.394L473.832 109.148L474.462 109.688L469.44 115.808L464.526 122.072L463.914 121.514Z" fill="#080A07"/>
<rect y="140" width="517" height="1" fill="#BCC0B7"/>
<rect y="156.5" width="18" height="18" rx="9" fill="#EE7301"/>
<path d="M32.284 165.394L28.45 159.22H30.304L33.688 164.782H35.848V159.22H37.648V164.782H39.808L43.192 159.22H45.046L41.212 165.394L45.46 172H43.606L40.06 166.222H37.648V172H35.848V166.222H33.436L29.89 172H28.036L32.284 165.394ZM48.2468 169.768L53.3588 162.604H54.6368V172H53.0888V164.98L48.0668 172H46.6988V162.604H48.2468V169.768ZM62.3388 172.18C61.5588 172.18 60.8688 171.988 60.2688 171.604C59.6808 171.22 59.2128 170.734 58.8648 170.146V175.834H57.2808V162.604H58.6848V164.368C59.0568 163.792 59.5368 163.33 60.1248 162.982C60.7248 162.622 61.3848 162.442 62.1048 162.442C62.7528 162.442 63.3468 162.574 63.8868 162.838C64.4268 163.102 64.8948 163.462 65.2908 163.918C65.6868 164.362 65.9928 164.878 66.2088 165.466C66.4368 166.054 66.5508 166.666 66.5508 167.302C66.5508 167.974 66.4488 168.61 66.2448 169.21C66.0408 169.798 65.7528 170.314 65.3808 170.758C65.0088 171.19 64.5648 171.538 64.0488 171.802C63.5328 172.054 62.9628 172.18 62.3388 172.18ZM61.8528 170.812C62.3208 170.812 62.7408 170.716 63.1128 170.524C63.4968 170.32 63.8208 170.056 64.0848 169.732C64.3608 169.396 64.5708 169.018 64.7148 168.598C64.8588 168.178 64.9308 167.746 64.9308 167.302C64.9308 166.834 64.8468 166.39 64.6788 165.97C64.5108 165.538 64.2828 165.166 63.9948 164.854C63.7068 164.53 63.3648 164.278 62.9688 164.098C62.5848 163.906 62.1648 163.81 61.7088 163.81C61.4208 163.81 61.1208 163.87 60.8088 163.99C60.5088 164.098 60.2208 164.248 59.9448 164.44C59.6808 164.62 59.4468 164.842 59.2428 165.106C59.0508 165.358 58.9248 165.628 58.8648 165.916V168.598C58.9968 168.91 59.1648 169.204 59.3688 169.48C59.5728 169.744 59.8068 169.978 60.0708 170.182C60.3348 170.374 60.6168 170.53 60.9168 170.65C61.2168 170.758 61.5288 170.812 61.8528 170.812ZM68.5308 162.604H70.0788V165.844H71.8608C72.2688 165.844 72.6648 165.91 73.0488 166.042C73.4448 166.162 73.7928 166.354 74.0928 166.618C74.4048 166.87 74.6568 167.194 74.8488 167.59C75.0408 167.974 75.1368 168.43 75.1368 168.958C75.1368 169.486 75.0408 169.942 74.8488 170.326C74.6568 170.71 74.4048 171.028 74.0928 171.28C73.7928 171.52 73.4448 171.7 73.0488 171.82C72.6528 171.94 72.2508 172 71.8428 172H68.5308V162.604ZM76.0548 162.604H77.6028V172H76.0548V162.604ZM71.8428 170.668C72.3588 170.668 72.7728 170.53 73.0848 170.254C73.4088 169.966 73.5708 169.534 73.5708 168.958C73.5708 168.37 73.3968 167.926 73.0488 167.626C72.7128 167.326 72.3168 167.176 71.8608 167.176H70.0788V170.668H71.8428Z" fill="#080A07"/>
<path d="M375.128 170.884V172H369.17V170.884H371.6V160.426C371.504 160.57 371.342 160.732 371.114 160.912C370.898 161.08 370.652 161.248 370.376 161.416C370.112 161.572 369.836 161.704 369.548 161.812C369.26 161.92 368.996 161.974 368.756 161.974V160.822C368.96 160.822 369.17 160.78 369.386 160.696C369.614 160.612 369.83 160.51 370.034 160.39C370.25 160.258 370.448 160.12 370.628 159.976C370.82 159.82 370.982 159.676 371.114 159.544C371.258 159.412 371.372 159.304 371.456 159.22C371.54 159.124 371.588 159.07 371.6 159.058H372.842V170.884H375.128ZM381.957 172V168.58H375.675V167.482L382.335 159.22H383.181V167.464H384.765V168.58H383.181V172H381.957ZM376.989 167.464H382.065V161.128L376.989 167.464ZM386.625 172V170.236H387.687V172H386.625ZM396.317 160.354H389.423V159.22H398.261L391.781 172H390.413L396.317 160.354ZM409.932 163.558H405.414V172H404.208V162.622H409.932V163.558Z" fill="#080A07"/>
<rect x="421" y="141" width="1" height="49" fill="#BCC0B7"/>
<path d="M432.864 172V171.748C432.864 170.956 432.942 170.272 433.098 169.696C433.254 169.108 433.476 168.598 433.764 168.166C434.064 167.722 434.43 167.344 434.862 167.032C435.294 166.708 435.786 166.414 436.338 166.15C436.746 165.958 437.172 165.772 437.616 165.592C438.06 165.412 438.468 165.202 438.84 164.962C439.212 164.71 439.518 164.41 439.758 164.062C439.998 163.714 440.118 163.276 440.118 162.748C440.118 162.412 440.058 162.094 439.938 161.794C439.83 161.482 439.662 161.212 439.434 160.984C439.218 160.744 438.936 160.558 438.588 160.426C438.24 160.282 437.832 160.21 437.364 160.21C436.896 160.21 436.47 160.276 436.086 160.408C435.714 160.528 435.378 160.678 435.078 160.858C434.79 161.038 434.538 161.236 434.322 161.452C434.106 161.668 433.926 161.866 433.782 162.046L432.972 161.254C433.044 161.17 433.188 161.008 433.404 160.768C433.632 160.528 433.932 160.282 434.304 160.03C434.688 159.778 435.144 159.556 435.672 159.364C436.2 159.16 436.806 159.058 437.49 159.058C438.15 159.058 438.726 159.16 439.218 159.364C439.722 159.556 440.136 159.82 440.46 160.156C440.796 160.492 441.048 160.882 441.216 161.326C441.384 161.77 441.468 162.238 441.468 162.73C441.468 163.342 441.348 163.87 441.108 164.314C440.88 164.746 440.58 165.118 440.208 165.43C439.836 165.742 439.422 166.006 438.966 166.222C438.51 166.438 438.06 166.642 437.616 166.834C436.944 167.122 436.386 167.422 435.942 167.734C435.51 168.034 435.162 168.352 434.898 168.688C434.634 169.024 434.448 169.378 434.34 169.75C434.244 170.11 434.196 170.488 434.196 170.884H441.486V172H432.864ZM443.629 172V170.236H444.691V172H443.629ZM452.997 170.884V172H447.039V170.884H449.469V160.426C449.373 160.57 449.211 160.732 448.983 160.912C448.767 161.08 448.521 161.248 448.245 161.416C447.981 161.572 447.705 161.704 447.417 161.812C447.129 161.92 446.865 161.974 446.625 161.974V160.822C446.829 160.822 447.039 160.78 447.255 160.696C447.483 160.612 447.699 160.51 447.903 160.39C448.119 160.258 448.317 160.12 448.497 159.976C448.689 159.82 448.851 159.676 448.983 159.544C449.127 159.412 449.241 159.304 449.325 159.22C449.409 159.124 449.457 159.07 449.469 159.058H450.711V170.884H452.997ZM460.809 160.354H453.915V159.22H462.753L456.273 172H454.905L460.809 160.354ZM466.164 164.206C465.792 164.206 465.438 164.14 465.102 164.008C464.778 163.876 464.496 163.696 464.256 163.468C464.016 163.228 463.824 162.952 463.68 162.64C463.536 162.328 463.464 161.992 463.464 161.632C463.464 161.272 463.536 160.936 463.68 160.624C463.824 160.312 464.016 160.042 464.256 159.814C464.496 159.574 464.778 159.388 465.102 159.256C465.438 159.112 465.792 159.04 466.164 159.04C466.536 159.04 466.884 159.112 467.208 159.256C467.532 159.388 467.814 159.574 468.054 159.814C468.306 160.042 468.498 160.312 468.63 160.624C468.774 160.936 468.846 161.272 468.846 161.632C468.846 161.992 468.774 162.328 468.63 162.64C468.498 162.952 468.306 163.228 468.054 163.468C467.814 163.696 467.532 163.876 467.208 164.008C466.884 164.14 466.536 164.206 466.164 164.206ZM466.164 163.504C466.404 163.504 466.632 163.456 466.848 163.36C467.064 163.252 467.25 163.114 467.406 162.946C467.574 162.766 467.7 162.568 467.784 162.352C467.88 162.124 467.928 161.884 467.928 161.632C467.928 161.368 467.88 161.122 467.784 160.894C467.688 160.666 467.556 160.468 467.388 160.3C467.232 160.132 467.046 160 466.83 159.904C466.614 159.808 466.392 159.76 466.164 159.76C465.912 159.76 465.678 159.814 465.462 159.922C465.246 160.018 465.054 160.156 464.886 160.336C464.73 160.504 464.604 160.702 464.508 160.93C464.424 161.146 464.382 161.38 464.382 161.632C464.382 161.884 464.43 162.124 464.526 162.352C464.622 162.58 464.748 162.784 464.904 162.964C465.072 163.132 465.264 163.264 465.48 163.36C465.696 163.456 465.924 163.504 466.164 163.504ZM472.194 172.18C471.822 172.18 471.474 172.114 471.15 171.982C470.826 171.85 470.538 171.67 470.286 171.442C470.046 171.202 469.854 170.926 469.71 170.614C469.578 170.29 469.512 169.948 469.512 169.588C469.512 169.228 469.578 168.892 469.71 168.58C469.854 168.268 470.046 167.998 470.286 167.77C470.538 167.53 470.826 167.344 471.15 167.212C471.474 167.08 471.822 167.014 472.194 167.014C472.566 167.014 472.914 167.08 473.238 167.212C473.574 167.344 473.862 167.53 474.102 167.77C474.342 167.998 474.534 168.268 474.678 168.58C474.822 168.892 474.894 169.228 474.894 169.588C474.894 169.948 474.822 170.29 474.678 170.614C474.534 170.926 474.342 171.202 474.102 171.442C473.862 171.67 473.574 171.85 473.238 171.982C472.914 172.114 472.566 172.18 472.194 172.18ZM472.194 171.46C472.446 171.46 472.674 171.412 472.878 171.316C473.094 171.208 473.28 171.07 473.436 170.902C473.604 170.734 473.73 170.536 473.814 170.308C473.91 170.08 473.958 169.84 473.958 169.588C473.958 169.336 473.91 169.096 473.814 168.868C473.718 168.64 473.586 168.442 473.418 168.274C473.262 168.094 473.076 167.956 472.86 167.86C472.644 167.764 472.422 167.716 472.194 167.716C471.954 167.716 471.726 167.77 471.51 167.878C471.294 167.974 471.102 168.112 470.934 168.292C470.778 168.46 470.652 168.658 470.556 168.886C470.472 169.102 470.43 169.336 470.43 169.588C470.43 169.852 470.478 170.098 470.574 170.326C470.67 170.554 470.796 170.752 470.952 170.92C471.12 171.088 471.306 171.22 471.51 171.316C471.726 171.412 471.954 171.46 472.194 171.46ZM463.914 171.514L468.936 165.394L473.832 159.148L474.462 159.688L469.44 165.808L464.526 172.072L463.914 171.514Z" fill="#080A07"/>
<rect y="190" width="517" height="1" fill="#BCC0B7"/>
<rect y="206.5" width="18" height="18" rx="9" fill="#EED601"/>
<path d="M31.06 222.126C30.832 222.126 30.58 222.102 30.304 222.054C30.028 222.018 29.794 221.958 29.602 221.874V220.488C29.806 220.572 30.028 220.632 30.268 220.668C30.52 220.704 30.748 220.722 30.952 220.722C31.36 220.722 31.72 220.596 32.032 220.344C32.356 220.092 32.674 219.594 32.986 218.85L28.342 209.22H30.052L33.742 217.086L37.234 209.22H38.944L34.444 218.94C34.18 219.516 33.922 220.008 33.67 220.416C33.418 220.812 33.16 221.142 32.896 221.406C32.632 221.658 32.35 221.844 32.05 221.964C31.75 222.072 31.42 222.126 31.06 222.126ZM45.5908 213.792H41.1628V222H39.6148V212.604H45.5908V213.792ZM45.1931 220.704C45.5771 220.668 45.8951 220.578 46.1471 220.434C46.4111 220.278 46.6271 220.008 46.7951 219.624C46.9751 219.228 47.1251 218.682 47.2451 217.986C47.3651 217.278 47.4851 216.36 47.6051 215.232L47.8931 212.604H53.7431V222H52.1951V213.846H49.3511L49.0811 215.88C48.9131 217.104 48.7331 218.112 48.5411 218.904C48.3611 219.684 48.1331 220.308 47.8571 220.776C47.5811 221.232 47.2511 221.556 46.8671 221.748C46.4831 221.94 46.0151 222.054 45.4631 222.09L45.1931 220.704ZM60.4887 222.18C59.7807 222.18 59.1327 222.054 58.5447 221.802C57.9567 221.538 57.4527 221.184 57.0327 220.74C56.6127 220.296 56.2827 219.78 56.0427 219.192C55.8147 218.592 55.7007 217.962 55.7007 217.302C55.7007 216.642 55.8147 216.018 56.0427 215.43C56.2827 214.842 56.6127 214.326 57.0327 213.882C57.4647 213.438 57.9747 213.09 58.5627 212.838C59.1507 212.574 59.7987 212.442 60.5067 212.442C61.2147 212.442 61.8567 212.574 62.4327 212.838C63.0207 213.102 63.5187 213.456 63.9267 213.9C64.3347 214.332 64.6467 214.842 64.8627 215.43C65.0907 216.006 65.2047 216.606 65.2047 217.23C65.2047 217.362 65.1987 217.482 65.1867 217.59C65.1867 217.698 65.1807 217.782 65.1687 217.842H57.3747C57.4107 218.31 57.5187 218.736 57.6987 219.12C57.8787 219.504 58.1127 219.834 58.4007 220.11C58.6887 220.386 59.0127 220.602 59.3727 220.758C59.7447 220.914 60.1347 220.992 60.5427 220.992C60.8307 220.992 61.1127 220.956 61.3887 220.884C61.6647 220.8 61.9227 220.692 62.1627 220.56C62.4027 220.428 62.6127 220.266 62.7927 220.074C62.9847 219.882 63.1287 219.666 63.2247 219.426L64.5927 219.804C64.4367 220.152 64.2207 220.47 63.9447 220.758C63.6807 221.046 63.3687 221.298 63.0087 221.514C62.6607 221.718 62.2707 221.88 61.8387 222C61.4067 222.12 60.9567 222.18 60.4887 222.18ZM63.7107 216.672C63.6747 216.228 63.5607 215.82 63.3687 215.448C63.1887 215.064 62.9547 214.74 62.6667 214.476C62.3907 214.212 62.0667 214.008 61.6947 213.864C61.3227 213.708 60.9267 213.63 60.5067 213.63C60.0867 213.63 59.6907 213.708 59.3187 213.864C58.9467 214.008 58.6167 214.218 58.3287 214.494C58.0527 214.758 57.8247 215.076 57.6447 215.448C57.4767 215.82 57.3747 216.228 57.3387 216.672H63.7107ZM71.7715 212.604C72.1075 212.604 72.4195 212.664 72.7075 212.784C72.9955 212.892 73.2475 213.048 73.4635 213.252C73.6795 213.456 73.8475 213.702 73.9675 213.99C74.0875 214.266 74.1475 214.572 74.1475 214.908C74.1475 215.112 74.1235 215.322 74.0755 215.538C74.0275 215.742 73.9495 215.946 73.8415 216.15C73.7455 216.342 73.6135 216.522 73.4455 216.69C73.2775 216.858 73.0735 216.99 72.8335 217.086C73.3495 217.23 73.7575 217.5 74.0575 217.896C74.3575 218.28 74.5075 218.766 74.5075 219.354C74.5075 219.75 74.4355 220.116 74.2915 220.452C74.1475 220.776 73.9435 221.052 73.6795 221.28C73.4275 221.508 73.1215 221.688 72.7615 221.82C72.4135 221.94 72.0235 222 71.5915 222H67.0375V212.604H71.7715ZM71.1415 216.618C71.5975 216.618 71.9515 216.492 72.2035 216.24C72.4675 215.976 72.5995 215.616 72.5995 215.16C72.5995 214.776 72.4975 214.452 72.2935 214.188C72.0895 213.912 71.7475 213.774 71.2675 213.774H68.5855V216.618H71.1415ZM71.4115 220.83C71.8915 220.83 72.2695 220.68 72.5455 220.38C72.8335 220.068 72.9775 219.702 72.9775 219.282C72.9775 218.886 72.8455 218.538 72.5815 218.238C72.3175 217.938 71.9395 217.788 71.4475 217.788H68.5855V220.83H71.4115ZM80.5617 222.18C79.8537 222.18 79.2057 222.048 78.6177 221.784C78.0417 221.52 77.5437 221.166 77.1237 220.722C76.7157 220.278 76.3977 219.762 76.1697 219.174C75.9417 218.586 75.8277 217.968 75.8277 217.32C75.8277 216.66 75.9417 216.036 76.1697 215.448C76.4097 214.86 76.7337 214.344 77.1417 213.9C77.5617 213.456 78.0597 213.102 78.6357 212.838C79.2237 212.574 79.8657 212.442 80.5617 212.442C81.2577 212.442 81.8997 212.574 82.4877 212.838C83.0757 213.102 83.5737 213.456 83.9817 213.9C84.4017 214.344 84.7257 214.86 84.9537 215.448C85.1937 216.036 85.3137 216.66 85.3137 217.32C85.3137 217.968 85.1997 218.586 84.9717 219.174C84.7437 219.762 84.4197 220.278 83.9997 220.722C83.5797 221.166 83.0757 221.52 82.4877 221.784C81.9117 222.048 81.2697 222.18 80.5617 222.18ZM77.4477 217.338C77.4477 217.83 77.5257 218.286 77.6817 218.706C77.8497 219.126 78.0717 219.492 78.3477 219.804C78.6357 220.116 78.9657 220.362 79.3377 220.542C79.7217 220.722 80.1297 220.812 80.5617 220.812C80.9937 220.812 81.3957 220.722 81.7677 220.542C82.1517 220.362 82.4877 220.116 82.7757 219.804C83.0637 219.48 83.2857 219.108 83.4417 218.688C83.6097 218.256 83.6937 217.794 83.6937 217.302C83.6937 216.822 83.6097 216.372 83.4417 215.952C83.2857 215.52 83.0637 215.148 82.7757 214.836C82.4877 214.512 82.1517 214.26 81.7677 214.08C81.3957 213.9 80.9937 213.81 80.5617 213.81C80.1297 213.81 79.7217 213.906 79.3377 214.098C78.9657 214.278 78.6357 214.53 78.3477 214.854C78.0717 215.166 77.8497 215.538 77.6817 215.97C77.5257 216.39 77.4477 216.846 77.4477 217.338ZM85.9803 220.632H86.5203C86.8083 220.56 87.0483 220.428 87.2403 220.236C87.4443 220.044 87.6183 219.75 87.7623 219.354C87.9063 218.946 88.0323 218.412 88.1403 217.752C88.2483 217.08 88.3563 216.24 88.4643 215.232L88.7523 212.604H94.6023V220.632H95.7183V224.952H94.3503V222H87.2943V224.952H85.9803V220.632ZM93.0543 220.632V213.846H90.2103L89.9403 215.88C89.7723 217.176 89.5803 218.202 89.3643 218.958C89.1603 219.702 88.9083 220.26 88.6083 220.632H93.0543ZM97.6226 212.604H99.1706V215.844H100.953C101.361 215.844 101.757 215.91 102.141 216.042C102.537 216.162 102.885 216.354 103.185 216.618C103.497 216.87 103.749 217.194 103.941 217.59C104.133 217.974 104.229 218.43 104.229 218.958C104.229 219.486 104.133 219.942 103.941 220.326C103.749 220.71 103.497 221.028 103.185 221.28C102.885 221.52 102.537 221.7 102.141 221.82C101.745 221.94 101.343 222 100.935 222H97.6226V212.604ZM105.147 212.604H106.695V222H105.147V212.604ZM100.935 220.668C101.451 220.668 101.865 220.53 102.177 220.254C102.501 219.966 102.663 219.534 102.663 218.958C102.663 218.37 102.489 217.926 102.141 217.626C101.805 217.326 101.409 217.176 100.953 217.176H99.1706V220.668H100.935Z" fill="#080A07"/>
<path d="M384.128 220.884V222H378.17V220.884H380.6V210.426C380.504 210.57 380.342 210.732 380.114 210.912C379.898 211.08 379.652 211.248 379.376 211.416C379.112 211.572 378.836 211.704 378.548 211.812C378.26 211.92 377.996 211.974 377.756 211.974V210.822C377.96 210.822 378.17 210.78 378.386 210.696C378.614 210.612 378.83 210.51 379.034 210.39C379.25 210.258 379.448 210.12 379.628 209.976C379.82 209.82 379.982 209.676 380.114 209.544C380.258 209.412 380.372 209.304 380.456 209.22C380.54 209.124 380.588 209.07 380.6 209.058H381.842V220.884H384.128ZM385.658 222V220.236H386.72V222H385.658ZM397.672 218.454C397.672 219.018 397.552 219.528 397.312 219.984C397.072 220.428 396.748 220.812 396.34 221.136C395.932 221.46 395.452 221.712 394.9 221.892C394.36 222.06 393.79 222.144 393.19 222.144C392.554 222.144 391.966 222.048 391.426 221.856C390.886 221.652 390.418 221.382 390.022 221.046C389.638 220.698 389.338 220.296 389.122 219.84C388.906 219.384 388.798 218.898 388.798 218.382C388.798 217.974 388.87 217.596 389.014 217.248C389.17 216.9 389.368 216.594 389.608 216.33C389.848 216.054 390.118 215.82 390.418 215.628C390.73 215.424 391.042 215.268 391.354 215.16C391.066 215.04 390.796 214.896 390.544 214.728C390.292 214.548 390.07 214.344 389.878 214.116C389.686 213.888 389.53 213.636 389.41 213.36C389.302 213.084 389.248 212.79 389.248 212.478C389.248 211.95 389.368 211.488 389.608 211.092C389.848 210.684 390.154 210.342 390.526 210.066C390.91 209.79 391.336 209.58 391.804 209.436C392.284 209.292 392.764 209.22 393.244 209.22C393.724 209.22 394.198 209.292 394.666 209.436C395.146 209.58 395.572 209.79 395.944 210.066C396.328 210.33 396.64 210.666 396.88 211.074C397.12 211.482 397.24 211.944 397.24 212.46C397.24 212.772 397.18 213.066 397.06 213.342C396.952 213.618 396.796 213.876 396.592 214.116C396.4 214.344 396.172 214.548 395.908 214.728C395.656 214.896 395.386 215.04 395.098 215.16C395.446 215.28 395.776 215.448 396.088 215.664C396.4 215.868 396.67 216.108 396.898 216.384C397.138 216.66 397.324 216.972 397.456 217.32C397.6 217.668 397.672 218.046 397.672 218.454ZM396.43 218.364C396.43 217.932 396.334 217.554 396.142 217.23C395.95 216.894 395.698 216.612 395.386 216.384C395.074 216.156 394.726 215.982 394.342 215.862C393.958 215.742 393.58 215.682 393.208 215.682C392.812 215.682 392.428 215.748 392.056 215.88C391.684 216 391.348 216.18 391.048 216.42C390.748 216.648 390.508 216.93 390.328 217.266C390.148 217.602 390.058 217.974 390.058 218.382C390.058 218.802 390.154 219.18 390.346 219.516C390.538 219.84 390.784 220.116 391.084 220.344C391.396 220.572 391.738 220.746 392.11 220.866C392.494 220.986 392.878 221.046 393.262 221.046C393.646 221.046 394.024 220.986 394.396 220.866C394.78 220.734 395.122 220.554 395.422 220.326C395.722 220.086 395.962 219.804 396.142 219.48C396.334 219.144 396.43 218.772 396.43 218.364ZM390.472 212.532C390.472 212.88 390.556 213.192 390.724 213.468C390.892 213.732 391.108 213.96 391.372 214.152C391.636 214.332 391.93 214.47 392.254 214.566C392.59 214.662 392.914 214.71 393.226 214.71C393.55 214.71 393.874 214.662 394.198 214.566C394.522 214.47 394.816 214.326 395.08 214.134C395.356 213.942 395.578 213.708 395.746 213.432C395.914 213.156 395.998 212.844 395.998 212.496C395.998 212.16 395.92 211.86 395.764 211.596C395.608 211.32 395.398 211.092 395.134 210.912C394.882 210.72 394.588 210.576 394.252 210.48C393.916 210.384 393.568 210.336 393.208 210.336C392.86 210.336 392.518 210.39 392.182 210.498C391.858 210.594 391.57 210.738 391.318 210.93C391.066 211.11 390.862 211.338 390.706 211.614C390.55 211.89 390.472 212.196 390.472 212.532ZM410.248 213.558H405.73V222H404.524V212.622H410.248V213.558Z" fill="#080A07"/>
<rect x="421" y="191" width="1" height="49" fill="#BCC0B7"/>
<path d="M439.128 220.884V222H433.17V220.884H435.6V210.426C435.504 210.57 435.342 210.732 435.114 210.912C434.898 211.08 434.652 211.248 434.376 211.416C434.112 211.572 433.836 211.704 433.548 211.812C433.26 211.92 432.996 211.974 432.756 211.974V210.822C432.96 210.822 433.17 210.78 433.386 210.696C433.614 210.612 433.83 210.51 434.034 210.39C434.25 210.258 434.448 210.12 434.628 209.976C434.82 209.82 434.982 209.676 435.114 209.544C435.258 209.412 435.372 209.304 435.456 209.22C435.54 209.124 435.588 209.07 435.6 209.058H436.842V220.884H439.128ZM440.658 222V220.236H441.72V222H440.658ZM443.762 222V221.748C443.762 220.956 443.84 220.272 443.996 219.696C444.152 219.108 444.374 218.598 444.662 218.166C444.962 217.722 445.328 217.344 445.76 217.032C446.192 216.708 446.684 216.414 447.236 216.15C447.644 215.958 448.07 215.772 448.514 215.592C448.958 215.412 449.366 215.202 449.738 214.962C450.11 214.71 450.416 214.41 450.656 214.062C450.896 213.714 451.016 213.276 451.016 212.748C451.016 212.412 450.956 212.094 450.836 211.794C450.728 211.482 450.56 211.212 450.332 210.984C450.116 210.744 449.834 210.558 449.486 210.426C449.138 210.282 448.73 210.21 448.262 210.21C447.794 210.21 447.368 210.276 446.984 210.408C446.612 210.528 446.276 210.678 445.976 210.858C445.688 211.038 445.436 211.236 445.22 211.452C445.004 211.668 444.824 211.866 444.68 212.046L443.87 211.254C443.942 211.17 444.086 211.008 444.302 210.768C444.53 210.528 444.83 210.282 445.202 210.03C445.586 209.778 446.042 209.556 446.57 209.364C447.098 209.16 447.704 209.058 448.388 209.058C449.048 209.058 449.624 209.16 450.116 209.364C450.62 209.556 451.034 209.82 451.358 210.156C451.694 210.492 451.946 210.882 452.114 211.326C452.282 211.77 452.366 212.238 452.366 212.73C452.366 213.342 452.246 213.87 452.006 214.314C451.778 214.746 451.478 215.118 451.106 215.43C450.734 215.742 450.32 216.006 449.864 216.222C449.408 216.438 448.958 216.642 448.514 216.834C447.842 217.122 447.284 217.422 446.84 217.734C446.408 218.034 446.06 218.352 445.796 218.688C445.532 219.024 445.346 219.378 445.238 219.75C445.142 220.11 445.094 220.488 445.094 220.884H452.384V222H443.762ZM454.149 213.522C454.149 212.91 454.263 212.34 454.491 211.812C454.731 211.272 455.049 210.804 455.445 210.408C455.853 210.012 456.333 209.7 456.885 209.472C457.437 209.244 458.031 209.13 458.667 209.13C459.339 209.13 459.957 209.25 460.521 209.49C461.085 209.73 461.565 210.084 461.961 210.552C462.369 211.008 462.687 211.566 462.915 212.226C463.143 212.886 463.257 213.63 463.257 214.458C463.257 215.766 463.143 216.906 462.915 217.878C462.687 218.838 462.363 219.642 461.943 220.29C461.535 220.926 461.043 221.4 460.467 221.712C459.891 222.024 459.249 222.18 458.541 222.18C457.701 222.18 456.945 221.97 456.273 221.55C455.601 221.13 455.091 220.542 454.743 219.786L455.517 219.084C455.769 219.696 456.165 220.182 456.705 220.542C457.257 220.902 457.875 221.082 458.559 221.082C459.087 221.082 459.567 220.962 459.999 220.722C460.431 220.47 460.803 220.104 461.115 219.624C461.427 219.144 461.667 218.562 461.835 217.878C462.003 217.194 462.087 216.408 462.087 215.52C461.823 216.228 461.367 216.792 460.719 217.212C460.083 217.632 459.357 217.842 458.541 217.842C457.929 217.842 457.353 217.728 456.813 217.5C456.285 217.272 455.823 216.966 455.427 216.582C455.031 216.186 454.719 215.73 454.491 215.214C454.263 214.686 454.149 214.122 454.149 213.522ZM458.649 210.192C458.193 210.192 457.761 210.282 457.353 210.462C456.957 210.63 456.609 210.87 456.309 211.182C456.009 211.482 455.769 211.836 455.589 212.244C455.421 212.64 455.337 213.06 455.337 213.504C455.337 213.96 455.421 214.392 455.589 214.8C455.769 215.196 456.009 215.55 456.309 215.862C456.621 216.162 456.975 216.402 457.371 216.582C457.779 216.75 458.211 216.834 458.667 216.834C459.123 216.834 459.549 216.75 459.945 216.582C460.353 216.402 460.707 216.162 461.007 215.862C461.319 215.55 461.565 215.196 461.745 214.8C461.925 214.404 462.015 213.978 462.015 213.522C462.015 213.078 461.925 212.652 461.745 212.244C461.565 211.836 461.319 211.482 461.007 211.182C460.707 210.882 460.353 210.642 459.945 210.462C459.537 210.282 459.105 210.192 458.649 210.192ZM467.623 214.206C467.251 214.206 466.897 214.14 466.561 214.008C466.237 213.876 465.955 213.696 465.715 213.468C465.475 213.228 465.283 212.952 465.139 212.64C464.995 212.328 464.923 211.992 464.923 211.632C464.923 211.272 464.995 210.936 465.139 210.624C465.283 210.312 465.475 210.042 465.715 209.814C465.955 209.574 466.237 209.388 466.561 209.256C466.897 209.112 467.251 209.04 467.623 209.04C467.995 209.04 468.343 209.112 468.667 209.256C468.991 209.388 469.273 209.574 469.513 209.814C469.765 210.042 469.957 210.312 470.089 210.624C470.233 210.936 470.305 211.272 470.305 211.632C470.305 211.992 470.233 212.328 470.089 212.64C469.957 212.952 469.765 213.228 469.513 213.468C469.273 213.696 468.991 213.876 468.667 214.008C468.343 214.14 467.995 214.206 467.623 214.206ZM467.623 213.504C467.863 213.504 468.091 213.456 468.307 213.36C468.523 213.252 468.709 213.114 468.865 212.946C469.033 212.766 469.159 212.568 469.243 212.352C469.339 212.124 469.387 211.884 469.387 211.632C469.387 211.368 469.339 211.122 469.243 210.894C469.147 210.666 469.015 210.468 468.847 210.3C468.691 210.132 468.505 210 468.289 209.904C468.073 209.808 467.851 209.76 467.623 209.76C467.371 209.76 467.137 209.814 466.921 209.922C466.705 210.018 466.513 210.156 466.345 210.336C466.189 210.504 466.063 210.702 465.967 210.93C465.883 211.146 465.841 211.38 465.841 211.632C465.841 211.884 465.889 212.124 465.985 212.352C466.081 212.58 466.207 212.784 466.363 212.964C466.531 213.132 466.723 213.264 466.939 213.36C467.155 213.456 467.383 213.504 467.623 213.504ZM473.653 222.18C473.281 222.18 472.933 222.114 472.609 221.982C472.285 221.85 471.997 221.67 471.745 221.442C471.505 221.202 471.313 220.926 471.169 220.614C471.037 220.29 470.971 219.948 470.971 219.588C470.971 219.228 471.037 218.892 471.169 218.58C471.313 218.268 471.505 217.998 471.745 217.77C471.997 217.53 472.285 217.344 472.609 217.212C472.933 217.08 473.281 217.014 473.653 217.014C474.025 217.014 474.373 217.08 474.697 217.212C475.033 217.344 475.321 217.53 475.561 217.77C475.801 217.998 475.993 218.268 476.137 218.58C476.281 218.892 476.353 219.228 476.353 219.588C476.353 219.948 476.281 220.29 476.137 220.614C475.993 220.926 475.801 221.202 475.561 221.442C475.321 221.67 475.033 221.85 474.697 221.982C474.373 222.114 474.025 222.18 473.653 222.18ZM473.653 221.46C473.905 221.46 474.133 221.412 474.337 221.316C474.553 221.208 474.739 221.07 474.895 220.902C475.063 220.734 475.189 220.536 475.273 220.308C475.369 220.08 475.417 219.84 475.417 219.588C475.417 219.336 475.369 219.096 475.273 218.868C475.177 218.64 475.045 218.442 474.877 218.274C474.721 218.094 474.535 217.956 474.319 217.86C474.103 217.764 473.881 217.716 473.653 217.716C473.413 217.716 473.185 217.77 472.969 217.878C472.753 217.974 472.561 218.112 472.393 218.292C472.237 218.46 472.111 218.658 472.015 218.886C471.931 219.102 471.889 219.336 471.889 219.588C471.889 219.852 471.937 220.098 472.033 220.326C472.129 220.554 472.255 220.752 472.411 220.92C472.579 221.088 472.765 221.22 472.969 221.316C473.185 221.412 473.413 221.46 473.653 221.46ZM465.373 221.514L470.395 215.394L475.291 209.148L475.921 209.688L470.899 215.808L465.985 222.072L465.373 221.514Z" fill="#080A07"/>
<rect y="240" width="517" height="1" fill="#BCC0B7"/>
<rect y="256.5" width="18" height="18" rx="9" fill="#ED1D1D"/>
<path d="M29.566 259.22H39.754V272H38.134V260.66H31.186V272H29.566V259.22ZM44.1862 269.768L49.2982 262.604H50.5762V272H49.0282V264.98L44.0062 272H42.6382V262.604H44.1862V269.768ZM53.2203 262.604H54.7683V270.632H57.7923V262.604H59.3403V270.632H62.3823V262.604H63.9303V270.632H65.6403V274.952H64.2723V272H53.2203V262.604ZM71.1587 272.18C70.4507 272.18 69.8027 272.054 69.2147 271.802C68.6267 271.538 68.1227 271.184 67.7027 270.74C67.2827 270.296 66.9527 269.78 66.7127 269.192C66.4847 268.592 66.3707 267.962 66.3707 267.302C66.3707 266.642 66.4847 266.018 66.7127 265.43C66.9527 264.842 67.2827 264.326 67.7027 263.882C68.1347 263.438 68.6447 263.09 69.2327 262.838C69.8207 262.574 70.4687 262.442 71.1767 262.442C71.8847 262.442 72.5267 262.574 73.1027 262.838C73.6907 263.102 74.1887 263.456 74.5967 263.9C75.0047 264.332 75.3167 264.842 75.5327 265.43C75.7607 266.006 75.8747 266.606 75.8747 267.23C75.8747 267.362 75.8687 267.482 75.8567 267.59C75.8567 267.698 75.8507 267.782 75.8387 267.842H68.0447C68.0807 268.31 68.1887 268.736 68.3687 269.12C68.5487 269.504 68.7827 269.834 69.0707 270.11C69.3587 270.386 69.6827 270.602 70.0427 270.758C70.4147 270.914 70.8047 270.992 71.2127 270.992C71.5007 270.992 71.7827 270.956 72.0587 270.884C72.3347 270.8 72.5927 270.692 72.8327 270.56C73.0727 270.428 73.2827 270.266 73.4627 270.074C73.6547 269.882 73.7987 269.666 73.8947 269.426L75.2627 269.804C75.1067 270.152 74.8907 270.47 74.6147 270.758C74.3507 271.046 74.0387 271.298 73.6787 271.514C73.3307 271.718 72.9407 271.88 72.5087 272C72.0767 272.12 71.6267 272.18 71.1587 272.18ZM74.3807 266.672C74.3447 266.228 74.2307 265.82 74.0387 265.448C73.8587 265.064 73.6247 264.74 73.3367 264.476C73.0607 264.212 72.7367 264.008 72.3647 263.864C71.9927 263.708 71.5967 263.63 71.1767 263.63C70.7567 263.63 70.3607 263.708 69.9887 263.864C69.6167 264.008 69.2867 264.218 68.9987 264.494C68.7227 264.758 68.4947 265.076 68.3147 265.448C68.1467 265.82 68.0447 266.228 68.0087 266.672H74.3807ZM82.4414 262.604C82.7774 262.604 83.0894 262.664 83.3774 262.784C83.6654 262.892 83.9174 263.048 84.1334 263.252C84.3494 263.456 84.5174 263.702 84.6374 263.99C84.7574 264.266 84.8174 264.572 84.8174 264.908C84.8174 265.112 84.7934 265.322 84.7454 265.538C84.6974 265.742 84.6194 265.946 84.5114 266.15C84.4154 266.342 84.2834 266.522 84.1154 266.69C83.9474 266.858 83.7434 266.99 83.5034 267.086C84.0194 267.23 84.4274 267.5 84.7274 267.896C85.0274 268.28 85.1774 268.766 85.1774 269.354C85.1774 269.75 85.1054 270.116 84.9614 270.452C84.8174 270.776 84.6134 271.052 84.3494 271.28C84.0974 271.508 83.7914 271.688 83.4314 271.82C83.0834 271.94 82.6934 272 82.2614 272H77.7074V262.604H82.4414ZM81.8114 266.618C82.2674 266.618 82.6214 266.492 82.8734 266.24C83.1374 265.976 83.2694 265.616 83.2694 265.16C83.2694 264.776 83.1674 264.452 82.9634 264.188C82.7594 263.912 82.4174 263.774 81.9374 263.774H79.2554V266.618H81.8114ZM82.0814 270.83C82.5614 270.83 82.9394 270.68 83.2154 270.38C83.5034 270.068 83.6474 269.702 83.6474 269.282C83.6474 268.886 83.5154 268.538 83.2514 268.238C82.9874 267.938 82.6094 267.788 82.1174 267.788H79.2554V270.83H82.0814ZM87.1636 262.604H88.7116V265.844H90.4936C90.9016 265.844 91.2976 265.91 91.6816 266.042C92.0776 266.162 92.4256 266.354 92.7256 266.618C93.0376 266.87 93.2896 267.194 93.4816 267.59C93.6736 267.974 93.7696 268.43 93.7696 268.958C93.7696 269.486 93.6736 269.942 93.4816 270.326C93.2896 270.71 93.0376 271.028 92.7256 271.28C92.4256 271.52 92.0776 271.7 91.6816 271.82C91.2856 271.94 90.8836 272 90.4756 272H87.1636V262.604ZM94.6876 262.604H96.2356V272H94.6876V262.604ZM90.4756 270.668C90.9916 270.668 91.4056 270.53 91.7176 270.254C92.0416 269.966 92.2036 269.534 92.2036 268.958C92.2036 268.37 92.0296 267.926 91.6816 267.626C91.3456 267.326 90.9496 267.176 90.4936 267.176H88.7116V270.668H90.4756ZM102.993 272.18C102.285 272.18 101.637 272.054 101.049 271.802C100.461 271.538 99.9566 271.184 99.5366 270.74C99.1166 270.296 98.7866 269.78 98.5466 269.192C98.3186 268.592 98.2046 267.962 98.2046 267.302C98.2046 266.642 98.3186 266.018 98.5466 265.43C98.7866 264.842 99.1166 264.326 99.5366 263.882C99.9686 263.438 100.479 263.09 101.067 262.838C101.655 262.574 102.303 262.442 103.011 262.442C103.719 262.442 104.361 262.574 104.937 262.838C105.525 263.102 106.023 263.456 106.431 263.9C106.839 264.332 107.151 264.842 107.367 265.43C107.595 266.006 107.709 266.606 107.709 267.23C107.709 267.362 107.703 267.482 107.691 267.59C107.691 267.698 107.685 267.782 107.673 267.842H99.8786C99.9146 268.31 100.023 268.736 100.203 269.12C100.383 269.504 100.617 269.834 100.905 270.11C101.193 270.386 101.517 270.602 101.877 270.758C102.249 270.914 102.639 270.992 103.047 270.992C103.335 270.992 103.617 270.956 103.893 270.884C104.169 270.8 104.427 270.692 104.667 270.56C104.907 270.428 105.117 270.266 105.297 270.074C105.489 269.882 105.633 269.666 105.729 269.426L107.097 269.804C106.941 270.152 106.725 270.47 106.449 270.758C106.185 271.046 105.873 271.298 105.513 271.514C105.165 271.718 104.775 271.88 104.343 272C103.911 272.12 103.461 272.18 102.993 272.18ZM106.215 266.672C106.179 266.228 106.065 265.82 105.873 265.448C105.693 265.064 105.459 264.74 105.171 264.476C104.895 264.212 104.571 264.008 104.199 263.864C103.827 263.708 103.431 263.63 103.011 263.63C102.591 263.63 102.195 263.708 101.823 263.864C101.451 264.008 101.121 264.218 100.833 264.494C100.557 264.758 100.329 265.076 100.149 265.448C99.9806 265.82 99.8786 266.228 99.8426 266.672H106.215ZM118.828 262.604C119.164 262.604 119.476 262.664 119.764 262.784C120.052 262.892 120.304 263.048 120.52 263.252C120.736 263.456 120.904 263.702 121.024 263.99C121.144 264.266 121.204 264.572 121.204 264.908C121.204 265.112 121.18 265.322 121.132 265.538C121.084 265.742 121.006 265.946 120.898 266.15C120.802 266.342 120.67 266.522 120.502 266.69C120.334 266.858 120.13 266.99 119.89 267.086C120.406 267.23 120.814 267.5 121.114 267.896C121.414 268.28 121.564 268.766 121.564 269.354C121.564 269.75 121.492 270.116 121.348 270.452C121.204 270.776 121 271.052 120.736 271.28C120.484 271.508 120.178 271.688 119.818 271.82C119.47 271.94 119.08 272 118.648 272H114.094V262.604H118.828ZM118.198 266.618C118.654 266.618 119.008 266.492 119.26 266.24C119.524 265.976 119.656 265.616 119.656 265.16C119.656 264.776 119.554 264.452 119.35 264.188C119.146 263.912 118.804 263.774 118.324 263.774H115.642V266.618H118.198ZM118.468 270.83C118.948 270.83 119.326 270.68 119.602 270.38C119.89 270.068 120.034 269.702 120.034 269.282C120.034 268.886 119.902 268.538 119.638 268.238C119.374 267.938 118.996 267.788 118.504 267.788H115.642V270.83H118.468ZM127.618 272.18C126.91 272.18 126.262 272.048 125.674 271.784C125.098 271.52 124.6 271.166 124.18 270.722C123.772 270.278 123.454 269.762 123.226 269.174C122.998 268.586 122.884 267.968 122.884 267.32C122.884 266.66 122.998 266.036 123.226 265.448C123.466 264.86 123.79 264.344 124.198 263.9C124.618 263.456 125.116 263.102 125.692 262.838C126.28 262.574 126.922 262.442 127.618 262.442C128.314 262.442 128.956 262.574 129.544 262.838C130.132 263.102 130.63 263.456 131.038 263.9C131.458 264.344 131.782 264.86 132.01 265.448C132.25 266.036 132.37 266.66 132.37 267.32C132.37 267.968 132.256 268.586 132.028 269.174C131.8 269.762 131.476 270.278 131.056 270.722C130.636 271.166 130.132 271.52 129.544 271.784C128.968 272.048 128.326 272.18 127.618 272.18ZM124.504 267.338C124.504 267.83 124.582 268.286 124.738 268.706C124.906 269.126 125.128 269.492 125.404 269.804C125.692 270.116 126.022 270.362 126.394 270.542C126.778 270.722 127.186 270.812 127.618 270.812C128.05 270.812 128.452 270.722 128.824 270.542C129.208 270.362 129.544 270.116 129.832 269.804C130.12 269.48 130.342 269.108 130.498 268.688C130.666 268.256 130.75 267.794 130.75 267.302C130.75 266.822 130.666 266.372 130.498 265.952C130.342 265.52 130.12 265.148 129.832 264.836C129.544 264.512 129.208 264.26 128.824 264.08C128.452 263.9 128.05 263.81 127.618 263.81C127.186 263.81 126.778 263.906 126.394 264.098C126.022 264.278 125.692 264.53 125.404 264.854C125.128 265.166 124.906 265.538 124.738 265.97C124.582 266.39 124.504 266.846 124.504 267.338ZM132.89 270.704C133.274 270.668 133.592 270.578 133.844 270.434C134.108 270.278 134.324 270.008 134.492 269.624C134.672 269.228 134.822 268.682 134.942 267.986C135.062 267.278 135.182 266.36 135.302 265.232L135.59 262.604H141.44V272H139.892V263.846H137.048L136.778 265.88C136.61 267.104 136.43 268.112 136.238 268.904C136.058 269.684 135.83 270.308 135.554 270.776C135.278 271.232 134.948 271.556 134.564 271.748C134.18 271.94 133.712 272.054 133.16 272.09L132.89 270.704ZM148.132 272.18C147.424 272.18 146.776 272.048 146.188 271.784C145.612 271.52 145.114 271.166 144.694 270.722C144.286 270.278 143.968 269.762 143.74 269.174C143.512 268.586 143.398 267.968 143.398 267.32C143.398 266.66 143.512 266.036 143.74 265.448C143.98 264.86 144.304 264.344 144.712 263.9C145.132 263.456 145.63 263.102 146.206 262.838C146.794 262.574 147.436 262.442 148.132 262.442C148.828 262.442 149.47 262.574 150.058 262.838C150.646 263.102 151.144 263.456 151.552 263.9C151.972 264.344 152.296 264.86 152.524 265.448C152.764 266.036 152.884 266.66 152.884 267.32C152.884 267.968 152.77 268.586 152.542 269.174C152.314 269.762 151.99 270.278 151.57 270.722C151.15 271.166 150.646 271.52 150.058 271.784C149.482 272.048 148.84 272.18 148.132 272.18ZM145.018 267.338C145.018 267.83 145.096 268.286 145.252 268.706C145.42 269.126 145.642 269.492 145.918 269.804C146.206 270.116 146.536 270.362 146.908 270.542C147.292 270.722 147.7 270.812 148.132 270.812C148.564 270.812 148.966 270.722 149.338 270.542C149.722 270.362 150.058 270.116 150.346 269.804C150.634 269.48 150.856 269.108 151.012 268.688C151.18 268.256 151.264 267.794 151.264 267.302C151.264 266.822 151.18 266.372 151.012 265.952C150.856 265.52 150.634 265.148 150.346 264.836C150.058 264.512 149.722 264.26 149.338 264.08C148.966 263.9 148.564 263.81 148.132 263.81C147.7 263.81 147.292 263.906 146.908 264.098C146.536 264.278 146.206 264.53 145.918 264.854C145.642 265.166 145.42 265.538 145.252 265.97C145.096 266.39 145.018 266.846 145.018 267.338ZM160.437 262.604H162.201L158.511 267.176L162.453 272H160.707L157.485 267.878H156.387V272H154.839V262.604H156.387V266.69H157.305L160.437 262.604ZM165.387 266.51H170.139V262.604H171.687V272H170.139V267.824H165.387V272H163.839V262.604H165.387V266.51ZM176.692 272.18C176.248 272.18 175.834 272.108 175.45 271.964C175.066 271.808 174.73 271.598 174.442 271.334C174.166 271.07 173.944 270.764 173.776 270.416C173.62 270.056 173.542 269.666 173.542 269.246C173.542 268.814 173.638 268.424 173.83 268.076C174.022 267.716 174.292 267.41 174.64 267.158C175 266.906 175.42 266.708 175.9 266.564C176.392 266.42 176.926 266.348 177.502 266.348C177.958 266.348 178.42 266.39 178.888 266.474C179.356 266.558 179.77 266.672 180.13 266.816V266.06C180.13 265.292 179.914 264.692 179.482 264.26C179.05 263.816 178.438 263.594 177.646 263.594C176.698 263.594 175.702 263.96 174.658 264.692L174.136 263.666C175.348 262.85 176.566 262.442 177.79 262.442C179.026 262.442 179.986 262.772 180.67 263.432C181.366 264.092 181.714 265.022 181.714 266.222V270.056C181.714 270.428 181.882 270.62 182.218 270.632V272C182.05 272.024 181.912 272.042 181.804 272.054C181.696 272.066 181.582 272.072 181.462 272.072C181.15 272.072 180.898 271.982 180.706 271.802C180.526 271.61 180.418 271.382 180.382 271.118L180.346 270.452C179.926 271.016 179.392 271.448 178.744 271.748C178.108 272.036 177.424 272.18 176.692 272.18ZM177.106 270.992C177.67 270.992 178.192 270.89 178.672 270.686C179.164 270.47 179.536 270.188 179.788 269.84C180.016 269.612 180.13 269.378 180.13 269.138V267.752C179.362 267.452 178.564 267.302 177.736 267.302C176.944 267.302 176.296 267.47 175.792 267.806C175.3 268.142 175.054 268.58 175.054 269.12C175.054 269.384 175.102 269.63 175.198 269.858C175.306 270.086 175.45 270.284 175.63 270.452C175.822 270.62 176.044 270.752 176.296 270.848C176.548 270.944 176.818 270.992 177.106 270.992Z" fill="#080A07"/>
<path d="M385.062 267.788C385.062 268.4 384.942 268.976 384.702 269.516C384.474 270.044 384.156 270.506 383.748 270.902C383.34 271.298 382.86 271.61 382.308 271.838C381.756 272.066 381.162 272.18 380.526 272.18C379.854 272.18 379.236 272.06 378.672 271.82C378.108 271.568 377.622 271.214 377.214 270.758C376.818 270.302 376.506 269.744 376.278 269.084C376.05 268.412 375.936 267.662 375.936 266.834C375.936 265.538 376.05 264.41 376.278 263.45C376.506 262.478 376.824 261.674 377.232 261.038C377.652 260.39 378.15 259.91 378.726 259.598C379.302 259.286 379.944 259.13 380.652 259.13C381.504 259.13 382.266 259.34 382.938 259.76C383.61 260.18 384.12 260.762 384.468 261.506L383.676 262.226C383.424 261.614 383.028 261.128 382.488 260.768C381.948 260.396 381.336 260.21 380.652 260.21C380.124 260.21 379.644 260.336 379.212 260.588C378.78 260.84 378.408 261.206 378.096 261.686C377.796 262.154 377.556 262.736 377.376 263.432C377.208 264.128 377.124 264.914 377.124 265.79C377.388 265.082 377.838 264.518 378.474 264.098C379.122 263.678 379.854 263.468 380.67 263.468C381.282 263.468 381.852 263.582 382.38 263.81C382.92 264.026 383.388 264.332 383.784 264.728C384.18 265.112 384.492 265.568 384.72 266.096C384.948 266.624 385.062 267.188 385.062 267.788ZM380.562 271.1C381.018 271.1 381.444 271.016 381.84 270.848C382.248 270.668 382.602 270.428 382.902 270.128C383.214 269.828 383.454 269.48 383.622 269.084C383.802 268.676 383.892 268.244 383.892 267.788C383.892 267.332 383.802 266.906 383.622 266.51C383.442 266.102 383.196 265.748 382.884 265.448C382.584 265.148 382.23 264.914 381.822 264.746C381.426 264.566 381 264.476 380.544 264.476C380.088 264.476 379.656 264.566 379.248 264.746C378.852 264.914 378.498 265.148 378.186 265.448C377.886 265.748 377.646 266.102 377.466 266.51C377.298 266.906 377.214 267.332 377.214 267.788C377.214 268.244 377.304 268.67 377.484 269.066C377.664 269.462 377.904 269.816 378.204 270.128C378.516 270.428 378.87 270.668 379.266 270.848C379.674 271.016 380.106 271.1 380.562 271.1ZM387.016 272V270.236H388.078V272H387.016ZM396.708 260.354H389.814V259.22H398.652L392.172 272H390.804L396.708 260.354ZM410.322 263.558H405.804V272H404.598V262.622H410.322V263.558Z" fill="#080A07"/>
<rect x="421" y="241" width="1" height="49" fill="#BCC0B7"/>
<path d="M437.13 272.162C436.566 272.162 436.038 272.09 435.546 271.946C435.054 271.802 434.622 271.604 434.25 271.352C433.878 271.088 433.572 270.776 433.332 270.416C433.092 270.044 432.936 269.636 432.864 269.192L433.62 268.508C433.644 268.82 433.74 269.126 433.908 269.426C434.088 269.726 434.328 269.996 434.628 270.236C434.94 270.464 435.306 270.65 435.726 270.794C436.158 270.938 436.626 271.01 437.13 271.01C437.586 271.01 438.006 270.95 438.39 270.83C438.786 270.71 439.128 270.542 439.416 270.326C439.704 270.11 439.926 269.852 440.082 269.552C440.25 269.24 440.334 268.904 440.334 268.544C440.334 268.148 440.238 267.794 440.046 267.482C439.854 267.17 439.578 266.906 439.218 266.69C438.858 266.462 438.426 266.294 437.922 266.186C437.418 266.066 436.854 266.006 436.23 266.006H435.618V264.944H436.23C437.406 264.944 438.324 264.752 438.984 264.368C439.656 263.984 439.992 263.408 439.992 262.64C439.992 262.268 439.914 261.932 439.758 261.632C439.602 261.32 439.386 261.056 439.11 260.84C438.846 260.624 438.534 260.456 438.174 260.336C437.814 260.216 437.436 260.156 437.04 260.156C436.248 260.156 435.57 260.33 435.006 260.678C434.442 261.026 434.046 261.458 433.818 261.974L432.972 261.146C433.14 260.822 433.362 260.534 433.638 260.282C433.926 260.018 434.244 259.796 434.592 259.616C434.952 259.436 435.336 259.298 435.744 259.202C436.164 259.106 436.59 259.058 437.022 259.058C437.634 259.058 438.198 259.148 438.714 259.328C439.23 259.508 439.674 259.76 440.046 260.084C440.43 260.396 440.73 260.768 440.946 261.2C441.162 261.632 441.27 262.1 441.27 262.604C441.27 263.336 441.054 263.942 440.622 264.422C440.202 264.89 439.584 265.226 438.768 265.43C439.2 265.514 439.59 265.658 439.938 265.862C440.286 266.054 440.58 266.294 440.82 266.582C441.072 266.87 441.264 267.194 441.396 267.554C441.528 267.914 441.594 268.292 441.594 268.688C441.594 269.228 441.474 269.714 441.234 270.146C440.994 270.566 440.67 270.926 440.262 271.226C439.854 271.526 439.38 271.76 438.84 271.928C438.3 272.084 437.73 272.162 437.13 272.162ZM447.642 272.162C447.078 272.162 446.55 272.09 446.058 271.946C445.566 271.802 445.134 271.604 444.762 271.352C444.39 271.088 444.084 270.776 443.844 270.416C443.604 270.044 443.448 269.636 443.376 269.192L444.132 268.508C444.156 268.82 444.252 269.126 444.42 269.426C444.6 269.726 444.84 269.996 445.14 270.236C445.452 270.464 445.818 270.65 446.238 270.794C446.67 270.938 447.138 271.01 447.642 271.01C448.098 271.01 448.518 270.95 448.902 270.83C449.298 270.71 449.64 270.542 449.928 270.326C450.216 270.11 450.438 269.852 450.594 269.552C450.762 269.24 450.846 268.904 450.846 268.544C450.846 268.148 450.75 267.794 450.558 267.482C450.366 267.17 450.09 266.906 449.73 266.69C449.37 266.462 448.938 266.294 448.434 266.186C447.93 266.066 447.366 266.006 446.742 266.006H446.13V264.944H446.742C447.918 264.944 448.836 264.752 449.496 264.368C450.168 263.984 450.504 263.408 450.504 262.64C450.504 262.268 450.426 261.932 450.27 261.632C450.114 261.32 449.898 261.056 449.622 260.84C449.358 260.624 449.046 260.456 448.686 260.336C448.326 260.216 447.948 260.156 447.552 260.156C446.76 260.156 446.082 260.33 445.518 260.678C444.954 261.026 444.558 261.458 444.33 261.974L443.484 261.146C443.652 260.822 443.874 260.534 444.15 260.282C444.438 260.018 444.756 259.796 445.104 259.616C445.464 259.436 445.848 259.298 446.256 259.202C446.676 259.106 447.102 259.058 447.534 259.058C448.146 259.058 448.71 259.148 449.226 259.328C449.742 259.508 450.186 259.76 450.558 260.084C450.942 260.396 451.242 260.768 451.458 261.2C451.674 261.632 451.782 262.1 451.782 262.604C451.782 263.336 451.566 263.942 451.134 264.422C450.714 264.89 450.096 265.226 449.28 265.43C449.712 265.514 450.102 265.658 450.45 265.862C450.798 266.054 451.092 266.294 451.332 266.582C451.584 266.87 451.776 267.194 451.908 267.554C452.04 267.914 452.106 268.292 452.106 268.688C452.106 269.228 451.986 269.714 451.746 270.146C451.506 270.566 451.182 270.926 450.774 271.226C450.366 271.526 449.892 271.76 449.352 271.928C448.812 272.084 448.242 272.162 447.642 272.162ZM454.193 272V270.236H455.255V272H454.193ZM461.528 263.882C462.104 263.882 462.644 263.984 463.148 264.188C463.664 264.38 464.108 264.656 464.48 265.016C464.852 265.376 465.146 265.808 465.362 266.312C465.578 266.804 465.686 267.35 465.686 267.95C465.686 268.586 465.566 269.162 465.326 269.678C465.098 270.194 464.786 270.638 464.39 271.01C463.994 271.382 463.526 271.67 462.986 271.874C462.446 272.078 461.87 272.18 461.258 272.18C460.346 272.18 459.524 271.958 458.792 271.514C458.072 271.07 457.526 270.47 457.154 269.714L457.982 269.102C458.306 269.702 458.762 270.182 459.35 270.542C459.938 270.89 460.58 271.064 461.276 271.064C461.72 271.064 462.134 270.992 462.518 270.848C462.902 270.692 463.238 270.482 463.526 270.218C463.814 269.942 464.036 269.612 464.192 269.228C464.36 268.844 464.444 268.424 464.444 267.968C464.444 267.524 464.366 267.122 464.21 266.762C464.054 266.39 463.838 266.072 463.562 265.808C463.286 265.544 462.962 265.34 462.59 265.196C462.218 265.04 461.816 264.962 461.384 264.962C460.82 264.962 460.286 265.088 459.782 265.34C459.29 265.592 458.888 265.946 458.576 266.402H457.424C457.436 266.33 457.466 266.174 457.514 265.934C457.574 265.682 457.64 265.382 457.712 265.034C457.784 264.674 457.862 264.284 457.946 263.864C458.03 263.444 458.114 263.018 458.198 262.586C458.402 261.578 458.624 260.456 458.864 259.22H465.038V260.354H459.782L458.882 264.944C459.194 264.596 459.578 264.332 460.034 264.152C460.49 263.972 460.988 263.882 461.528 263.882ZM469.856 264.206C469.484 264.206 469.13 264.14 468.794 264.008C468.47 263.876 468.188 263.696 467.948 263.468C467.708 263.228 467.516 262.952 467.372 262.64C467.228 262.328 467.156 261.992 467.156 261.632C467.156 261.272 467.228 260.936 467.372 260.624C467.516 260.312 467.708 260.042 467.948 259.814C468.188 259.574 468.47 259.388 468.794 259.256C469.13 259.112 469.484 259.04 469.856 259.04C470.228 259.04 470.576 259.112 470.9 259.256C471.224 259.388 471.506 259.574 471.746 259.814C471.998 260.042 472.19 260.312 472.322 260.624C472.466 260.936 472.538 261.272 472.538 261.632C472.538 261.992 472.466 262.328 472.322 262.64C472.19 262.952 471.998 263.228 471.746 263.468C471.506 263.696 471.224 263.876 470.9 264.008C470.576 264.14 470.228 264.206 469.856 264.206ZM469.856 263.504C470.096 263.504 470.324 263.456 470.54 263.36C470.756 263.252 470.942 263.114 471.098 262.946C471.266 262.766 471.392 262.568 471.476 262.352C471.572 262.124 471.62 261.884 471.62 261.632C471.62 261.368 471.572 261.122 471.476 260.894C471.38 260.666 471.248 260.468 471.08 260.3C470.924 260.132 470.738 260 470.522 259.904C470.306 259.808 470.084 259.76 469.856 259.76C469.604 259.76 469.37 259.814 469.154 259.922C468.938 260.018 468.746 260.156 468.578 260.336C468.422 260.504 468.296 260.702 468.2 260.93C468.116 261.146 468.074 261.38 468.074 261.632C468.074 261.884 468.122 262.124 468.218 262.352C468.314 262.58 468.44 262.784 468.596 262.964C468.764 263.132 468.956 263.264 469.172 263.36C469.388 263.456 469.616 263.504 469.856 263.504ZM475.886 272.18C475.514 272.18 475.166 272.114 474.842 271.982C474.518 271.85 474.23 271.67 473.978 271.442C473.738 271.202 473.546 270.926 473.402 270.614C473.27 270.29 473.204 269.948 473.204 269.588C473.204 269.228 473.27 268.892 473.402 268.58C473.546 268.268 473.738 267.998 473.978 267.77C474.23 267.53 474.518 267.344 474.842 267.212C475.166 267.08 475.514 267.014 475.886 267.014C476.258 267.014 476.606 267.08 476.93 267.212C477.266 267.344 477.554 267.53 477.794 267.77C478.034 267.998 478.226 268.268 478.37 268.58C478.514 268.892 478.586 269.228 478.586 269.588C478.586 269.948 478.514 270.29 478.37 270.614C478.226 270.926 478.034 271.202 477.794 271.442C477.554 271.67 477.266 271.85 476.93 271.982C476.606 272.114 476.258 272.18 475.886 272.18ZM475.886 271.46C476.138 271.46 476.366 271.412 476.57 271.316C476.786 271.208 476.972 271.07 477.128 270.902C477.296 270.734 477.422 270.536 477.506 270.308C477.602 270.08 477.65 269.84 477.65 269.588C477.65 269.336 477.602 269.096 477.506 268.868C477.41 268.64 477.278 268.442 477.11 268.274C476.954 268.094 476.768 267.956 476.552 267.86C476.336 267.764 476.114 267.716 475.886 267.716C475.646 267.716 475.418 267.77 475.202 267.878C474.986 267.974 474.794 268.112 474.626 268.292C474.47 268.46 474.344 268.658 474.248 268.886C474.164 269.102 474.122 269.336 474.122 269.588C474.122 269.852 474.17 270.098 474.266 270.326C474.362 270.554 474.488 270.752 474.644 270.92C474.812 271.088 474.998 271.22 475.202 271.316C475.418 271.412 475.646 271.46 475.886 271.46ZM467.606 271.514L472.628 265.394L477.524 259.148L478.154 259.688L473.132 265.808L468.218 272.072L467.606 271.514Z" fill="#080A07"/>
<rect y="290" width="517" height="1" fill="#BCC0B7"/>
<rect x="421" y="291" width="1" height="49" fill="#BCC0B7"/>
</svg>
