<svg width="61" height="61" viewBox="0 0 61 61" fill="none" xmlns="http://www.w3.org/2000/svg">
<circle cx="30.5" cy="30.5" r="30.5" fill="url(#paint0_linear_990_157197)"/>
<g clip-path="url(#clip0_990_157197)">
<path d="M31.0447 11.9824C25.5017 11.9824 20.9922 16.492 20.9922 22.0349C20.9922 27.5779 25.5017 32.0874 31.0447 32.0874C36.5876 32.0874 41.0972 27.5779 41.0972 22.0349C41.0972 16.492 36.5876 11.9824 31.0447 11.9824ZM31.0447 29.8535C26.7335 29.8535 23.2261 26.3461 23.2261 22.0349C23.2261 17.7237 26.7335 14.2163 31.0447 14.2163C35.3559 14.2163 38.8633 17.7237 38.8633 22.0349C38.8633 26.3461 35.3559 29.8535 31.0447 29.8535Z" fill="white"/>
<g opacity="0.7">
<path d="M43.5504 38.6537C40.7983 35.8592 37.1498 34.3203 33.2771 34.3203H28.8093C24.9367 34.3203 21.2881 35.8592 18.536 38.6537C15.7973 41.4344 14.2891 45.105 14.2891 48.9895C14.2891 49.6064 14.7892 50.1064 15.406 50.1064H46.6804C47.2973 50.1064 47.7974 49.6064 47.7974 48.9895C47.7974 45.105 46.2891 41.4344 43.5504 38.6537ZM16.5721 47.8726C17.1317 41.5368 22.4063 36.5542 28.8093 36.5542H33.2771C39.6801 36.5542 44.9547 41.5368 45.5143 47.8726H16.5721Z" fill="white"/>
</g>
</g>
<defs>
<linearGradient id="paint0_linear_990_157197" x1="65.7387" y1="74.1911" x2="23.7065" y2="15.6433" gradientUnits="userSpaceOnUse">
<stop stop-color="#EE7301"/>
<stop offset="1" stop-color="#FFA552"/>
</linearGradient>
<clipPath id="clip0_990_157197">
<rect width="38.125" height="38.125" fill="white" transform="translate(11.9805 11.9824)"/>
</clipPath>
</defs>
</svg>
