<svg width="806" height="286" viewBox="0 0 806 286" fill="none" xmlns="http://www.w3.org/2000/svg">
<rect x="34" y="250" width="772" height="1" fill="#BCC0B7"/>
<path d="M60.21 280.18C59.334 280.156 58.56 279.946 57.888 279.55C57.216 279.154 56.652 278.638 56.196 278.002C55.752 277.354 55.416 276.658 55.188 275.914C54.96 275.158 54.846 274.42 54.846 273.7C54.846 272.932 54.966 272.164 55.206 271.396C55.458 270.628 55.818 269.932 56.286 269.308C56.754 268.672 57.318 268.168 57.978 267.796C58.638 267.412 59.382 267.22 60.21 267.22C61.098 267.22 61.872 267.424 62.532 267.832C63.204 268.24 63.762 268.768 64.206 269.416C64.662 270.064 65.004 270.766 65.232 271.522C65.46 272.278 65.574 273.004 65.574 273.7C65.574 274.48 65.448 275.254 65.196 276.022C64.956 276.778 64.602 277.468 64.134 278.092C63.666 278.716 63.102 279.22 62.442 279.604C61.782 279.976 61.038 280.168 60.21 280.18ZM56.484 273.7C56.508 274.288 56.598 274.876 56.754 275.464C56.91 276.052 57.144 276.592 57.456 277.084C57.768 277.576 58.152 277.972 58.608 278.272C59.064 278.572 59.598 278.722 60.21 278.722C60.846 278.722 61.398 278.566 61.866 278.254C62.334 277.93 62.718 277.516 63.018 277.012C63.33 276.496 63.558 275.95 63.702 275.374C63.858 274.786 63.936 274.228 63.936 273.7C63.936 273.112 63.852 272.524 63.684 271.936C63.528 271.348 63.288 270.808 62.964 270.316C62.64 269.824 62.25 269.428 61.794 269.128C61.338 268.828 60.81 268.678 60.21 268.678C59.574 268.678 59.022 268.84 58.554 269.164C58.086 269.476 57.696 269.89 57.384 270.406C57.084 270.91 56.856 271.456 56.7 272.044C56.556 272.62 56.484 273.172 56.484 273.7ZM73.9697 278.56V280H67.6157V278.56H70.0637V268.75C69.9677 268.894 69.8117 269.056 69.5957 269.236C69.3797 269.404 69.1277 269.572 68.8397 269.74C68.5637 269.896 68.2817 270.028 67.9937 270.136C67.7057 270.244 67.4417 270.298 67.2017 270.298V268.822C67.5257 268.822 67.8497 268.738 68.1737 268.57C68.5097 268.402 68.8157 268.204 69.0917 267.976C69.3797 267.748 69.6077 267.544 69.7757 267.364C69.9557 267.184 70.0517 267.088 70.0637 267.076H71.6837V278.56H73.9697ZM75.525 280V277.984H76.857V280H75.525ZM84.2217 280.18C83.3457 280.156 82.5717 279.946 81.8997 279.55C81.2277 279.154 80.6637 278.638 80.2077 278.002C79.7637 277.354 79.4277 276.658 79.1997 275.914C78.9717 275.158 78.8577 274.42 78.8577 273.7C78.8577 272.932 78.9777 272.164 79.2177 271.396C79.4697 270.628 79.8297 269.932 80.2977 269.308C80.7657 268.672 81.3297 268.168 81.9897 267.796C82.6497 267.412 83.3937 267.22 84.2217 267.22C85.1097 267.22 85.8837 267.424 86.5437 267.832C87.2157 268.24 87.7737 268.768 88.2177 269.416C88.6737 270.064 89.0157 270.766 89.2437 271.522C89.4717 272.278 89.5857 273.004 89.5857 273.7C89.5857 274.48 89.4597 275.254 89.2077 276.022C88.9677 276.778 88.6137 277.468 88.1457 278.092C87.6777 278.716 87.1137 279.22 86.4537 279.604C85.7937 279.976 85.0497 280.168 84.2217 280.18ZM80.4957 273.7C80.5197 274.288 80.6097 274.876 80.7657 275.464C80.9217 276.052 81.1557 276.592 81.4677 277.084C81.7797 277.576 82.1637 277.972 82.6197 278.272C83.0757 278.572 83.6097 278.722 84.2217 278.722C84.8577 278.722 85.4097 278.566 85.8777 278.254C86.3457 277.93 86.7297 277.516 87.0297 277.012C87.3417 276.496 87.5697 275.95 87.7137 275.374C87.8697 274.786 87.9477 274.228 87.9477 273.7C87.9477 273.112 87.8637 272.524 87.6957 271.936C87.5397 271.348 87.2997 270.808 86.9757 270.316C86.6517 269.824 86.2617 269.428 85.8057 269.128C85.3497 268.828 84.8217 268.678 84.2217 268.678C83.5857 268.678 83.0337 268.84 82.5657 269.164C82.0977 269.476 81.7077 269.89 81.3957 270.406C81.0957 270.91 80.8677 271.456 80.7117 272.044C80.5677 272.62 80.4957 273.172 80.4957 273.7ZM97.9815 278.56V280H91.6275V278.56H94.0755V268.75C93.9795 268.894 93.8235 269.056 93.6075 269.236C93.3915 269.404 93.1395 269.572 92.8515 269.74C92.5755 269.896 92.2935 270.028 92.0055 270.136C91.7175 270.244 91.4535 270.298 91.2135 270.298V268.822C91.5375 268.822 91.8615 268.738 92.1855 268.57C92.5215 268.402 92.8275 268.204 93.1035 267.976C93.3915 267.748 93.6195 267.544 93.7875 267.364C93.9675 267.184 94.0635 267.088 94.0755 267.076H95.6955V278.56H97.9815Z" fill="#080A07"/>
<path d="M229.71 280.18C228.834 280.156 228.06 279.946 227.388 279.55C226.716 279.154 226.152 278.638 225.696 278.002C225.252 277.354 224.916 276.658 224.688 275.914C224.46 275.158 224.346 274.42 224.346 273.7C224.346 272.932 224.466 272.164 224.706 271.396C224.958 270.628 225.318 269.932 225.786 269.308C226.254 268.672 226.818 268.168 227.478 267.796C228.138 267.412 228.882 267.22 229.71 267.22C230.598 267.22 231.372 267.424 232.032 267.832C232.704 268.24 233.262 268.768 233.706 269.416C234.162 270.064 234.504 270.766 234.732 271.522C234.96 272.278 235.074 273.004 235.074 273.7C235.074 274.48 234.948 275.254 234.696 276.022C234.456 276.778 234.102 277.468 233.634 278.092C233.166 278.716 232.602 279.22 231.942 279.604C231.282 279.976 230.538 280.168 229.71 280.18ZM225.984 273.7C226.008 274.288 226.098 274.876 226.254 275.464C226.41 276.052 226.644 276.592 226.956 277.084C227.268 277.576 227.652 277.972 228.108 278.272C228.564 278.572 229.098 278.722 229.71 278.722C230.346 278.722 230.898 278.566 231.366 278.254C231.834 277.93 232.218 277.516 232.518 277.012C232.83 276.496 233.058 275.95 233.202 275.374C233.358 274.786 233.436 274.228 233.436 273.7C233.436 273.112 233.352 272.524 233.184 271.936C233.028 271.348 232.788 270.808 232.464 270.316C232.14 269.824 231.75 269.428 231.294 269.128C230.838 268.828 230.31 268.678 229.71 268.678C229.074 268.678 228.522 268.84 228.054 269.164C227.586 269.476 227.196 269.89 226.884 270.406C226.584 270.91 226.356 271.456 226.2 272.044C226.056 272.62 225.984 273.172 225.984 273.7ZM243.47 278.56V280H237.116V278.56H239.564V268.75C239.468 268.894 239.312 269.056 239.096 269.236C238.88 269.404 238.628 269.572 238.34 269.74C238.064 269.896 237.782 270.028 237.494 270.136C237.206 270.244 236.942 270.298 236.702 270.298V268.822C237.026 268.822 237.35 268.738 237.674 268.57C238.01 268.402 238.316 268.204 238.592 267.976C238.88 267.748 239.108 267.544 239.276 267.364C239.456 267.184 239.552 267.088 239.564 267.076H241.184V278.56H243.47ZM245.025 280V277.984H246.357V280H245.025ZM253.722 280.18C252.846 280.156 252.072 279.946 251.4 279.55C250.728 279.154 250.164 278.638 249.708 278.002C249.264 277.354 248.928 276.658 248.7 275.914C248.472 275.158 248.358 274.42 248.358 273.7C248.358 272.932 248.478 272.164 248.718 271.396C248.97 270.628 249.33 269.932 249.798 269.308C250.266 268.672 250.83 268.168 251.49 267.796C252.15 267.412 252.894 267.22 253.722 267.22C254.61 267.22 255.384 267.424 256.044 267.832C256.716 268.24 257.274 268.768 257.718 269.416C258.174 270.064 258.516 270.766 258.744 271.522C258.972 272.278 259.086 273.004 259.086 273.7C259.086 274.48 258.96 275.254 258.708 276.022C258.468 276.778 258.114 277.468 257.646 278.092C257.178 278.716 256.614 279.22 255.954 279.604C255.294 279.976 254.55 280.168 253.722 280.18ZM249.996 273.7C250.02 274.288 250.11 274.876 250.266 275.464C250.422 276.052 250.656 276.592 250.968 277.084C251.28 277.576 251.664 277.972 252.12 278.272C252.576 278.572 253.11 278.722 253.722 278.722C254.358 278.722 254.91 278.566 255.378 278.254C255.846 277.93 256.23 277.516 256.53 277.012C256.842 276.496 257.07 275.95 257.214 275.374C257.37 274.786 257.448 274.228 257.448 273.7C257.448 273.112 257.364 272.524 257.196 271.936C257.04 271.348 256.8 270.808 256.476 270.316C256.152 269.824 255.762 269.428 255.306 269.128C254.85 268.828 254.322 268.678 253.722 268.678C253.086 268.678 252.534 268.84 252.066 269.164C251.598 269.476 251.208 269.89 250.896 270.406C250.596 270.91 250.368 271.456 250.212 272.044C250.068 272.62 249.996 273.172 249.996 273.7ZM260.767 280C260.767 279.28 260.827 278.644 260.947 278.092C261.079 277.528 261.265 277.024 261.505 276.58C261.757 276.136 262.057 275.746 262.405 275.41C262.753 275.074 263.149 274.774 263.593 274.51C264.061 274.234 264.541 273.982 265.033 273.754C265.525 273.526 265.981 273.286 266.401 273.034C266.821 272.782 267.157 272.482 267.409 272.134C267.673 271.774 267.805 271.33 267.805 270.802C267.805 270.382 267.715 270.004 267.535 269.668C267.355 269.32 267.085 269.044 266.725 268.84C266.365 268.636 265.903 268.534 265.339 268.534C264.775 268.534 264.265 268.63 263.809 268.822C263.365 269.014 262.981 269.242 262.657 269.506C262.333 269.77 262.075 270.022 261.883 270.262L260.857 269.236C260.953 269.116 261.121 268.936 261.361 268.696C261.613 268.456 261.931 268.21 262.315 267.958C262.711 267.706 263.173 267.496 263.701 267.328C264.229 267.148 264.829 267.058 265.501 267.058C266.401 267.058 267.151 267.226 267.751 267.562C268.351 267.898 268.801 268.348 269.101 268.912C269.413 269.476 269.569 270.1 269.569 270.784C269.569 271.396 269.455 271.924 269.227 272.368C268.999 272.8 268.705 273.166 268.345 273.466C267.985 273.766 267.589 274.03 267.157 274.258C266.737 274.486 266.329 274.702 265.933 274.906C265.177 275.266 264.577 275.596 264.133 275.896C263.689 276.196 263.347 276.49 263.107 276.778C262.879 277.054 262.723 277.336 262.639 277.624C262.567 277.912 262.525 278.224 262.513 278.56H269.587V280H260.767Z" fill="#080A07"/>
<path d="M402.21 280.18C401.334 280.156 400.56 279.946 399.888 279.55C399.216 279.154 398.652 278.638 398.196 278.002C397.752 277.354 397.416 276.658 397.188 275.914C396.96 275.158 396.846 274.42 396.846 273.7C396.846 272.932 396.966 272.164 397.206 271.396C397.458 270.628 397.818 269.932 398.286 269.308C398.754 268.672 399.318 268.168 399.978 267.796C400.638 267.412 401.382 267.22 402.21 267.22C403.098 267.22 403.872 267.424 404.532 267.832C405.204 268.24 405.762 268.768 406.206 269.416C406.662 270.064 407.004 270.766 407.232 271.522C407.46 272.278 407.574 273.004 407.574 273.7C407.574 274.48 407.448 275.254 407.196 276.022C406.956 276.778 406.602 277.468 406.134 278.092C405.666 278.716 405.102 279.22 404.442 279.604C403.782 279.976 403.038 280.168 402.21 280.18ZM398.484 273.7C398.508 274.288 398.598 274.876 398.754 275.464C398.91 276.052 399.144 276.592 399.456 277.084C399.768 277.576 400.152 277.972 400.608 278.272C401.064 278.572 401.598 278.722 402.21 278.722C402.846 278.722 403.398 278.566 403.866 278.254C404.334 277.93 404.718 277.516 405.018 277.012C405.33 276.496 405.558 275.95 405.702 275.374C405.858 274.786 405.936 274.228 405.936 273.7C405.936 273.112 405.852 272.524 405.684 271.936C405.528 271.348 405.288 270.808 404.964 270.316C404.64 269.824 404.25 269.428 403.794 269.128C403.338 268.828 402.81 268.678 402.21 268.678C401.574 268.678 401.022 268.84 400.554 269.164C400.086 269.476 399.696 269.89 399.384 270.406C399.084 270.91 398.856 271.456 398.7 272.044C398.556 272.62 398.484 273.172 398.484 273.7ZM415.97 278.56V280H409.616V278.56H412.064V268.75C411.968 268.894 411.812 269.056 411.596 269.236C411.38 269.404 411.128 269.572 410.84 269.74C410.564 269.896 410.282 270.028 409.994 270.136C409.706 270.244 409.442 270.298 409.202 270.298V268.822C409.526 268.822 409.85 268.738 410.174 268.57C410.51 268.402 410.816 268.204 411.092 267.976C411.38 267.748 411.608 267.544 411.776 267.364C411.956 267.184 412.052 267.088 412.064 267.076H413.684V278.56H415.97ZM417.525 280V277.984H418.857V280H417.525ZM426.222 280.18C425.346 280.156 424.572 279.946 423.9 279.55C423.228 279.154 422.664 278.638 422.208 278.002C421.764 277.354 421.428 276.658 421.2 275.914C420.972 275.158 420.858 274.42 420.858 273.7C420.858 272.932 420.978 272.164 421.218 271.396C421.47 270.628 421.83 269.932 422.298 269.308C422.766 268.672 423.33 268.168 423.99 267.796C424.65 267.412 425.394 267.22 426.222 267.22C427.11 267.22 427.884 267.424 428.544 267.832C429.216 268.24 429.774 268.768 430.218 269.416C430.674 270.064 431.016 270.766 431.244 271.522C431.472 272.278 431.586 273.004 431.586 273.7C431.586 274.48 431.46 275.254 431.208 276.022C430.968 276.778 430.614 277.468 430.146 278.092C429.678 278.716 429.114 279.22 428.454 279.604C427.794 279.976 427.05 280.168 426.222 280.18ZM422.496 273.7C422.52 274.288 422.61 274.876 422.766 275.464C422.922 276.052 423.156 276.592 423.468 277.084C423.78 277.576 424.164 277.972 424.62 278.272C425.076 278.572 425.61 278.722 426.222 278.722C426.858 278.722 427.41 278.566 427.878 278.254C428.346 277.93 428.73 277.516 429.03 277.012C429.342 276.496 429.57 275.95 429.714 275.374C429.87 274.786 429.948 274.228 429.948 273.7C429.948 273.112 429.864 272.524 429.696 271.936C429.54 271.348 429.3 270.808 428.976 270.316C428.652 269.824 428.262 269.428 427.806 269.128C427.35 268.828 426.822 268.678 426.222 268.678C425.586 268.678 425.034 268.84 424.566 269.164C424.098 269.476 423.708 269.89 423.396 270.406C423.096 270.91 422.868 271.456 422.712 272.044C422.568 272.62 422.496 273.172 422.496 273.7ZM437.497 280.162C436.765 280.162 436.099 280.048 435.499 279.82C434.911 279.58 434.419 279.25 434.023 278.83C433.639 278.398 433.387 277.9 433.267 277.336L434.167 276.382C434.203 276.73 434.359 277.084 434.635 277.444C434.911 277.804 435.289 278.104 435.769 278.344C436.261 278.572 436.831 278.686 437.479 278.686C438.031 278.686 438.529 278.596 438.973 278.416C439.417 278.224 439.771 277.96 440.035 277.624C440.299 277.288 440.431 276.898 440.431 276.454C440.431 275.962 440.269 275.542 439.945 275.194C439.621 274.846 439.159 274.582 438.559 274.402C437.971 274.222 437.269 274.132 436.453 274.132H435.841V272.782H436.453C437.557 272.782 438.439 272.608 439.099 272.26C439.759 271.9 440.089 271.366 440.089 270.658C440.089 270.202 439.963 269.812 439.711 269.488C439.471 269.152 439.147 268.9 438.739 268.732C438.343 268.552 437.917 268.462 437.461 268.462C436.693 268.462 436.039 268.636 435.499 268.984C434.971 269.32 434.599 269.716 434.383 270.172L433.321 269.074C433.561 268.654 433.897 268.294 434.329 267.994C434.761 267.694 435.247 267.466 435.787 267.31C436.327 267.142 436.879 267.058 437.443 267.058C438.271 267.058 439.009 267.214 439.657 267.526C440.317 267.838 440.833 268.258 441.205 268.786C441.577 269.314 441.763 269.914 441.763 270.586C441.763 271.066 441.667 271.498 441.475 271.882C441.283 272.254 441.001 272.566 440.629 272.818C440.257 273.07 439.807 273.262 439.279 273.394C439.843 273.49 440.335 273.694 440.755 274.006C441.175 274.318 441.499 274.702 441.727 275.158C441.955 275.614 442.069 276.112 442.069 276.652C442.069 277.396 441.853 278.032 441.421 278.56C440.989 279.076 440.425 279.472 439.729 279.748C439.045 280.024 438.301 280.162 437.497 280.162Z" fill="#080A07"/>
<path d="M573.71 280.18C572.834 280.156 572.06 279.946 571.388 279.55C570.716 279.154 570.152 278.638 569.696 278.002C569.252 277.354 568.916 276.658 568.688 275.914C568.46 275.158 568.346 274.42 568.346 273.7C568.346 272.932 568.466 272.164 568.706 271.396C568.958 270.628 569.318 269.932 569.786 269.308C570.254 268.672 570.818 268.168 571.478 267.796C572.138 267.412 572.882 267.22 573.71 267.22C574.598 267.22 575.372 267.424 576.032 267.832C576.704 268.24 577.262 268.768 577.706 269.416C578.162 270.064 578.504 270.766 578.732 271.522C578.96 272.278 579.074 273.004 579.074 273.7C579.074 274.48 578.948 275.254 578.696 276.022C578.456 276.778 578.102 277.468 577.634 278.092C577.166 278.716 576.602 279.22 575.942 279.604C575.282 279.976 574.538 280.168 573.71 280.18ZM569.984 273.7C570.008 274.288 570.098 274.876 570.254 275.464C570.41 276.052 570.644 276.592 570.956 277.084C571.268 277.576 571.652 277.972 572.108 278.272C572.564 278.572 573.098 278.722 573.71 278.722C574.346 278.722 574.898 278.566 575.366 278.254C575.834 277.93 576.218 277.516 576.518 277.012C576.83 276.496 577.058 275.95 577.202 275.374C577.358 274.786 577.436 274.228 577.436 273.7C577.436 273.112 577.352 272.524 577.184 271.936C577.028 271.348 576.788 270.808 576.464 270.316C576.14 269.824 575.75 269.428 575.294 269.128C574.838 268.828 574.31 268.678 573.71 268.678C573.074 268.678 572.522 268.84 572.054 269.164C571.586 269.476 571.196 269.89 570.884 270.406C570.584 270.91 570.356 271.456 570.2 272.044C570.056 272.62 569.984 273.172 569.984 273.7ZM587.47 278.56V280H581.116V278.56H583.564V268.75C583.468 268.894 583.312 269.056 583.096 269.236C582.88 269.404 582.628 269.572 582.34 269.74C582.064 269.896 581.782 270.028 581.494 270.136C581.206 270.244 580.942 270.298 580.702 270.298V268.822C581.026 268.822 581.35 268.738 581.674 268.57C582.01 268.402 582.316 268.204 582.592 267.976C582.88 267.748 583.108 267.544 583.276 267.364C583.456 267.184 583.552 267.088 583.564 267.076H585.184V278.56H587.47ZM589.025 280V277.984H590.357V280H589.025ZM597.722 280.18C596.846 280.156 596.072 279.946 595.4 279.55C594.728 279.154 594.164 278.638 593.708 278.002C593.264 277.354 592.928 276.658 592.7 275.914C592.472 275.158 592.358 274.42 592.358 273.7C592.358 272.932 592.478 272.164 592.718 271.396C592.97 270.628 593.33 269.932 593.798 269.308C594.266 268.672 594.83 268.168 595.49 267.796C596.15 267.412 596.894 267.22 597.722 267.22C598.61 267.22 599.384 267.424 600.044 267.832C600.716 268.24 601.274 268.768 601.718 269.416C602.174 270.064 602.516 270.766 602.744 271.522C602.972 272.278 603.086 273.004 603.086 273.7C603.086 274.48 602.96 275.254 602.708 276.022C602.468 276.778 602.114 277.468 601.646 278.092C601.178 278.716 600.614 279.22 599.954 279.604C599.294 279.976 598.55 280.168 597.722 280.18ZM593.996 273.7C594.02 274.288 594.11 274.876 594.266 275.464C594.422 276.052 594.656 276.592 594.968 277.084C595.28 277.576 595.664 277.972 596.12 278.272C596.576 278.572 597.11 278.722 597.722 278.722C598.358 278.722 598.91 278.566 599.378 278.254C599.846 277.93 600.23 277.516 600.53 277.012C600.842 276.496 601.07 275.95 601.214 275.374C601.37 274.786 601.448 274.228 601.448 273.7C601.448 273.112 601.364 272.524 601.196 271.936C601.04 271.348 600.8 270.808 600.476 270.316C600.152 269.824 599.762 269.428 599.306 269.128C598.85 268.828 598.322 268.678 597.722 268.678C597.086 268.678 596.534 268.84 596.066 269.164C595.598 269.476 595.208 269.89 594.896 270.406C594.596 270.91 594.368 271.456 594.212 272.044C594.068 272.62 593.996 273.172 593.996 273.7ZM610.437 280V276.742H604.425V275.32L610.923 267.22H612.021V275.302H613.605V276.742H612.021V280H610.437ZM606.081 275.302H610.599V269.65L606.081 275.302Z" fill="#080A07"/>
<path d="M745.21 280.18C744.334 280.156 743.56 279.946 742.888 279.55C742.216 279.154 741.652 278.638 741.196 278.002C740.752 277.354 740.416 276.658 740.188 275.914C739.96 275.158 739.846 274.42 739.846 273.7C739.846 272.932 739.966 272.164 740.206 271.396C740.458 270.628 740.818 269.932 741.286 269.308C741.754 268.672 742.318 268.168 742.978 267.796C743.638 267.412 744.382 267.22 745.21 267.22C746.098 267.22 746.872 267.424 747.532 267.832C748.204 268.24 748.762 268.768 749.206 269.416C749.662 270.064 750.004 270.766 750.232 271.522C750.46 272.278 750.574 273.004 750.574 273.7C750.574 274.48 750.448 275.254 750.196 276.022C749.956 276.778 749.602 277.468 749.134 278.092C748.666 278.716 748.102 279.22 747.442 279.604C746.782 279.976 746.038 280.168 745.21 280.18ZM741.484 273.7C741.508 274.288 741.598 274.876 741.754 275.464C741.91 276.052 742.144 276.592 742.456 277.084C742.768 277.576 743.152 277.972 743.608 278.272C744.064 278.572 744.598 278.722 745.21 278.722C745.846 278.722 746.398 278.566 746.866 278.254C747.334 277.93 747.718 277.516 748.018 277.012C748.33 276.496 748.558 275.95 748.702 275.374C748.858 274.786 748.936 274.228 748.936 273.7C748.936 273.112 748.852 272.524 748.684 271.936C748.528 271.348 748.288 270.808 747.964 270.316C747.64 269.824 747.25 269.428 746.794 269.128C746.338 268.828 745.81 268.678 745.21 268.678C744.574 268.678 744.022 268.84 743.554 269.164C743.086 269.476 742.696 269.89 742.384 270.406C742.084 270.91 741.856 271.456 741.7 272.044C741.556 272.62 741.484 273.172 741.484 273.7ZM758.97 278.56V280H752.616V278.56H755.064V268.75C754.968 268.894 754.812 269.056 754.596 269.236C754.38 269.404 754.128 269.572 753.84 269.74C753.564 269.896 753.282 270.028 752.994 270.136C752.706 270.244 752.442 270.298 752.202 270.298V268.822C752.526 268.822 752.85 268.738 753.174 268.57C753.51 268.402 753.816 268.204 754.092 267.976C754.38 267.748 754.608 267.544 754.776 267.364C754.956 267.184 755.052 267.088 755.064 267.076H756.684V278.56H758.97ZM760.525 280V277.984H761.857V280H760.525ZM769.222 280.18C768.346 280.156 767.572 279.946 766.9 279.55C766.228 279.154 765.664 278.638 765.208 278.002C764.764 277.354 764.428 276.658 764.2 275.914C763.972 275.158 763.858 274.42 763.858 273.7C763.858 272.932 763.978 272.164 764.218 271.396C764.47 270.628 764.83 269.932 765.298 269.308C765.766 268.672 766.33 268.168 766.99 267.796C767.65 267.412 768.394 267.22 769.222 267.22C770.11 267.22 770.884 267.424 771.544 267.832C772.216 268.24 772.774 268.768 773.218 269.416C773.674 270.064 774.016 270.766 774.244 271.522C774.472 272.278 774.586 273.004 774.586 273.7C774.586 274.48 774.46 275.254 774.208 276.022C773.968 276.778 773.614 277.468 773.146 278.092C772.678 278.716 772.114 279.22 771.454 279.604C770.794 279.976 770.05 280.168 769.222 280.18ZM765.496 273.7C765.52 274.288 765.61 274.876 765.766 275.464C765.922 276.052 766.156 276.592 766.468 277.084C766.78 277.576 767.164 277.972 767.62 278.272C768.076 278.572 768.61 278.722 769.222 278.722C769.858 278.722 770.41 278.566 770.878 278.254C771.346 277.93 771.73 277.516 772.03 277.012C772.342 276.496 772.57 275.95 772.714 275.374C772.87 274.786 772.948 274.228 772.948 273.7C772.948 273.112 772.864 272.524 772.696 271.936C772.54 271.348 772.3 270.808 771.976 270.316C771.652 269.824 771.262 269.428 770.806 269.128C770.35 268.828 769.822 268.678 769.222 268.678C768.586 268.678 768.034 268.84 767.566 269.164C767.098 269.476 766.708 269.89 766.396 270.406C766.096 270.91 765.868 271.456 765.712 272.044C765.568 272.62 765.496 273.172 765.496 273.7ZM780.245 280.18C779.333 280.18 778.511 279.964 777.779 279.532C777.059 279.1 776.507 278.518 776.123 277.786L777.113 276.922C777.449 277.474 777.893 277.918 778.445 278.254C779.009 278.59 779.615 278.758 780.263 278.758C780.815 278.758 781.307 278.638 781.739 278.398C782.171 278.158 782.513 277.828 782.765 277.408C783.017 276.988 783.143 276.502 783.143 275.95C783.143 275.41 783.017 274.936 782.765 274.528C782.525 274.12 782.195 273.802 781.775 273.574C781.367 273.334 780.905 273.214 780.389 273.214C779.885 273.214 779.405 273.328 778.949 273.556C778.493 273.784 778.127 274.108 777.851 274.528H776.411L777.851 267.22H784.061V268.678H779.021L778.247 272.746C778.511 272.458 778.841 272.236 779.237 272.08C779.645 271.924 780.095 271.846 780.587 271.846C781.379 271.846 782.087 272.02 782.711 272.368C783.347 272.716 783.845 273.196 784.205 273.808C784.577 274.408 784.763 275.11 784.763 275.914C784.763 276.754 784.559 277.498 784.151 278.146C783.755 278.782 783.215 279.28 782.531 279.64C781.859 280 781.097 280.18 780.245 280.18Z" fill="#080A07"/>
<path d="M10.116 34.77C10.116 35.586 9.912 36.33 9.504 37.002C9.108 37.662 8.562 38.19 7.866 38.586C7.182 38.982 6.408 39.18 5.544 39.18C4.632 39.18 3.828 38.964 3.132 38.532C2.436 38.088 1.89 37.452 1.494 36.624C1.11 35.796 0.918 34.812 0.918 33.672C0.918 31.992 1.116 30.594 1.512 29.478C1.908 28.362 2.466 27.528 3.186 26.976C3.906 26.412 4.746 26.13 5.706 26.13C6.534 26.13 7.284 26.334 7.956 26.742C8.64 27.138 9.174 27.69 9.558 28.398L8.586 29.352C8.322 28.788 7.932 28.344 7.416 28.02C6.9 27.684 6.324 27.516 5.688 27.516C5.04 27.516 4.47 27.714 3.978 28.11C3.486 28.506 3.102 29.076 2.826 29.82C2.562 30.564 2.424 31.464 2.412 32.52C2.592 32.1 2.844 31.74 3.168 31.44C3.492 31.128 3.87 30.888 4.302 30.72C4.746 30.552 5.214 30.468 5.706 30.468C6.534 30.468 7.278 30.66 7.938 31.044C8.61 31.428 9.138 31.944 9.522 32.592C9.918 33.24 10.116 33.966 10.116 34.77ZM5.562 37.812C6.114 37.812 6.618 37.674 7.074 37.398C7.542 37.122 7.914 36.756 8.19 36.3C8.466 35.832 8.604 35.322 8.604 34.77C8.604 34.218 8.466 33.714 8.19 33.258C7.914 32.802 7.542 32.436 7.074 32.16C6.618 31.884 6.114 31.746 5.562 31.746C5.01 31.746 4.5 31.884 4.032 32.16C3.576 32.436 3.21 32.802 2.934 33.258C2.658 33.714 2.52 34.218 2.52 34.77C2.52 35.322 2.658 35.832 2.934 36.3C3.21 36.756 3.576 37.122 4.032 37.398C4.5 37.674 5.01 37.812 5.562 37.812ZM17.126 39.18C16.25 39.156 15.476 38.946 14.804 38.55C14.132 38.154 13.568 37.638 13.112 37.002C12.668 36.354 12.332 35.658 12.104 34.914C11.876 34.158 11.762 33.42 11.762 32.7C11.762 31.932 11.882 31.164 12.122 30.396C12.374 29.628 12.734 28.932 13.202 28.308C13.67 27.672 14.234 27.168 14.894 26.796C15.554 26.412 16.298 26.22 17.126 26.22C18.014 26.22 18.788 26.424 19.448 26.832C20.12 27.24 20.678 27.768 21.122 28.416C21.578 29.064 21.92 29.766 22.148 30.522C22.376 31.278 22.49 32.004 22.49 32.7C22.49 33.48 22.364 34.254 22.112 35.022C21.872 35.778 21.518 36.468 21.05 37.092C20.582 37.716 20.018 38.22 19.358 38.604C18.698 38.976 17.954 39.168 17.126 39.18ZM13.4 32.7C13.424 33.288 13.514 33.876 13.67 34.464C13.826 35.052 14.06 35.592 14.372 36.084C14.684 36.576 15.068 36.972 15.524 37.272C15.98 37.572 16.514 37.722 17.126 37.722C17.762 37.722 18.314 37.566 18.782 37.254C19.25 36.93 19.634 36.516 19.934 36.012C20.246 35.496 20.474 34.95 20.618 34.374C20.774 33.786 20.852 33.228 20.852 32.7C20.852 32.112 20.768 31.524 20.6 30.936C20.444 30.348 20.204 29.808 19.88 29.316C19.556 28.824 19.166 28.428 18.71 28.128C18.254 27.828 17.726 27.678 17.126 27.678C16.49 27.678 15.938 27.84 15.47 28.164C15.002 28.476 14.612 28.89 14.3 29.406C14 29.91 13.772 30.456 13.616 31.044C13.472 31.62 13.4 32.172 13.4 32.7Z" fill="#080A07"/>
<path d="M7.806 131.68C6.894 131.68 6.072 131.464 5.34 131.032C4.62 130.6 4.068 130.018 3.684 129.286L4.674 128.422C5.01 128.974 5.454 129.418 6.006 129.754C6.57 130.09 7.176 130.258 7.824 130.258C8.376 130.258 8.868 130.138 9.3 129.898C9.732 129.658 10.074 129.328 10.326 128.908C10.578 128.488 10.704 128.002 10.704 127.45C10.704 126.91 10.578 126.436 10.326 126.028C10.086 125.62 9.756 125.302 9.336 125.074C8.928 124.834 8.466 124.714 7.95 124.714C7.446 124.714 6.966 124.828 6.51 125.056C6.054 125.284 5.688 125.608 5.412 126.028H3.972L5.412 118.72H11.622V120.178H6.582L5.808 124.246C6.072 123.958 6.402 123.736 6.798 123.58C7.206 123.424 7.656 123.346 8.148 123.346C8.94 123.346 9.648 123.52 10.272 123.868C10.908 124.216 11.406 124.696 11.766 125.308C12.138 125.908 12.324 126.61 12.324 127.414C12.324 128.254 12.12 128.998 11.712 129.646C11.316 130.282 10.776 130.78 10.092 131.14C9.42 131.5 8.658 131.68 7.806 131.68ZM17.8431 131.68C16.9311 131.68 16.1091 131.464 15.3771 131.032C14.6571 130.6 14.1051 130.018 13.7211 129.286L14.7111 128.422C15.0471 128.974 15.4911 129.418 16.0431 129.754C16.6071 130.09 17.2131 130.258 17.8611 130.258C18.4131 130.258 18.9051 130.138 19.3371 129.898C19.7691 129.658 20.1111 129.328 20.3631 128.908C20.6151 128.488 20.7411 128.002 20.7411 127.45C20.7411 126.91 20.6151 126.436 20.3631 126.028C20.1231 125.62 19.7931 125.302 19.3731 125.074C18.9651 124.834 18.5031 124.714 17.9871 124.714C17.4831 124.714 17.0031 124.828 16.5471 125.056C16.0911 125.284 15.7251 125.608 15.4491 126.028H14.0091L15.4491 118.72H21.6591V120.178H16.6191L15.8451 124.246C16.1091 123.958 16.4391 123.736 16.8351 123.58C17.2431 123.424 17.6931 123.346 18.1851 123.346C18.9771 123.346 19.6851 123.52 20.3091 123.868C20.9451 124.216 21.4431 124.696 21.8031 125.308C22.1751 125.908 22.3611 126.61 22.3611 127.414C22.3611 128.254 22.1571 128.998 21.7491 129.646C21.3531 130.282 20.8131 130.78 20.1291 131.14C19.4571 131.5 18.6951 131.68 17.8431 131.68Z" fill="#080A07"/>
<path d="M5.806 224.18C4.894 224.18 4.072 223.964 3.34 223.532C2.62 223.1 2.068 222.518 1.684 221.786L2.674 220.922C3.01 221.474 3.454 221.918 4.006 222.254C4.57 222.59 5.176 222.758 5.824 222.758C6.376 222.758 6.868 222.638 7.3 222.398C7.732 222.158 8.074 221.828 8.326 221.408C8.578 220.988 8.704 220.502 8.704 219.95C8.704 219.41 8.578 218.936 8.326 218.528C8.086 218.12 7.756 217.802 7.336 217.574C6.928 217.334 6.466 217.214 5.95 217.214C5.446 217.214 4.966 217.328 4.51 217.556C4.054 217.784 3.688 218.108 3.412 218.528H1.972L3.412 211.22H9.622V212.678H4.582L3.808 216.746C4.072 216.458 4.402 216.236 4.798 216.08C5.206 215.924 5.656 215.846 6.148 215.846C6.94 215.846 7.648 216.02 8.272 216.368C8.908 216.716 9.406 217.196 9.766 217.808C10.138 218.408 10.324 219.11 10.324 219.914C10.324 220.754 10.12 221.498 9.712 222.146C9.316 222.782 8.776 223.28 8.092 223.64C7.42 224 6.658 224.18 5.806 224.18ZM17.2471 224.18C16.3711 224.156 15.5971 223.946 14.9251 223.55C14.2531 223.154 13.6891 222.638 13.2331 222.002C12.7891 221.354 12.4531 220.658 12.2251 219.914C11.9971 219.158 11.8831 218.42 11.8831 217.7C11.8831 216.932 12.0031 216.164 12.2431 215.396C12.4951 214.628 12.8551 213.932 13.3231 213.308C13.7911 212.672 14.3551 212.168 15.0151 211.796C15.6751 211.412 16.4191 211.22 17.2471 211.22C18.1351 211.22 18.9091 211.424 19.5691 211.832C20.2411 212.24 20.7991 212.768 21.2431 213.416C21.6991 214.064 22.0411 214.766 22.2691 215.522C22.4971 216.278 22.6111 217.004 22.6111 217.7C22.6111 218.48 22.4851 219.254 22.2331 220.022C21.9931 220.778 21.6391 221.468 21.1711 222.092C20.7031 222.716 20.1391 223.22 19.4791 223.604C18.8191 223.976 18.0751 224.168 17.2471 224.18ZM13.5211 217.7C13.5451 218.288 13.6351 218.876 13.7911 219.464C13.9471 220.052 14.1811 220.592 14.4931 221.084C14.8051 221.576 15.1891 221.972 15.6451 222.272C16.1011 222.572 16.6351 222.722 17.2471 222.722C17.8831 222.722 18.4351 222.566 18.9031 222.254C19.3711 221.93 19.7551 221.516 20.0551 221.012C20.3671 220.496 20.5951 219.95 20.7391 219.374C20.8951 218.786 20.9731 218.228 20.9731 217.7C20.9731 217.112 20.8891 216.524 20.7211 215.936C20.5651 215.348 20.3251 214.808 20.0011 214.316C19.6771 213.824 19.2871 213.428 18.8311 213.128C18.3751 212.828 17.8471 212.678 17.2471 212.678C16.6111 212.678 16.0591 212.84 15.5911 213.164C15.1231 213.476 14.7331 213.89 14.4211 214.406C14.1211 214.91 13.8931 215.456 13.7371 216.044C13.5931 216.62 13.5211 217.172 13.5211 217.7Z" fill="#080A07"/>
<rect x="34" width="1" height="250" fill="#BCC0B7"/>
<path d="M76 217.497C133.732 175.555 175.176 65.7251 246 57.0011C312.923 48.7575 350.072 170.828 417.5 170.497C486.21 170.159 523.562 141.879 592 147.997C661.87 154.243 763 202.997 763 202.997" stroke="#346B04"/>
</svg>
