<svg width="17" height="17" viewBox="0 0 17 17" fill="none" xmlns="http://www.w3.org/2000/svg">
<path d="M8.5 0.296875C6.87758 0.296875 5.29159 0.77798 3.94259 1.67935C2.59359 2.58072 1.54218 3.86188 0.921304 5.3608C0.300429 6.85973 0.13798 8.5091 0.454499 10.1004C0.771019 11.6916 1.55229 13.1533 2.69952 14.3005C3.84675 15.4477 5.3084 16.229 6.89965 16.5455C8.4909 16.862 10.1403 16.6996 11.6392 16.0787C13.1381 15.4578 14.4193 14.4064 15.3207 13.0574C16.222 11.7084 16.7031 10.1224 16.7031 8.5C16.7007 6.32513 15.8357 4.24002 14.2979 2.70215C12.76 1.16429 10.6749 0.299263 8.5 0.296875ZM3.6495 14.2766C4.13636 13.4193 4.84173 12.7064 5.69378 12.2104C6.54583 11.7145 7.51411 11.4532 8.5 11.4532C9.4859 11.4532 10.4542 11.7145 11.3062 12.2104C12.1583 12.7064 12.8636 13.4193 13.3505 14.2766C11.9928 15.4199 10.2749 16.0469 8.5 16.0469C6.72507 16.0469 5.00719 15.4199 3.6495 14.2766ZM13.846 13.8214C13.0308 12.4585 11.724 11.4603 10.1948 11.0323C10.9058 10.6542 11.4699 10.0491 11.7974 9.31342C12.1249 8.57771 12.197 7.75361 12.0021 6.97222C11.8073 6.19084 11.3567 5.49707 10.7221 5.00128C10.0875 4.5055 9.30531 4.23618 8.5 4.23618C7.69469 4.23618 6.91251 4.5055 6.27791 5.00128C5.64331 5.49707 5.19273 6.19084 4.99788 6.97222C4.80302 7.75361 4.87508 8.57771 5.20258 9.31342C5.53009 10.0491 6.09422 10.6542 6.80524 11.0323C5.276 11.4603 3.96918 12.4585 3.15403 13.8214C2.10128 12.7648 1.38519 11.4201 1.09617 9.95687C0.80716 8.49365 0.958187 6.97761 1.53018 5.60017C2.10218 4.22273 3.0695 3.04567 4.30999 2.2176C5.55048 1.38953 7.00852 0.947593 8.5 0.947593C9.99149 0.947593 11.4495 1.38953 12.69 2.2176C13.9305 3.04567 14.8978 4.22273 15.4698 5.60017C16.0418 6.97761 16.1928 8.49365 15.9038 9.95687C15.6148 11.4201 14.8987 12.7648 13.846 13.8214ZM8.5 10.7969C7.91593 10.7969 7.34497 10.6237 6.85934 10.2992C6.3737 9.97469 5.99519 9.51347 5.77167 8.97386C5.54816 8.43425 5.48968 7.84047 5.60362 7.26762C5.71757 6.69477 5.99883 6.16858 6.41183 5.75558C6.82483 5.34257 7.35103 5.06132 7.92388 4.94737C8.49673 4.83342 9.0905 4.8919 9.63012 5.11542C10.1697 5.33893 10.6309 5.71744 10.9554 6.20308C11.2799 6.68872 11.4531 7.25968 11.4531 7.84375C11.4531 8.62697 11.142 9.37811 10.5882 9.93192C10.0344 10.4857 9.28322 10.7969 8.5 10.7969Z" fill="#5B6354"/>
</svg>
