<svg width="15" height="15" viewBox="0 0 15 15" fill="none" xmlns="http://www.w3.org/2000/svg">
<g clip-path="url(#clip0_1028_26532)">
<path d="M3.60875 7.9823L10.4269 14.8003C10.6932 15.0666 11.1249 15.0666 11.3912 14.8003C11.6574 14.534 11.6574 14.1023 11.3911 13.836L5.05507 7.50012L11.3912 1.1639C11.6574 0.897625 11.6574 0.465943 11.3911 0.199671C11.258 0.066535 11.0835 -1.04904e-05 10.909 -1.04904e-05C10.7345 -1.04904e-05 10.56 0.066535 10.4269 0.199717L3.60875 7.01808C3.48084 7.14594 3.40903 7.31935 3.40903 7.50017C3.40903 7.68099 3.48084 7.85444 3.60875 7.9823Z" fill="#080A07"/>
</g>
<defs>
<clipPath id="clip0_1028_26532">
<rect width="15" height="15" fill="white" transform="matrix(-1 0 0 -1 15 15)"/>
</clipPath>
</defs>
</svg>
