<svg width="12" height="19" viewBox="0 0 12 19" fill="none" xmlns="http://www.w3.org/2000/svg">
<path d="M2.8752 18.6004L11.3002 10.2004C11.4002 10.1004 11.4709 9.99206 11.5122 9.87539C11.5542 9.75872 11.5752 9.63372 11.5752 9.50039C11.5752 9.36706 11.5542 9.24206 11.5122 9.12539C11.4709 9.00872 11.4002 8.90039 11.3002 8.80039L2.8752 0.375391C2.64186 0.142057 2.3502 0.0253906 2.0002 0.0253906C1.6502 0.0253906 1.3502 0.150391 1.1002 0.400391C0.850196 0.650391 0.725196 0.942057 0.725196 1.27539C0.725196 1.60872 0.850196 1.90039 1.1002 2.15039L8.4502 9.50039L1.1002 16.8504C0.866862 17.0837 0.750196 17.3711 0.750196 17.7124C0.750196 18.0544 0.875196 18.3504 1.1252 18.6004C1.3752 18.8504 1.66686 18.9754 2.0002 18.9754C2.33353 18.9754 2.6252 18.8504 2.8752 18.6004Z" fill="#BCC0B7"/>
</svg>
