<svg width="20" height="21" viewBox="0 0 20 21" fill="none" xmlns="http://www.w3.org/2000/svg">
<g clip-path="url(#clip0_1028_12050)">
<path d="M15.8333 10.5378C15.3725 10.5378 15 10.9112 15 11.3711V18.0378C15 18.4969 14.6266 18.8711 14.1667 18.8711H2.5C2.03995 18.8711 1.66672 18.4969 1.66672 18.0378V6.37109C1.66672 5.91196 2.03995 5.53781 2.5 5.53781H9.16672C9.62753 5.53781 10 5.16443 10 4.70453C10 4.24448 9.62753 3.87109 9.16672 3.87109H2.5C1.12167 3.87109 0 4.99277 0 6.37109V18.0378C0 19.4161 1.12167 20.5378 2.5 20.5378H14.1667C15.545 20.5378 16.6667 19.4161 16.6667 18.0378V11.3711C16.6667 10.9103 16.2941 10.5378 15.8333 10.5378Z" fill="#BCC0B7"/>
<path d="M7.81344 9.77887C7.75515 9.83716 7.71594 9.91132 7.6993 9.99127L7.11016 12.938C7.0827 13.0746 7.12603 13.2155 7.2243 13.3146C7.30349 13.3938 7.41015 13.4362 7.5194 13.4362C7.54595 13.4362 7.57357 13.4338 7.60104 13.428L10.5469 12.8389C10.6285 12.8221 10.7027 12.783 10.7602 12.7246L17.3535 6.13126L14.4077 3.18555L7.81344 9.77887Z" fill="#BCC0B7"/>
<path d="M19.3901 1.14846C18.5778 0.33593 17.256 0.33593 16.4443 1.14846L15.291 2.30172L18.2369 5.24758L19.3901 4.09417C19.7835 3.70171 20.0002 3.17834 20.0002 2.6217C20.0002 2.06506 19.7835 1.54168 19.3901 1.14846Z" fill="#BCC0B7"/>
</g>
<defs>
<clipPath id="clip0_1028_12050">
<rect width="20" height="20" fill="white" transform="translate(0 0.5)"/>
</clipPath>
</defs>
</svg>
