<svg width="20" height="21" viewBox="0 0 20 21" fill="none" xmlns="http://www.w3.org/2000/svg">
<g clip-path="url(#clip0_1028_12054)">
<path d="M17.2717 6.16406C17.6852 6.16406 17.9719 5.74605 17.8168 5.36273C17.2663 4.00176 15.9311 3.03906 14.3751 3.03906H13.6558C13.3875 1.62215 12.1452 0.5 10.6251 0.5H9.37508C7.8559 0.5 6.61278 1.62141 6.34438 3.03906H5.62508C4.06907 3.03906 2.73383 4.00176 2.18332 5.36273C2.02828 5.74605 2.31496 6.16406 2.72844 6.16406H17.2717ZM9.37508 1.67188H10.6251C11.4805 1.67188 12.2067 2.24742 12.4512 3.03906H7.54899C7.79344 2.24742 8.51961 1.67188 9.37508 1.67188Z" fill="#BCC0B7"/>
<path d="M4.33826 18.867C4.40346 19.7827 5.17365 20.5 6.09162 20.5H13.9088C14.8268 20.5 15.597 19.7827 15.6622 18.867L16.4834 7.33594H3.51709L4.33826 18.867ZM11.6026 10.4707C11.6187 10.1475 11.8943 9.89828 12.217 9.9148C12.5402 9.93098 12.7891 10.2061 12.7729 10.5293L12.4604 16.7793C12.4448 17.0925 12.1859 17.3359 11.8757 17.3359C11.5383 17.3359 11.2734 17.0538 11.29 16.7207L11.6026 10.4707ZM7.7835 9.9148C8.10627 9.89859 8.38182 10.1476 8.39795 10.4707L8.71045 16.7207C8.72709 17.0539 8.46193 17.3359 8.12475 17.3359C7.81459 17.3359 7.55568 17.0925 7.54002 16.7793L7.22752 10.5293C7.21139 10.2061 7.46029 9.93098 7.7835 9.9148Z" fill="#BCC0B7"/>
</g>
<defs>
<clipPath id="clip0_1028_12054">
<rect width="20" height="20" fill="white" transform="translate(0 0.5)"/>
</clipPath>
</defs>
</svg>
