<svg width="19" height="19" viewBox="0 0 19 19" fill="none" xmlns="http://www.w3.org/2000/svg">
<g clip-path="url(#clip0_990_150197)">
<path d="M15.8528 9.48926C15.8528 9.31357 15.9952 9.17115 16.1709 9.17115H17.1172C17.0716 8.04754 16.7765 6.94806 16.2533 5.95252L15.4351 6.42491C15.3368 6.48264 15.2148 6.48318 15.1159 6.42621C15.0168 6.36946 14.956 6.264 14.9563 6.14985C14.9565 6.03569 15.0179 5.93035 15.1172 5.87392L15.9339 5.4023C15.3303 4.45438 14.5261 3.65018 13.5782 3.04658L13.1065 3.86327C13.0501 3.96253 12.9448 4.02396 12.8306 4.02418C12.7165 4.0245 12.611 3.96362 12.5543 3.86458C12.4973 3.76564 12.4978 3.64366 12.5556 3.54538L13.0279 2.72716C12.0324 2.20411 10.9329 1.90894 9.80932 1.86328V2.80957C9.80932 2.98526 9.6669 3.12768 9.49121 3.12768C9.31552 3.12768 9.1731 2.98526 9.1731 2.80957V1.86328C8.04949 1.90894 6.95002 2.20411 5.95448 2.72716L6.42686 3.54538C6.48459 3.64366 6.48513 3.76564 6.42817 3.86458C6.37141 3.96362 6.26596 4.0245 6.1518 4.02418C6.03765 4.02396 5.9323 3.96253 5.87587 3.86327L5.40425 3.04658C4.45633 3.65018 3.65214 4.45438 3.04853 5.4023L3.86523 5.87392C3.96449 5.93035 4.02591 6.03569 4.02613 6.14985C4.02646 6.264 3.96557 6.36946 3.86653 6.42621C3.7676 6.48318 3.64561 6.48264 3.54733 6.42491L2.72911 5.95252C2.20596 6.94806 1.91079 8.04754 1.86523 9.17115H2.81152C2.98721 9.17115 3.12963 9.31357 3.12963 9.48926C3.12963 9.66495 2.98721 9.80737 2.81152 9.80737H1.86523C1.91079 10.931 2.20596 12.0305 2.72911 13.026L3.54733 12.5536C3.64561 12.4959 3.7676 12.4953 3.86653 12.5523C3.96557 12.6091 4.02646 12.7145 4.02613 12.8287C4.02591 12.9428 3.96449 13.0482 3.86523 13.1046L3.04853 13.5762C3.65214 14.5241 4.45633 15.3283 5.40425 15.9319L5.87587 15.1152C5.9323 15.016 6.03765 14.9546 6.1518 14.9543C6.26596 14.954 6.37141 15.0149 6.42817 15.1139C6.48513 15.2129 6.48459 15.3349 6.42686 15.4331L5.95448 16.2514C6.95002 16.7744 8.04949 17.0696 9.1731 17.1152V16.1689C9.1731 15.9933 9.31552 15.8508 9.49121 15.8508C9.6669 15.8508 9.80932 15.9933 9.80932 16.1689V17.1152C10.9329 17.0696 12.0324 16.7744 13.0279 16.2514L12.5556 15.4331C12.4978 15.3349 12.4973 15.2129 12.5543 15.1139C12.611 15.0149 12.7165 14.954 12.8306 14.9543C12.9448 14.9546 13.0501 15.016 13.1065 15.1152L13.5782 15.9319C14.5261 15.3283 15.3303 14.5241 15.9339 13.5762L15.1172 13.1046C15.0179 13.0482 14.9565 12.9428 14.9563 12.8287C14.956 12.7145 15.0168 12.6091 15.1159 12.5523C15.2148 12.4953 15.3368 12.4959 15.4351 12.5536L16.2533 13.026C16.7765 12.0305 17.0716 10.931 17.1172 9.80737H16.1709C15.9952 9.80737 15.8528 9.66495 15.8528 9.48926ZM9.49121 10.7615C9.38684 10.7603 9.28312 10.7462 9.18234 10.7193L7.86206 13.1405C7.7778 13.2946 7.5845 13.3515 7.43034 13.2673C7.27606 13.1833 7.2192 12.99 7.30357 12.8357L8.62374 10.4149C8.28389 10.0998 8.14353 9.62418 8.25812 9.17506C8.3726 8.72605 8.72376 8.37576 9.1731 8.26204V4.40002C9.1731 4.22422 9.31552 4.0818 9.49121 4.0818C9.6669 4.0818 9.80932 4.22422 9.80932 4.40002V8.26204C10.429 8.42164 10.8332 9.01731 10.7523 9.65212C10.6717 10.2868 10.1311 10.7624 9.49121 10.7615Z" fill="#346B04"/>
<path d="M10.1267 9.48963C10.1267 9.8409 9.84188 10.1257 9.49061 10.1257C9.13934 10.1257 8.85449 9.8409 8.85449 9.48963C8.85449 9.13836 9.13934 8.85352 9.49061 8.85352C9.84188 8.85352 10.1267 9.13836 10.1267 9.48963Z" fill="#346B04"/>
<path d="M9.49024 0.583984C4.57136 0.583984 0.583984 4.57136 0.583984 9.49024C0.583984 14.4091 4.57136 18.3965 9.49024 18.3965C14.4091 18.3965 18.3965 14.4091 18.3965 9.49024C18.3909 4.57386 14.4066 0.589529 9.49024 0.583984ZM16.6525 13.6252C16.6473 13.6339 16.6405 13.6401 16.6347 13.6482C15.9105 14.886 14.879 15.9157 13.6401 16.6381C13.6345 16.6417 13.6313 16.6477 13.6252 16.6511C13.6193 16.6547 13.6069 16.6582 13.5976 16.6626C11.0545 18.1246 7.92599 18.1246 5.38284 16.6626C5.37359 16.6582 5.36414 16.6563 5.35522 16.6511C5.34631 16.6461 5.34598 16.6417 5.34033 16.6381C4.10148 15.9157 3.06995 14.886 2.34577 13.6482C2.34001 13.6401 2.33316 13.6339 2.32794 13.6252C2.32294 13.6167 2.32479 13.6126 2.32175 13.6062C0.853064 11.0588 0.853064 7.92164 2.32175 5.37425C2.32479 5.36783 2.32457 5.3612 2.32794 5.35522C2.33153 5.34913 2.33762 5.34598 2.34099 5.34033C3.06517 4.09843 4.09843 3.06517 5.34033 2.34099C5.34598 2.33762 5.34913 2.33153 5.35522 2.32794C5.3612 2.32457 5.36783 2.32479 5.37425 2.32175C7.92164 0.853064 11.0588 0.853064 13.6062 2.32175C13.6126 2.32479 13.6193 2.32457 13.6252 2.32794C13.6313 2.33153 13.6345 2.33762 13.6401 2.34099C14.882 3.06538 15.9153 4.09865 16.6395 5.34054C16.6429 5.34598 16.6489 5.34913 16.6525 5.35522C16.6559 5.3612 16.6557 5.36783 16.6587 5.37425C18.1274 7.92164 18.1274 11.0588 16.6587 13.6062C16.6557 13.6126 16.6559 13.6193 16.6525 13.6252Z" fill="#346B04"/>
</g>
<defs>
<clipPath id="clip0_990_150197">
<rect width="19" height="19" fill="white"/>
</clipPath>
</defs>
</svg>
