<svg width="116" height="19" viewBox="0 0 116 19" fill="none" xmlns="http://www.w3.org/2000/svg">
<g clip-path="url(#clip0_990_150211)">
<path d="M4.5861 18.6163C4.37793 18.6163 4.17122 18.5514 3.9948 18.4238C3.66617 18.1856 3.51265 17.7763 3.6021 17.3812L4.82442 11.9969L0.679078 8.36155C0.374368 8.09555 0.257963 7.67429 0.383065 7.28883C0.508168 6.90411 0.848539 6.63172 1.25153 6.59447L6.73632 6.09652L8.90481 1.02183C9.06471 0.648985 9.42885 0.408203 9.83344 0.408203C10.238 0.408203 10.6022 0.648985 10.7621 1.02096L12.9306 6.09652L18.4145 6.59447C18.8183 6.63085 19.1587 6.90411 19.2838 7.28883C19.4089 7.67356 19.2932 8.09555 18.9885 8.36155L14.8432 11.9962L16.0655 17.3804C16.1551 17.7763 16.0014 18.1856 15.673 18.4231C15.3452 18.6605 14.9081 18.6788 14.563 18.4714L9.83344 15.645L5.1039 18.473C4.94401 18.5679 4.76585 18.6163 4.5861 18.6163ZM9.83344 14.4275C10.0132 14.4275 10.1912 14.4758 10.3512 14.5707L14.8148 17.2403L13.6612 12.1584C13.5788 11.7967 13.7016 11.4191 13.9811 11.1744L17.8952 7.7417L12.7167 7.27144C12.3439 7.23737 12.0232 7.00297 11.8776 6.65941L9.83344 1.87044L7.78687 6.66013C7.64277 7.00137 7.32212 7.23578 6.95014 7.26984L1.77093 7.7401L5.68491 11.1728C5.96527 11.4182 6.08791 11.7951 6.00484 12.1577L4.8521 17.2395L9.31564 14.5707C9.47553 14.4758 9.65369 14.4275 9.83344 14.4275ZM6.69443 6.19466C6.69443 6.19466 6.69443 6.19553 6.69356 6.19625L6.69443 6.19466ZM12.9709 6.19234L12.9717 6.19393C12.9717 6.19307 12.9717 6.19307 12.9709 6.19234Z" fill="#346B04"/>
<path d="M9.83344 14.4275C10.0132 14.4275 10.1912 14.4758 10.3512 14.5707L14.8148 17.2403L13.6612 12.1584C13.5788 11.7967 13.7016 11.4191 13.9811 11.1744L17.8952 7.7417L12.7167 7.27144C12.3439 7.23737 12.0232 7.00297 11.8776 6.65941L9.83344 1.87044L7.78687 6.66013C7.64277 7.00137 7.32212 7.23578 6.95014 7.26984L1.77093 7.7401L5.68491 11.1728C5.96527 11.4182 6.08791 11.7951 6.00484 12.1577L4.8521 17.2395L9.31564 14.5707C9.47553 14.4758 9.65369 14.4275 9.83344 14.4275Z" fill="#346B04"/>
</g>
<g clip-path="url(#clip1_990_150211)">
<path d="M28.5861 18.6163C28.3779 18.6163 28.1712 18.5514 27.9948 18.4238C27.6662 18.1856 27.5127 17.7763 27.6021 17.3812L28.8244 11.9969L24.6791 8.36155C24.3744 8.09555 24.258 7.67429 24.3831 7.28883C24.5082 6.90411 24.8485 6.63172 25.2515 6.59447L30.7363 6.09652L32.9048 1.02183C33.0647 0.648985 33.4289 0.408203 33.8334 0.408203C34.238 0.408203 34.6022 0.648985 34.7621 1.02096L36.9306 6.09652L42.4145 6.59447C42.8183 6.63085 43.1587 6.90411 43.2838 7.28883C43.4089 7.67356 43.2932 8.09555 42.9885 8.36155L38.8432 11.9962L40.0655 17.3804C40.1551 17.7763 40.0014 18.1856 39.673 18.4231C39.3452 18.6605 38.9081 18.6788 38.563 18.4714L33.8334 15.645L29.1039 18.473C28.944 18.5679 28.7659 18.6163 28.5861 18.6163ZM33.8334 14.4275C34.0132 14.4275 34.1912 14.4758 34.3512 14.5707L38.8148 17.2403L37.6612 12.1584C37.5788 11.7967 37.7016 11.4191 37.9811 11.1744L41.8952 7.7417L36.7167 7.27144C36.3439 7.23737 36.0232 7.00297 35.8776 6.65941L33.8334 1.87044L31.7869 6.66013C31.6428 7.00137 31.3221 7.23578 30.9501 7.26984L25.7709 7.7401L29.6849 11.1728C29.9653 11.4182 30.0879 11.7951 30.0048 12.1577L28.8521 17.2395L33.3156 14.5707C33.4755 14.4758 33.6537 14.4275 33.8334 14.4275ZM30.6944 6.19466C30.6944 6.19466 30.6944 6.19553 30.6936 6.19625L30.6944 6.19466ZM36.9709 6.19234L36.9717 6.19393C36.9717 6.19307 36.9717 6.19307 36.9709 6.19234Z" fill="#346B04"/>
<path d="M33.8334 14.4275C34.0132 14.4275 34.1912 14.4758 34.3512 14.5707L38.8148 17.2403L37.6612 12.1584C37.5788 11.7967 37.7016 11.4191 37.9811 11.1744L41.8952 7.7417L36.7167 7.27144C36.3439 7.23737 36.0232 7.00297 35.8776 6.65941L33.8334 1.87044L31.7869 6.66013C31.6428 7.00137 31.3221 7.23578 30.9501 7.26984L25.7709 7.7401L29.6849 11.1728C29.9653 11.4182 30.0879 11.7951 30.0048 12.1577L28.8521 17.2395L33.3156 14.5707C33.4755 14.4758 33.6537 14.4275 33.8334 14.4275Z" fill="#346B04"/>
</g>
<g clip-path="url(#clip2_990_150211)">
<path d="M52.5861 18.6163C52.3779 18.6163 52.1712 18.5514 51.9948 18.4238C51.6662 18.1856 51.5127 17.7763 51.6021 17.3812L52.8244 11.9969L48.6791 8.36155C48.3744 8.09555 48.258 7.67429 48.3831 7.28883C48.5082 6.90411 48.8485 6.63172 49.2515 6.59447L54.7363 6.09652L56.9048 1.02183C57.0647 0.648985 57.4289 0.408203 57.8334 0.408203C58.238 0.408203 58.6022 0.648985 58.7621 1.02096L60.9306 6.09652L66.4145 6.59447C66.8183 6.63085 67.1587 6.90411 67.2838 7.28883C67.4089 7.67356 67.2932 8.09555 66.9885 8.36155L62.8432 11.9962L64.0655 17.3804C64.1551 17.7763 64.0014 18.1856 63.673 18.4231C63.3452 18.6605 62.9081 18.6788 62.563 18.4714L57.8334 15.645L53.1039 18.473C52.944 18.5679 52.7659 18.6163 52.5861 18.6163ZM57.8334 14.4275C58.0132 14.4275 58.1912 14.4758 58.3512 14.5707L62.8148 17.2403L61.6612 12.1584C61.5788 11.7967 61.7016 11.4191 61.9811 11.1744L65.8952 7.7417L60.7167 7.27144C60.3439 7.23737 60.0232 7.00297 59.8776 6.65941L57.8334 1.87044L55.7869 6.66013C55.6428 7.00137 55.3221 7.23578 54.9501 7.26984L49.7709 7.7401L53.6849 11.1728C53.9653 11.4182 54.0879 11.7951 54.0048 12.1577L52.8521 17.2395L57.3156 14.5707C57.4755 14.4758 57.6537 14.4275 57.8334 14.4275ZM54.6944 6.19466C54.6944 6.19466 54.6944 6.19553 54.6936 6.19625L54.6944 6.19466ZM60.9709 6.19234L60.9717 6.19393C60.9717 6.19307 60.9717 6.19307 60.9709 6.19234Z" fill="#346B04"/>
<path d="M57.8334 14.4275C58.0132 14.4275 58.1912 14.4758 58.3512 14.5707L62.8148 17.2403L61.6612 12.1584C61.5788 11.7967 61.7016 11.4191 61.9811 11.1744L65.8952 7.7417L60.7167 7.27144C60.3439 7.23737 60.0232 7.00297 59.8776 6.65941L57.8334 1.87044L55.7869 6.66013C55.6428 7.00137 55.3221 7.23578 54.9501 7.26984L49.7709 7.7401L53.6849 11.1728C53.9653 11.4182 54.0879 11.7951 54.0048 12.1577L52.8521 17.2395L57.3156 14.5707C57.4755 14.4758 57.6537 14.4275 57.8334 14.4275Z" fill="#346B04"/>
</g>
<g clip-path="url(#clip3_990_150211)">
<path d="M76.5861 18.6163C76.3779 18.6163 76.1712 18.5514 75.9948 18.4238C75.6662 18.1856 75.5127 17.7763 75.6021 17.3812L76.8244 11.9969L72.6791 8.36155C72.3744 8.09555 72.258 7.67429 72.3831 7.28883C72.5082 6.90411 72.8485 6.63172 73.2515 6.59447L78.7363 6.09652L80.9048 1.02183C81.0647 0.648985 81.4289 0.408203 81.8334 0.408203C82.238 0.408203 82.6022 0.648985 82.7621 1.02096L84.9306 6.09652L90.4145 6.59447C90.8183 6.63085 91.1587 6.90411 91.2838 7.28883C91.4089 7.67356 91.2932 8.09555 90.9885 8.36155L86.8432 11.9962L88.0655 17.3804C88.1551 17.7763 88.0014 18.1856 87.673 18.4231C87.3452 18.6605 86.9081 18.6788 86.563 18.4714L81.8334 15.645L77.1039 18.473C76.944 18.5679 76.7659 18.6163 76.5861 18.6163ZM81.8334 14.4275C82.0132 14.4275 82.1912 14.4758 82.3512 14.5707L86.8148 17.2403L85.6612 12.1584C85.5788 11.7967 85.7016 11.4191 85.9811 11.1744L89.8952 7.7417L84.7167 7.27144C84.3439 7.23737 84.0232 7.00297 83.8776 6.65941L81.8334 1.87044L79.7869 6.66013C79.6428 7.00137 79.3221 7.23578 78.9501 7.26984L73.7709 7.7401L77.6849 11.1728C77.9653 11.4182 78.0879 11.7951 78.0048 12.1577L76.8521 17.2395L81.3156 14.5707C81.4755 14.4758 81.6537 14.4275 81.8334 14.4275ZM78.6944 6.19466C78.6944 6.19466 78.6944 6.19553 78.6936 6.19625L78.6944 6.19466ZM84.9709 6.19234L84.9717 6.19393C84.9717 6.19307 84.9717 6.19307 84.9709 6.19234Z" fill="#346B04"/>
<path d="M81.8334 14.4275C82.0132 14.4275 82.1912 14.4758 82.3512 14.5707L86.8148 17.2403L85.6612 12.1584C85.5788 11.7967 85.7016 11.4191 85.9811 11.1744L89.8952 7.7417L84.7167 7.27144C84.3439 7.23737 84.0232 7.00297 83.8776 6.65941L81.8334 1.87044L79.7869 6.66013C79.6428 7.00137 79.3221 7.23578 78.9501 7.26984L73.7709 7.7401L77.6849 11.1728C77.9653 11.4182 78.0879 11.7951 78.0048 12.1577L76.8521 17.2395L81.3156 14.5707C81.4755 14.4758 81.6537 14.4275 81.8334 14.4275Z" fill="#346B04"/>
</g>
<g clip-path="url(#clip4_990_150211)">
<path d="M100.586 18.6163C100.378 18.6163 100.171 18.5514 99.9948 18.4238C99.6662 18.1856 99.5127 17.7763 99.6021 17.3812L100.824 11.9969L96.6791 8.36155C96.3744 8.09555 96.258 7.67429 96.3831 7.28883C96.5082 6.90411 96.8485 6.63172 97.2515 6.59447L102.736 6.09652L104.905 1.02183C105.065 0.648985 105.429 0.408203 105.833 0.408203C106.238 0.408203 106.602 0.648985 106.762 1.02096L108.931 6.09652L114.414 6.59447C114.818 6.63085 115.159 6.90411 115.284 7.28883C115.409 7.67356 115.293 8.09555 114.989 8.36155L110.843 11.9962L112.066 17.3804C112.155 17.7763 112.001 18.1856 111.673 18.4231C111.345 18.6605 110.908 18.6788 110.563 18.4714L105.833 15.645L101.104 18.473C100.944 18.5679 100.766 18.6163 100.586 18.6163ZM105.833 14.4275C106.013 14.4275 106.191 14.4758 106.351 14.5707L110.815 17.2403L109.661 12.1584C109.579 11.7967 109.702 11.4191 109.981 11.1744L113.895 7.7417L108.717 7.27144C108.344 7.23737 108.023 7.00297 107.878 6.65941L105.833 1.87044L103.787 6.66013C103.643 7.00137 103.322 7.23578 102.95 7.26984L97.7709 7.7401L101.685 11.1728C101.965 11.4182 102.088 11.7951 102.005 12.1577L100.852 17.2395L105.316 14.5707C105.476 14.4758 105.654 14.4275 105.833 14.4275ZM102.694 6.19466L102.694 6.19625L102.694 6.19466ZM108.971 6.19234L108.972 6.19393L108.971 6.19234Z" fill="#346B04"/>
<path d="M105.833 14.4282C105.833 8.55125 105.833 9.02625 105.833 1.87109L103.786 6.66079C103.642 7.00203 103.321 7.23644 102.949 7.2705L97.77 7.74076L101.684 11.1735C101.964 11.4189 102.087 11.7958 102.004 12.1583L100.851 17.2401L105.315 14.5714C105.475 14.4764 105.833 14.4282 105.833 14.4282Z" fill="#346B04"/>
</g>
<defs>
<clipPath id="clip0_990_150211">
<rect width="19" height="19" fill="white" transform="translate(0.333496)"/>
</clipPath>
<clipPath id="clip1_990_150211">
<rect width="19" height="19" fill="white" transform="translate(24.3335)"/>
</clipPath>
<clipPath id="clip2_990_150211">
<rect width="19" height="19" fill="white" transform="translate(48.3335)"/>
</clipPath>
<clipPath id="clip3_990_150211">
<rect width="19" height="19" fill="white" transform="translate(72.3335)"/>
</clipPath>
<clipPath id="clip4_990_150211">
<rect width="19" height="19" fill="white" transform="translate(96.3335)"/>
</clipPath>
</defs>
</svg>
