<svg width="21" height="21" viewBox="0 0 21 21" fill="none" xmlns="http://www.w3.org/2000/svg">
<g opacity="0.65">
<path d="M3.42917 20.0156C3.55932 20.0913 3.70641 20.1291 3.85515 20.1249C4.00389 20.1208 4.14886 20.0749 4.275 19.992L10.5 15.9066L16.725 19.992C16.8511 20.0748 16.9961 20.1206 17.1448 20.1247C17.2935 20.1288 17.4405 20.091 17.5706 20.0153C17.7007 19.9396 17.8092 19.8287 17.8847 19.6941C17.9602 19.5595 18 19.4062 18 19.25V3.5C18 2.80381 17.7366 2.13613 17.2678 1.64384C16.7989 1.15156 16.163 0.875 15.5 0.875H5.5C4.83696 0.875 4.20107 1.15156 3.73223 1.64384C3.26339 2.13613 3 2.80381 3 3.5V19.25C2.99993 19.4062 3.03969 19.5596 3.11516 19.6943C3.19063 19.8289 3.29905 19.9399 3.42917 20.0156ZM4.66667 3.5C4.66667 3.26794 4.75446 3.04538 4.91074 2.88128C5.06702 2.71719 5.27899 2.625 5.5 2.625H15.5C15.721 2.625 15.933 2.71719 16.0893 2.88128C16.2455 3.04538 16.3333 3.26794 16.3333 3.5V17.675L10.9417 14.1365C10.8092 14.0496 10.6562 14.0035 10.5 14.0035C10.3438 14.0035 10.1908 14.0496 10.0583 14.1365L4.66667 17.675V3.5Z" fill="#346B04"/>
</g>
</svg>
