<svg width="15" height="15" viewBox="0 0 15 15" fill="none" xmlns="http://www.w3.org/2000/svg">
<path d="M7.4917 0.0820312C3.39969 0.0820312 0.0825195 3.3992 0.0825195 7.49121C0.0825195 11.5832 3.39969 14.9004 7.4917 14.9004C11.5837 14.9004 14.9009 11.5832 14.9009 7.49121C14.9009 3.3992 11.5837 0.0820312 7.4917 0.0820312ZM8.16396 11.3446C7.96655 11.52 7.7204 11.6074 7.42535 11.6074C7.1303 11.6074 6.88398 11.52 6.68673 11.3446C6.48932 11.1696 6.3907 10.9455 6.3907 10.6725C6.3907 10.3997 6.48932 10.1756 6.68673 10.0005C6.88398 9.82527 7.13013 9.73767 7.42535 9.73767C7.7204 9.73767 7.96655 9.82527 8.16396 10.0005C8.36137 10.1756 8.46016 10.3997 8.46016 10.6725C8.46016 10.9455 8.36137 11.1696 8.16396 11.3446ZM9.915 6.4014C9.79332 6.65233 9.59755 6.90868 9.32852 7.17048L8.69232 7.76239C8.51137 7.93576 8.38591 8.11358 8.31609 8.29618C8.24612 8.47877 8.20743 8.71027 8.19985 8.9905H6.61758C6.61758 8.45193 6.67834 8.02698 6.80018 7.71513C6.92185 7.40345 7.1191 7.13343 7.39209 6.90457C7.66507 6.67604 7.87253 6.4666 8.01462 6.27676C8.15655 6.08676 8.22751 5.87749 8.22751 5.6488C8.22751 5.09195 7.98779 4.81337 7.50833 4.81337C7.28704 4.81337 7.10807 4.89454 6.97174 5.05688C6.83525 5.21923 6.76329 5.43854 6.75589 5.71531H4.88597C4.89322 4.97769 5.1257 4.40323 5.5831 3.99194C6.04032 3.58065 6.68212 3.375 7.50833 3.375C8.33091 3.375 8.96794 3.565 9.41973 3.94485C9.87169 4.32486 10.0974 4.86523 10.0974 5.56598C10.0974 5.87206 10.0367 6.15064 9.915 6.4014Z" fill="#BCC0B7"/>
</svg>
