<svg width="20" height="21" viewBox="0 0 20 21" fill="none" xmlns="http://www.w3.org/2000/svg">
<g clip-path="url(#clip0_990_153786)">
<path d="M17.2716 6.16406C17.6851 6.16406 17.9718 5.74605 17.8168 5.36273C17.2663 4.00176 15.931 3.03906 14.375 3.03906H13.6557C13.3875 1.62215 12.1452 0.5 10.625 0.5H9.375C7.85582 0.5 6.6127 1.62141 6.3443 3.03906H5.625C4.06899 3.03906 2.73375 4.00176 2.18324 5.36273C2.0282 5.74605 2.31488 6.16406 2.72836 6.16406H17.2716ZM9.375 1.67188H10.625C11.4805 1.67188 12.2066 2.24742 12.4511 3.03906H7.54891C7.79336 2.24742 8.51953 1.67188 9.375 1.67188Z" fill="#BCC0B7"/>
<path d="M4.33801 18.867C4.4032 19.7827 5.1734 20.5 6.09137 20.5H13.9086C14.8266 20.5 15.5968 19.7827 15.662 18.867L16.4832 7.33594H3.51684L4.33801 18.867ZM11.6023 10.4707C11.6185 10.1475 11.8941 9.89828 12.2168 9.9148C12.54 9.93098 12.7889 10.2061 12.7727 10.5293L12.4602 16.7793C12.4445 17.0925 12.1856 17.3359 11.8755 17.3359C11.5381 17.3359 11.2731 17.0538 11.2898 16.7207L11.6023 10.4707ZM7.78324 9.9148C8.10602 9.89859 8.38156 10.1476 8.3977 10.4707L8.7102 16.7207C8.72684 17.0539 8.46168 17.3359 8.12449 17.3359C7.81434 17.3359 7.55543 17.0925 7.53977 16.7793L7.22727 10.5293C7.21113 10.2061 7.46004 9.93098 7.78324 9.9148Z" fill="#BCC0B7"/>
</g>
<defs>
<clipPath id="clip0_990_153786">
<rect width="20" height="20" fill="white" transform="translate(0 0.5)"/>
</clipPath>
</defs>
</svg>
