<svg width="14" height="15" viewBox="0 0 14 15" fill="none" xmlns="http://www.w3.org/2000/svg">
<g clip-path="url(#clip0_1203_12994)">
<path d="M11.0287 12.3177C10.8018 12.3177 10.598 12.2327 10.4174 12.0627C10.2371 11.8924 10.147 11.6938 10.147 11.4669V5.40347L3.23282 12.3177C3.05752 12.493 2.85107 12.5806 2.61349 12.5806C2.37672 12.5806 2.17069 12.493 1.99539 12.3177C1.82008 12.1423 1.73222 11.9361 1.73181 11.6989C1.73222 11.4618 1.82008 11.2555 1.99539 11.0802L8.90956 4.16604H2.84612C2.61926 4.16604 2.42065 4.07591 2.2503 3.89566C2.08036 3.71499 1.99539 3.51123 1.99539 3.28436C1.99539 3.0575 2.08304 2.85642 2.25834 2.68111C2.43365 2.50581 2.63473 2.41816 2.86159 2.41816L11.0287 2.41816C11.1421 2.40784 11.2504 2.42826 11.3535 2.47941C11.4566 2.53138 11.5494 2.59862 11.6319 2.68111C11.7144 2.76361 11.779 2.85373 11.8256 2.95149C11.8718 3.04966 11.8949 3.16062 11.8949 3.28436V11.4514C11.8949 11.6783 11.8072 11.8794 11.6319 12.0547C11.4566 12.23 11.2555 12.3177 11.0287 12.3177Z" fill="#080A07"/>
</g>
<defs>
<clipPath id="clip0_1203_12994">
<rect width="14" height="14" fill="white" transform="translate(0 0.5)"/>
</clipPath>
</defs>
</svg>
