<svg width="51" height="50" viewBox="0 0 51 50" fill="none" xmlns="http://www.w3.org/2000/svg">
<rect x="0.5" width="50" height="50" rx="5" fill="#0077FF"/>
<g clip-path="url(#clip0_990_157315)">
<path d="M37.0996 23.5976C37.5262 23.0461 37.8649 22.6036 38.115 22.2697C39.9164 19.8747 40.6972 18.3448 40.4579 17.6778L40.364 17.5216C40.3016 17.4277 40.1399 17.3416 39.8798 17.2636C39.6194 17.1856 39.2862 17.1732 38.8803 17.2246L34.3819 17.2563C34.2778 17.246 34.1736 17.2484 34.0694 17.2636C33.9653 17.2794 33.8977 17.2953 33.8663 17.3104C33.8349 17.3263 33.809 17.3391 33.7883 17.3494L33.7259 17.3963C33.6739 17.4274 33.6167 17.4822 33.5542 17.5606C33.4917 17.6388 33.4393 17.7296 33.3979 17.834C32.9086 19.0939 32.3515 20.2656 31.7267 21.3485C31.3413 21.9942 30.9871 22.5543 30.6647 23.0275C30.3419 23.5017 30.0711 23.8504 29.8524 24.0739C29.6338 24.2977 29.4358 24.4777 29.2589 24.6126C29.0816 24.7485 28.9464 24.8054 28.853 24.7847C28.7591 24.7641 28.6705 24.7434 28.5874 24.722C28.4415 24.6285 28.3242 24.5012 28.236 24.3395C28.1474 24.1785 28.0877 23.9752 28.0562 23.7304C28.0252 23.4859 28.0066 23.2748 28.0018 23.0975C27.9962 22.9206 27.999 22.6709 28.0097 22.3477C28.0201 22.0248 28.0252 21.8066 28.0252 21.6917C28.0252 21.2965 28.0331 20.8667 28.0488 20.4032C28.0643 19.94 28.0774 19.5727 28.0877 19.3019C28.0981 19.0315 28.1032 18.7449 28.1032 18.4428C28.1032 18.1414 28.0849 17.904 28.0482 17.732C28.0117 17.5606 27.9569 17.394 27.8845 17.2322C27.8114 17.0712 27.7048 16.9459 27.564 16.8577C27.4234 16.769 27.2491 16.6991 27.0409 16.6466C26.4887 16.5214 25.7858 16.4545 24.9322 16.4435C22.9953 16.4235 21.7509 16.5483 21.1991 16.8187C20.9804 16.9335 20.7824 17.0894 20.6055 17.2874C20.4179 17.5168 20.392 17.6419 20.5276 17.6619C21.1525 17.7558 21.5947 17.9799 21.8551 18.3338L21.9489 18.5211C22.0217 18.6569 22.0945 18.8963 22.1676 19.2398C22.2404 19.5834 22.2873 19.9634 22.3083 20.3801C22.3604 21.1402 22.3604 21.7907 22.3083 22.3325C22.2562 22.8743 22.2069 23.2958 22.16 23.5973C22.1131 23.8994 22.0427 24.1439 21.9493 24.3312C21.8554 24.5191 21.793 24.6336 21.7616 24.6754C21.7303 24.7167 21.7044 24.7429 21.6837 24.7533C21.5482 24.8051 21.4078 24.8313 21.2619 24.8313C21.116 24.8313 20.9391 24.7581 20.7308 24.6122C20.5224 24.4671 20.3062 24.2663 20.0827 24.0111C19.8585 23.7563 19.6064 23.3993 19.325 22.9409C19.0439 22.4832 18.752 21.9414 18.4503 21.3168L18.2006 20.8636C18.0443 20.5725 17.8308 20.1479 17.5601 19.5909C17.2893 19.0339 17.0496 18.4952 16.8417 17.9741C16.7582 17.7558 16.6333 17.5892 16.4668 17.4743L16.3888 17.4274C16.3368 17.386 16.2533 17.3416 16.1388 17.295C16.0239 17.2481 15.9046 17.2142 15.7794 17.1932L11.4996 17.2243C11.0623 17.2243 10.7657 17.3236 10.6095 17.5216L10.5471 17.615C10.5155 17.6675 10.5 17.7509 10.5 17.8651C10.5 17.9799 10.5314 18.1203 10.5938 18.2866C11.2188 19.7551 11.8982 21.1713 12.6321 22.535C13.3665 23.8994 14.0042 24.9982 14.5456 25.8311C15.0871 26.6647 15.6389 27.4504 16.2015 28.1898C16.764 28.9293 17.1361 29.4028 17.3182 29.6108C17.5003 29.8195 17.6434 29.9757 17.7476 30.0795L18.1381 30.4547C18.3878 30.7045 18.7551 31.0038 19.2394 31.3528C19.7236 31.7018 20.2596 32.0454 20.8483 32.3834C21.4364 32.7221 22.1213 32.9976 22.9021 33.2115C23.683 33.4253 24.4431 33.5111 25.1825 33.4691H26.9788C27.3434 33.438 27.6192 33.3239 27.8065 33.1255L27.8689 33.0476C27.9103 32.9855 27.9496 32.889 27.9861 32.7589C28.0224 32.6289 28.0411 32.4854 28.0411 32.3295C28.0303 31.8819 28.0645 31.4777 28.1425 31.119C28.2204 30.7596 28.309 30.4892 28.4081 30.3064C28.507 30.1246 28.6187 29.9708 28.7439 29.8456C28.8688 29.7204 28.9571 29.6455 29.0095 29.6193C29.0616 29.5938 29.1034 29.5756 29.1344 29.5645C29.3841 29.4813 29.6783 29.5621 30.017 29.8066C30.3553 30.0519 30.673 30.3533 30.9699 30.7126C31.2665 31.072 31.6231 31.4752 32.0398 31.9232C32.4561 32.3708 32.8206 32.704 33.1331 32.9227L33.4456 33.1107C33.6538 33.2352 33.9242 33.3497 34.2578 33.4542C34.5909 33.558 34.8827 33.5842 35.1324 33.5321L39.1311 33.4694C39.5267 33.4694 39.834 33.4046 40.0527 33.2742C40.2713 33.1448 40.4014 33.0007 40.4431 32.8448C40.4845 32.6886 40.4873 32.5123 40.4511 32.314C40.4146 32.1163 40.378 31.9784 40.3418 31.9004C40.3053 31.8225 40.2714 31.757 40.24 31.7052C39.7193 30.7681 38.7249 29.6172 37.2566 28.2532L37.2253 28.2221L37.2098 28.2063L37.1943 28.1911H37.1786C36.5119 27.5558 36.0904 27.1288 35.9135 26.9098C35.5907 26.4939 35.5176 26.0721 35.6949 25.6451C35.819 25.3214 36.2874 24.6392 37.0996 23.5976Z" fill="white"/>
</g>
<defs>
<clipPath id="clip0_990_157315">
<rect width="30" height="30" fill="white" transform="translate(10.5 10)"/>
</clipPath>
</defs>
</svg>
