<svg width="51" height="50" viewBox="0 0 51 50" fill="none" xmlns="http://www.w3.org/2000/svg">
<rect x="0.5" width="50" height="50" rx="5" fill="#EE8208"/>
<g clip-path="url(#clip0_990_157297)">
<path d="M16.4012 26.1016C15.635 27.6079 16.505 28.3279 18.49 29.5579C20.1775 30.6004 22.5087 30.9816 24.0062 31.1341C23.3925 31.7241 26.205 29.0191 18.105 36.8104C16.3875 38.4566 19.1525 41.0979 20.8687 39.4866L25.515 35.0054C27.2937 36.7166 28.9987 38.3566 30.1612 39.4929C31.8787 41.1104 34.6425 38.4916 32.9437 36.8166C32.8162 36.6954 26.6475 30.7779 27.0237 31.1404C28.54 30.9879 30.8362 30.5841 32.5037 29.5641L32.5025 29.5629C34.4875 28.3266 35.3575 27.6079 34.6025 26.1016C34.1462 25.2466 32.9162 24.5316 31.2787 25.7679C31.2787 25.7679 29.0675 27.4616 25.5012 27.4616C21.9337 27.4616 19.7237 25.7679 19.7237 25.7679C18.0875 24.5254 16.8525 25.2466 16.4012 26.1016Z" fill="white"/>
<path d="M25.5003 25.1775C29.8478 25.1775 33.3978 21.78 33.3978 17.5975C33.3978 13.3975 29.8478 10 25.5003 10C21.1516 10 17.6016 13.3975 17.6016 17.5975C17.6016 21.78 21.1516 25.1775 25.5003 25.1775ZM25.5003 13.8488C27.6366 13.8488 29.3791 15.525 29.3791 17.5975C29.3791 19.6525 27.6366 21.3288 25.5003 21.3288C23.3641 21.3288 21.6216 19.6525 21.6216 17.5975C21.6203 15.5238 23.3628 13.8488 25.5003 13.8488Z" fill="white"/>
</g>
<defs>
<clipPath id="clip0_990_157297">
<rect width="30" height="30" fill="white" transform="translate(10.5 10)"/>
</clipPath>
</defs>
</svg>
