<svg width="51" height="50" viewBox="0 0 51 50" fill="none" xmlns="http://www.w3.org/2000/svg">
<rect x="0.5" width="50" height="50" rx="5" fill="#005FF9"/>
<path d="M30.0118 25C30.0118 27.4879 27.9879 29.5118 25.5 29.5118C23.0121 29.5118 20.9882 27.4879 20.9882 25C20.9882 22.5121 23.0121 20.4882 25.5 20.4882C27.9879 20.4882 30.0118 22.5121 30.0118 25ZM25.5 10C17.2286 10 10.5 16.7286 10.5 25C10.5 33.2714 17.2286 40 25.5 40C28.53 40 31.4518 39.0979 33.9493 37.3911L33.9921 37.3611L31.9714 35.0125L31.9371 35.0339C30.015 36.2714 27.7886 36.925 25.5 36.925C18.9246 36.925 13.575 31.5754 13.575 25C13.575 18.4246 18.9246 13.075 25.5 13.075C32.0754 13.075 37.425 18.4246 37.425 25C37.425 25.8518 37.3296 26.7143 37.1443 27.5629C36.7671 29.1111 35.6829 29.5846 34.8696 29.5225C34.0511 29.4561 33.0932 28.8732 33.0868 27.4461V26.3586V25C33.0868 20.8161 29.6839 17.4132 25.5 17.4132C21.3161 17.4132 17.9132 20.8161 17.9132 25C17.9132 29.1839 21.3161 32.5868 25.5 32.5868C27.5325 32.5868 29.4386 31.7929 30.8754 30.3475C31.7111 31.6482 33.0729 32.4636 34.6232 32.5879C34.7561 32.5986 34.8921 32.6039 35.0261 32.6039C36.1179 32.6039 37.1989 32.2386 38.0711 31.5775C38.97 30.8939 39.6418 29.9071 40.0125 28.7211C40.0714 28.5293 40.1807 28.0911 40.1807 28.0879L40.1839 28.0718C40.4025 27.1204 40.5 26.1721 40.5 25C40.5 16.7286 33.7714 10 25.5 10Z" fill="#FF9E00"/>
</svg>
