<svg width="51" height="50" viewBox="0 0 51 50" fill="none" xmlns="http://www.w3.org/2000/svg">
<rect x="0.5" width="50" height="50" rx="5" fill="#EBEBEB"/>
<path d="M38.1816 22.5332H27.0195C26.5273 22.5332 26.1289 22.9316 26.1289 23.4238V26.9922C26.1289 27.4844 26.5273 27.8828 27.0195 27.8828H33.3066C32.6211 29.6699 31.332 31.1641 29.6973 32.1133L32.375 36.7539C36.6699 34.2695 39.2129 29.9043 39.2129 25.0234C39.2129 24.3262 39.1602 23.8281 39.0605 23.2715C38.9785 22.8438 38.6094 22.5332 38.1816 22.5332Z" fill="#167EE6"/>
<path d="M25.5293 33.2383C22.4531 33.2383 19.7695 31.5566 18.3281 29.0723L13.6875 31.7441C16.0488 35.8398 20.4727 38.5938 25.5293 38.5938C28.0137 38.5938 30.3516 37.9258 32.373 36.7598V36.7539L29.6953 32.1133C28.4648 32.8281 27.0469 33.2383 25.5293 33.2383Z" fill="#12B347"/>
<path d="M32.3691 36.7598V36.7539L29.6914 32.1133C28.4668 32.8223 27.0488 33.2383 25.5312 33.2383V38.5938C28.0156 38.5938 30.3535 37.9258 32.3691 36.7598Z" fill="#0F993E"/>
<path d="M17.2031 24.9121C17.2031 23.3945 17.6191 21.9766 18.3281 20.752L13.6875 18.0801C12.5156 20.0898 11.8477 22.4219 11.8477 24.9121C11.8477 27.4023 12.5156 29.7344 13.6875 31.7441L18.3281 29.0723C17.6133 27.8477 17.2031 26.4297 17.2031 24.9121Z" fill="#FFD500"/>
<path d="M25.5293 16.5859C27.5332 16.5859 29.3789 17.3008 30.8145 18.4844C31.1719 18.7773 31.6875 18.7539 32.0098 18.4316L34.5352 15.9062C34.9043 15.5371 34.875 14.9336 34.4824 14.5938C32.0742 12.4961 28.9395 11.2305 25.5293 11.2305C20.4727 11.2305 16.0488 13.9844 13.6875 18.0801L18.3281 20.752C19.7695 18.2676 22.4531 16.5859 25.5293 16.5859Z" fill="#FF4B26"/>
<path d="M30.8164 18.4844C31.1738 18.7773 31.6895 18.7539 32.0117 18.4316L34.5371 15.9062C34.9063 15.5371 34.877 14.9336 34.4844 14.5938C32.0762 12.4961 28.9414 11.2305 25.5312 11.2305V16.5859C27.5352 16.5859 29.3809 17.2949 30.8164 18.4844Z" fill="#D93F21"/>
</svg>
