<svg width="51" height="50" viewBox="0 0 51 50" fill="none" xmlns="http://www.w3.org/2000/svg">
<rect x="0.5" width="50" height="50" rx="5" fill="#FF0000"/>
<path d="M31.7974 10H27.535C23.2166 10 18.8593 13.1888 18.8593 20.3129C18.8593 24.003 20.4233 26.877 23.2902 28.5114L18.0428 38.0089C17.7941 38.4581 17.7876 38.9672 18.0255 39.3707C18.2577 39.7647 18.6822 40 19.161 40H21.8151C22.4181 40 22.8884 39.7085 23.1137 39.198L28.0336 29.575H28.3927V38.8007C28.3927 39.4508 28.9413 40 29.5906 40H31.9096C32.6377 40 33.1462 39.4915 33.1462 38.7634V11.3127C33.1463 10.5398 32.5917 10 31.7974 10ZM28.3928 25.3004H27.7594C25.3035 25.3004 23.8372 23.2956 23.8372 19.9377C23.8372 15.7623 25.6894 14.2747 27.4229 14.2747H28.3928V25.3004Z" fill="white"/>
</svg>
