<svg width="12" height="19" viewBox="0 0 12 19" fill="none" xmlns="http://www.w3.org/2000/svg">
<path d="M9.12578 18.6004L0.700781 10.2004C0.600781 10.1004 0.530114 9.99206 0.488781 9.87539C0.446781 9.75872 0.425781 9.63372 0.425781 9.50039C0.425781 9.36706 0.446781 9.24206 0.488781 9.12539C0.530114 9.00872 0.600781 8.90039 0.700781 8.80039L9.12578 0.375391C9.35911 0.142057 9.65078 0.0253906 10.0008 0.0253906C10.3508 0.0253906 10.6508 0.150391 10.9008 0.400391C11.1508 0.650391 11.2758 0.942057 11.2758 1.27539C11.2758 1.60872 11.1508 1.90039 10.9008 2.15039L3.55078 9.50039L10.9008 16.8504C11.1341 17.0837 11.2508 17.3711 11.2508 17.7124C11.2508 18.0544 11.1258 18.3504 10.8758 18.6004C10.6258 18.8504 10.3341 18.9754 10.0008 18.9754C9.66745 18.9754 9.37578 18.8504 9.12578 18.6004Z" fill="#BCC0B7"/>
</svg>
