<svg width="20" height="22" viewBox="0 0 20 22" fill="none" xmlns="http://www.w3.org/2000/svg">
<path d="M2.92917 20.5156C3.05932 20.5913 3.20641 20.6291 3.35515 20.6249C3.50389 20.6208 3.64886 20.5749 3.775 20.492L10 16.4066L16.225 20.492C16.3511 20.5748 16.4961 20.6206 16.6448 20.6247C16.7935 20.6288 16.9405 20.591 17.0706 20.5153C17.2007 20.4396 17.3092 20.3287 17.3847 20.1941C17.4602 20.0595 17.5 19.9062 17.5 19.75V4C17.5 3.30381 17.2366 2.63613 16.7678 2.14384C16.2989 1.65156 15.663 1.375 15 1.375H5C4.33696 1.375 3.70107 1.65156 3.23223 2.14384C2.76339 2.63613 2.5 3.30381 2.5 4V19.75C2.49993 19.9062 2.53969 20.0596 2.61516 20.1943C2.69063 20.3289 2.79905 20.4399 2.92917 20.5156ZM4.16667 4C4.16667 3.76794 4.25446 3.54538 4.41074 3.38128C4.56702 3.21719 4.77899 3.125 5 3.125H15C15.221 3.125 15.433 3.21719 15.5893 3.38128C15.7455 3.54538 15.8333 3.76794 15.8333 4V18.175L10.4417 14.6365C10.3092 14.5496 10.1562 14.5035 10 14.5035C9.84382 14.5035 9.69078 14.5496 9.55833 14.6365L4.16667 18.175V4Z" fill="#346B04"/>
</svg>
